<svg xmlns="http://www.w3.org/2000/svg" viewBox="0 0 497.38 599.25"><defs><style>.cls-1{fill:#473321;}.cls-2{fill:#fdc73d;}.cls-3{fill:#473422;}.cls-4{fill:#483422;}.cls-5{fill:#4e3820;}.cls-6{fill:#fdc73c;}.cls-7{fill:#497da0;}.cls-8{fill:#e45f20;}.cls-9{fill:#f4a622;}.cls-10{fill:#4a7ea1;}.cls-11{fill:#335e79;}.cls-12{fill:#fdc83c;}.cls-13{fill:#487da0;}.cls-14{fill:#497ea1;}.cls-15{fill:#ba4418;}.cls-16{fill:#366686;}.cls-17{fill:#497ea0;}.cls-18{fill:#4a7fa1;}.cls-19{fill:#fdc73b;}.cls-20{fill:#f3a623;}.cls-21{fill:#4b7f9f;}.cls-22{fill:#e46b1a;}.cls-23{fill:#e46a1b;}.cls-24{fill:#fcc73b;}.cls-25{fill:#356788;}.cls-26{fill:#386889;}.cls-27{fill:#f3a523;}.cls-28{fill:#366788;}.cls-29{fill:#fbc73c;}.cls-30{fill:#366687;}.cls-31{fill:#376788;}.cls-32{fill:#366787;}.cls-33{fill:#477c9d;}.cls-34{fill:#fac83d;}.cls-35{fill:#4f3921;}.cls-36{fill:#f28d3c;}.cls-37{fill:#4f3821;}.cls-38{fill:#4f3820;}.cls-39{fill:#fefdfd;}.cls-40{fill:#fdfdfc;}.cls-41{fill:#ea7220;}.cls-42{fill:#e87525;}.cls-43{fill:#f6cd5d;}.cls-44{fill:#473322;}.cls-45{fill:#483321;}.cls-46{fill:#020203;}.cls-47{fill:#fdc83d;}.cls-48{fill:#fcc83d;}</style></defs><g id="Capa_2" data-name="Capa 2"><g id="Capa_1-2" data-name="Capa 1"><path class="cls-1" d="M445,185.83c-6.34-10.75-12.73-21.48-19.43-32-4.28-6.73-10.64-10.71-18.82-9.94-7.34.7-13,4.67-16.85,11.09-8.67,14.45-17.39,28.86-26,43.33-.49.82-.84,1.17-1.33,1.13a33,33,0,0,1,5.38,5.14c2.88,3.47,7.9,9.5,6.41,16.29a13.74,13.74,0,0,1-5.8,8.47c-6.09,4.14-9,5-12.76,5.69a3.62,3.62,0,0,0-2.9,4.14c1,6.2,2.6,13.14,3,19.53.69,10.68.94,20.83.87,30.37l4.8,10.58H478A18,18,0,0,0,493,292.49c5.77-7.47,5.69-15.29,1-23.28"/><path class="cls-2" d="M418.69,289.47c-19.72,0-39.44,0-59.16,0-2,0-2.63-.51-2.61-2.57a304.77,304.77,0,0,0-3.29-47.81c-.3-2,.19-3.15,2.34-3.81a52,52,0,0,0,10.62-4.74c8.52-4.92,10.54-13.53,4.92-21.57-.94-1.33-.72-2.11,0-3.32,8.49-15,17.48-29.68,26.35-44.44.36-.58.73-1.16,1.11-1.72,5.16-7.6,13.29-7.72,18.29,0s9.64,15.54,14.29,23.41q27,45.88,54,91.83c4.5,7.67.4,14.7-8.52,14.71q-29.14,0-58.29,0Z"/><path class="cls-3" d="M395.68,200.33c-.21-9,4.18-14.06,11.65-15.36,5.76-1,12,2.9,13.82,8.77,1.13,3.67,0,7.34-.45,11-1.64,12.73-3.37,25.44-5,38.16-.52,4.05-3.13,6.53-7.41,6.74-3.71.18-7.31-2.49-7.75-6.11-.93-7.52-1.65-15.07-2.49-22.61S396.33,206,395.68,200.33Z"/><path class="cls-4" d="M407.81,278.58a11.32,11.32,0,0,1-11.21-11.4,11.15,11.15,0,0,1,11.52-11.07,11.7,11.7,0,0,1,11.62,11.45C419.72,273.65,414.28,278.69,407.81,278.58Z"/><path class="cls-5" d="M114.93,599.25c-1.14-1-2.74-1.4-3.66-2.72-.67-.95-1.45-.5-2.33-.34-5.51,1-11,1.21-16.46-.47-4.94-1.54-7.66-5.06-7.53-9.47.11-3.42,2.2-5.56,4.86-7.13a49.31,49.31,0,0,1,19.79-6.18c2.07-.23,2.86-.5,2.78-2.78-.2-5.34-.09-5.3-5.13-7.18-11.36-4.24-21.91-9.85-30.8-18.26A22.08,22.08,0,0,1,72,539.31c-.8-1.49-1.65-1.54-3.28-1-12.93,4-24.61,1.92-34.23-8A30.8,30.8,0,0,1,26,509.78a6.84,6.84,0,0,0-3.38-6c-9.94-6.95-17.69-15.72-21.46-27.53-1.43-4.47-1.76-8.94.71-13.25a6.37,6.37,0,0,1,3.25-3.2c1.91-.67,2-1.51,1.13-3.33C2.82,449.73.5,442.63.73,435c.18-5.87,1.73-11.36,6.44-15.36,5-4.23,10.55-3.73,16.22-1.7,7.66,2.75,13.84,7.76,20,13.2a98.82,98.82,0,0,1,22-23.15,157.47,157.47,0,0,1-20.81-12c-15.25-10.81-28-23.86-35.52-41.28-6.89-16-7.2-32.5-2.77-49.08,2.58-9.66,3.18-19.51,4.38-29.33.75-6.16,1.79-12.29,2.76-18.42.26-1.7.41-2.71-2-2.68-4.14,0-6.06-2.13-6.69-6.19A160.43,160.43,0,0,1,3.09,215.5c1.79-32.16,12-61.25,32.65-86.32S82.4,87.06,113.18,77.07a59,59,0,0,1,12.46-2.75c.55,0,1.14.08,1.5-.6,2.89-5.45,8-7.88,13.73-9.63a46.28,46.28,0,0,1-8.68-17.72C128.45,30.64,136.47,14,150.44,9c8.39-3,16.65-1.71,24.77,1.22a64.81,64.81,0,0,1,13.18,6.62,138.59,138.59,0,0,1,12,8.81,32.63,32.63,0,0,1,1.73-11.19A22.69,22.69,0,0,1,225.56.09c12.2,1.08,21.89,7.05,30.35,15.21a106.92,106.92,0,0,1,31.94,61c.76,4.61,1.73,9.19,1.66,13.88a2.7,2.7,0,0,0,1.63,2.48c29.88,19.57,46.58,48,55.2,81.9q1.32,5.21,2.35,10.49a4.29,4.29,0,0,0,2.26,3.08c8,4.87,15.76,10.12,21.34,17.86,7.42,10.28,4.42,21.31-7.09,26.61a44.05,44.05,0,0,1-11.38,3.3c-1.4.23-1.71.71-1.5,2.05,2.59,16.18,4.35,32.44,4,48.86,0,1.63.88,2.71,1.61,3.94,5.19,8.81,9.21,18,10.81,28.25,2.73,17.51-1.05,33.58-10.43,48.4-9.24,14.58-22.14,25.17-37.17,33.35-.68.37-1.32.8-2.18,1.31,4,5.61,8.42,10.88,11.86,16.82,5.68,9.79,9.6,20,9.16,31.64-.6,16-12.54,30.5-28.24,34a39.13,39.13,0,0,1-17.36.09c-2.16-.48-3.31-.36-3.16,2.49.53,9.64.86,19.3,1.14,28.95a74.5,74.5,0,0,1-.95,16.6,9.81,9.81,0,0,1-7.14,8.06c-4.54,1.28-7.92,3.79-11.14,7.19a66.72,66.72,0,0,1-26.06,16.55c-2.68,1-3,2.48-2.76,4.72s2.15,1.77,3.56,2c7.38,1.07,14.83,1.84,21.82,4.73a16.26,16.26,0,0,1,6.8,4.83c3.11,3.93,2.33,8.8-1.8,11.65-3.55,2.47-7.63,2.68-11.72,2.74a6.05,6.05,0,0,0-4.32,1.54c-3.48,3-7.91,2.42-12,1.95-12.35-1.43-24.35-4.7-36.44-7.45a14.29,14.29,0,0,1-5.76-2.61c-4.41-3.48-3.64-9.55,1.55-11.7a63.48,63.48,0,0,1,6.6-2.14c1-.29,1.64-.65,1.36-1.8s-1.06-.88-1.86-.77c-16.6,2.25-33.26,2.35-49.94,1.4-5.93-.33-11.86-.83-17.79-1.25-.7-.05-1.62-.65-1.83.64s.73,1.11,1.47,1.3c2.34.6,4.69,1.14,7,1.89,4.32,1.42,6.5,4,6.46,7.62,0,3.92-2.36,6.15-5.83,7.48a191.56,191.56,0,0,1-24,7.6,4.92,4.92,0,0,0-1,.5Z"/><path class="cls-6" d="M338,216.77c3.13,15.44,5.41,31,7,46.7.69,6.88,1.09,13.82,1.18,20.73a23.24,23.24,0,0,0,3.36,11.57c5.2,9.11,9.09,18.64,9.83,29.33,1.2,17.34-4.65,32.12-15.69,45.12-8.26,9.73-18.66,16.72-29.74,22.83-1.49.82-2,.16-2.78-.82-8.05-9.56-16.2-19-26-26.84-4.21-3.34-8.67-6.28-14-7.61-10.65-2.66-19,4.65-17.7,15.58a30.44,30.44,0,0,0,2.19,8.44,56.56,56.56,0,0,0,4.2,7.95,21.22,21.22,0,0,0-10.16,6c-4.06,4.33-4.59,9.47-3.49,15,.34.64.2,1.39-.54,1-2.42-1.26-4.85-.42-7.19-.13a420.89,420.89,0,0,1-54.87,2.77c-8.28-.09-16.53-.87-24.79-1.56a295.9,295.9,0,0,1-33-4.67,229.34,229.34,0,0,1-49.57-15.6,112.37,112.37,0,0,1-31.93-21.38,59.26,59.26,0,0,1-16.79-30,54.48,54.48,0,0,1-1-20.09c2.88-19.56,4.88-39.26,8.39-58.74,1-5.41,3.79-8.4,8.54-10.43,10.15-4.32,20.51-8.07,30.92-11.71a20.09,20.09,0,0,1,11.17-.63,141.3,141.3,0,0,0,32,2.7c1.64,0,3.33-.31,4.89.53.65,1.89-1.09,2.05-2,2.5a27.27,27.27,0,0,0-8.76,6.7c-1.9,2.16-2.08,4.39-.52,6a4.42,4.42,0,0,0,6.12,0c9.72-8.44,21.23-8.66,33.09-7.41a12.88,12.88,0,0,0,2.89.33c2.09-.24,3.82-1,4.19-3.36a3.89,3.89,0,0,0-2.78-4.57,30.73,30.73,0,0,0-9.48-1.47,142.56,142.56,0,0,0-15.74.51c-.65-.16-1.52-.23-1.49-1.08,0-.61.79-.76,1.36-.93,2.83-.87,5.8-.69,8.7-1,9.21-1.06,18.21-3.23,27.24-5.24,11.34-2.53,22.34-6.26,33.49-9.47a275.16,275.16,0,0,1,54.86-10.05,203.39,203.39,0,0,1,68.69,6.05c4.52,1.22,8.84,3.08,13.24,4.68,2.42.88,2.53.75,2.14-1.78-.2-1.25-.48-2.5-.58-3.76C336.91,218.44,336.48,217.21,338,216.77Z"/><path class="cls-7" d="M130.78,89.51c10.29,2.41,20.69,4.4,30.82,7.32a125.92,125.92,0,0,1,37.8,17.89,133.71,133.71,0,0,1,37.27,39.7c1.36,2.22,2.68,4.48,3.89,6.79.88,1.68.57,2.72-1.68,2.74a205.69,205.69,0,0,0-33.42,3.12,287.75,287.75,0,0,0-33.07,7.72c-21.1,6.28-41.2,15-60.74,25-11.32,5.8-22.36,12.15-33.54,18.24a114.79,114.79,0,0,1-16.59,6.87c-1.72,0-1.63-1.38-1.86-2.47a104.56,104.56,0,0,1-1.64-16,121.37,121.37,0,0,1,1.26-28c2.9-16.24,8.06-31.67,17.25-45.64a121.31,121.31,0,0,1,31.87-32.64c5.67-4,12-6.9,18.17-10A5.1,5.1,0,0,1,130.78,89.51Z"/><path class="cls-8" d="M143.5,29.77c2.15-8.55,10.67-13.56,20.46-12.07,9.2,1.39,16.88,6,24.25,11.29,8.09,5.83,14.6,13.37,21.87,20.09,1.91,1.76,3.94,4.32,6.71,2.49s1-4.91.17-7.2c-1.89-5.47-4.8-10.58-6-16.29-1.13-5.34-1-10.54,3.22-14.61,3.58-3.41,8-4.12,12.76-3.15,11,2.27,19.26,8.83,26.53,16.85a93.31,93.31,0,0,1,17.26,27A104.9,104.9,0,0,1,278.47,86a76.42,76.42,0,0,1-2.57,27.45A93.51,93.51,0,0,1,262.66,141a83.73,83.73,0,0,1-10,12.09c-2.51,2.46-2.95,2.43-4.7-.53a186.23,186.23,0,0,0-11.2-17.24c-1.47-3.1-3.83-5.6-5.85-8.3a183.91,183.91,0,0,0-32.54-33.78c-10-8-20.41-15.34-30.08-23.67-8.43-7.25-16.81-14.58-22.1-24.66C143.7,40.14,141.85,35.26,143.5,29.77Z"/><path class="cls-9" d="M338,216.77c-1,3,.83,5.83.87,8.78,0,.45.46.89,0,1.47-4.41-1.55-8.89-3.06-13.32-4.68-7.87-2.87-16.1-4.23-24.3-5.59-7.47-1.23-15.06-1.38-22.58-2-8.32-.69-16.54-.13-24.75.36a231.32,231.32,0,0,0-31.05,4.18c-17.35,3.41-34.07,9.14-51.1,13.71-8.32,2.23-16.79,3.86-25.24,5.55-5.82,1.16-11.7,1.15-17.48,2.18l-.54.09c.08.77.73.36,1.11.52-1.91,2-4.3,2.23-6.85,1.78-4.3,0-8.6.07-12.89-.07a134.46,134.46,0,0,1-27.11-3.19c-4.21-1-7.82,1.07-11.53,2.33q-13.65,4.65-27,10.25c-4.66,2-7.72,4.52-8.57,10.13-1.68,11-3.72,21.95-4.59,33.09-.39,4.9-1.6,9.74-2.49,14.6a89.48,89.48,0,0,0-1,25.21c1.54,15.51,9,27.92,20.25,38s24.29,17,38.27,22.47a235.06,235.06,0,0,0,37.64,11,309.69,309.69,0,0,0,34.79,5,317,317,0,0,0,42.56,1.49c12.19-.52,24.45-.62,36.56-2.7,1.89-.33,3.87-.15,5.78-.64.92-.24,2-.23,2.27,1.11,0,0,.23.07.24.05a5,5,0,0,0,.23-.53L248,415.1c-10.09,1-17.17,6.88-23.84,13.5-1.23,1.23-2.5,2.42-3.75,3.63-3.26,4.35-7.51,5.08-12.58,3.86-1.82-.44-3.81-.29-5.62-1-5.15-3.84-10.3-7.68-15.68-11.2A25.28,25.28,0,0,0,174.16,420c-24.12-1.78-48.1-4.53-71.59-10.56-19.43-5-38.22-11.48-54.59-23.5-14.12-10.35-25.49-23-31.19-39.87a58.71,58.71,0,0,1-1.49-34c3.44-13.17,4.77-26.59,6.59-40,.88-6.45,2.61-12.77,3.86-19.17a2.9,2.9,0,0,1,2-2.22,440,440,0,0,1,50.15-19.11c4.34-1.34,8.68.2,13,.65a175.66,175.66,0,0,0,28.92.6c27.69-1.7,53.91-9.66,80-18.27,15.26-5,30.62-9.65,46.52-12.2,13.56-2.16,27.19-2.07,40.85-1,15.4,1.26,30.35,4.71,45.23,8.72C336.34,211.15,338,213,338,216.77Z"/><path class="cls-10" d="M99.1,512c2-4.89,2.4-10.15,3.45-15.26,1.17-5.69,2-11.45,3.09-17.17,1.52-8.19,3.11-16.37,4.66-24.56.36-1.91-.34-3.7-1-5.39a3.3,3.3,0,0,0-3.24-2.09,3.53,3.53,0,0,0-3.39,2.71q-1.89,6.56-3.52,13.18c-1.66,6.77-3.24,13.55-4.8,20.33-.29,1.27-1.09,1.44-2.16,1.39-8.55-.44-17.07-.91-25.52-2.55A104.26,104.26,0,0,1,46,476.2a1.55,1.55,0,0,1-.95-1c.43-4.51,2.26-8.64,3.77-12.82a69.35,69.35,0,0,1,13.32-22.92c6.37-7.13,13.89-13,23.5-15.08,4.51-1,9.14.09,13.63.85a104,104,0,0,1,23.18,7.08c4.71,7.18,9.5,14.31,14.1,21.56,3.37,5.31,6.27,6.3,12.15,4.27,9.87-3.41,19.81-6.6,29.73-9.84a5.08,5.08,0,0,1,5,.76c2.85,2.15,5.82,4.13,8.68,6.26a4.21,4.21,0,0,1,2,3.06c1.74,18.35,2.91,36.71,1.86,55.15-.47,8.26-1,16.51-1.95,24.73-.27,2.47-1,3.7-4.11,3.73-15,.1-30-1.15-44.91-2.62a260,260,0,0,1-30.78-4.75,124.19,124.19,0,0,1-16.77-4.58c1.35-4.46.71-9,.84-13.57C98.28,514.92,98.18,513.36,99.1,512Z"/><path class="cls-11" d="M130.78,89.51a101.76,101.76,0,0,0-29.41,16.9,112.48,112.48,0,0,0-39.81,64.77,134.26,134.26,0,0,0-2.79,34.14c.22,6.09,1.11,12.16,1.71,18.23a1.68,1.68,0,0,0,1,1.32c-15.68,5.24-30.45,12.84-46.62,18-.19-3.6-.9-7-1.07-10.39-.34-6.87-.52-13.77.53-20.69.67-4.46.92-9,1.6-13.53a95.61,95.61,0,0,1,2.37-10.68,153.79,153.79,0,0,1,6.81-20.06,139.41,139.41,0,0,1,12.79-23,114.92,114.92,0,0,1,19-22.45,183.53,183.53,0,0,1,24.8-18.77,166.42,166.42,0,0,1,26.1-13A138.79,138.79,0,0,1,125,85c.78-.2,1.73-.14,2,.73C127.58,87.75,129.46,88.32,130.78,89.51Z"/><path class="cls-12" d="M274.79,454.86c-2.82-5.4-7.42-9.18-11.78-13.21a28,28,0,0,1-8.29-13.5c-1.14-4.26.56-5.95,4.89-4.8,2.34.63,4.64,1.4,6.94,2.16,1.53.5,3.13,1,4.15-.7s.29-3.29-1.06-4.43a60.8,60.8,0,0,0-5-3.58,36.33,36.33,0,0,1-6.5-5.42c-1.89-2.08-2.79-4.5-1.6-7.24s3.43-4,6.46-4.17c4.69-.3,8.74,1.55,12.82,3.4,2,.92,4.28,1.94,5.74-.39,1.3-2.08.17-4.06-1.54-5.69-5.65-5.39-11.23-10.84-14.81-17.93a16.13,16.13,0,0,1-2.17-7.48c0-3.77,2.11-5.35,5.69-4.22,5.23,1.65,9.46,4.94,13.49,8.48,9.2,8.08,16.89,17.54,24.49,27.06,5.53,6.92,11.28,13.7,15.74,21.4,4.59,7.93,7.89,16.27,7.41,25.69a21,21,0,0,1-3.39,11c-2.41-.4-4.35,1-6.34,1.86-11.05,4.75-21.74,2.8-32.3-1.54a66.85,66.85,0,0,1-10.45-5.82C276.63,455.27,275.92,454.43,274.79,454.86Z"/><path class="cls-13" d="M95.82,220.76A223.68,223.68,0,0,1,122,205.92a333.88,333.88,0,0,1,48.71-20,291.21,291.21,0,0,1,36.14-8.71c17.65-3.18,35.4-4,53.25-3.76a165,165,0,0,1,36.9,4.92,186.47,186.47,0,0,1,52.43,21.38c2.67,1.61,5.39,3.25,7.44,5.83-3.77-1.58-7.52-3.2-11.3-4.74a190.94,190.94,0,0,0-31.9-9.44,164.88,164.88,0,0,0-39.39-4,177.93,177.93,0,0,0-31.22,3.82c-11.59,2.4-23,5.36-34.36,8.7-9.18,2.71-18.22,5.89-27.37,8.71-7.48,2.3-15,4.54-22.59,6.46-6.69,1.7-13.42,3.15-20.22,4.2-12.43,1.92-24.91,3.35-37.52,1.74C99.3,220.8,97.55,220.84,95.82,220.76Z"/><path class="cls-7" d="M336.75,181.41c-25-11.29-51.15-17.61-79.22-18A97.89,97.89,0,0,0,278,136.33a119,119,0,0,0,11-31.87,105.65,105.65,0,0,1,27.44,27.62C325.71,145.45,337.23,173.77,336.75,181.41Z"/><path class="cls-14" d="M224.38,455.15c1.3,2.79,3,3.15,5.23,1.29,1.87-1.53,3.06-3.84,5.43-4.8.67-.26,1.33.31,2,0,3.6-1.51,6.66,0,9.61,1.78a41.59,41.59,0,0,1,14.69,15.65c-8.5,1.49-17.09,1.43-25.66,1.23-3.66-.08-6.33,1-5.91,6.19,1.11,13.85.61,27.71.52,41.56-.06,9.84,3.65,11.2,10.87,11.8a99.29,99.29,0,0,0,30.25-1.8c2.36-.53,4.85-.25,7.15-1.26.77-.33,2.47-.69,2.39.48s.71,3.33-1.39,4c-3.86,1.2-7.68,2.59-11.62,3.43-8.07,1.73-16.15,3.5-24.32,4.59s-16.65,1.83-25,2.17c-1.65.07-1.39-.63-1.3-1.71.75-8.93,1.82-17.86,2.08-26.81.5-17.54,1.28-35.11-.6-52.63-.33-3.09-.42-6.19-.63-9.29C221.37,450.67,223,452.66,224.38,455.15Z"/><path class="cls-9" d="M82.43,536.24c57.52,19,116.09,19,174.78,11.56a60.79,60.79,0,0,1-16.19,8c-13.49,4-27.35,5.87-41.33,7.18a225,225,0,0,1-44.42-.21c-20.68-2.15-41-5.9-59.53-16.27A61.73,61.73,0,0,1,82.43,536.24Z"/><path class="cls-15" d="M143.5,29.77c-.74,11.19,5.19,19.45,12.25,27,9.5,10.22,20.64,18.56,31.75,26.91,11.37,8.54,22.3,17.58,31.92,28.1a177.92,177.92,0,0,1,15.73,19.84c.74,1.08,1.86,2.07,1.61,3.63-5.53-6.18-10.89-12.54-17-18.13A141.67,141.67,0,0,0,188.2,95.5a129.9,129.9,0,0,0-23.67-9c-5.55-1.56-11.18-2.94-16.88-4-3.15-.59-6.5-.94-9.3-3-1.5-1.09-1.33-1.84-.18-3,3.22-3.17,10.7-4.43,15-2.63a25.93,25.93,0,0,0,5.28,1.51c1.78.34,2.83-1.19,2.14-2.93a8.23,8.23,0,0,0-2.07-2.77c-7.58-7.36-14-15.57-16.77-25.95C140.54,39.09,140.35,34.09,143.5,29.77Z"/><path class="cls-16" d="M122.46,432.32c-.67.39-1.27.09-1.93-.14a167.82,167.82,0,0,0-24.9-6.9C85,423.38,76.74,427.65,69,434c-11.53,9.45-17.65,22.2-22,36-.55,1.75-1.29,3.44-1.94,5.16-2.83-.19-4.86-2.06-7.13-3.4-1.82-1.07-1.17-2.92-.74-4.22a125.75,125.75,0,0,1,16.58-33.13A76.24,76.24,0,0,1,72.5,415.78c3-2.08,6-3.16,9.6-1.58,5.74,2.53,11.93,3.68,17.88,5.54,5.12,1.59,10.44,2.53,15.68,3.7.68.16,1.34.16,1.74.85C119,427,121.26,429.34,122.46,432.32Z"/><path class="cls-17" d="M275.42,518.3c-8.56,1.14-17.12,2.32-25.69,3.41a39.37,39.37,0,0,1-5.54.22c-4.7,0-4.87-.06-5-4.91-.19-5.54,0-11.1-.09-16.65,0-1.54.67-1.83,1.94-1.75,2.23.16,4.46.32,6.69.42,8.28.39,16.53-.55,24.79-.67,1.24-.39,2.17-.06,2.47,1.26a50.43,50.43,0,0,1,1.08,17.7A1.83,1.83,0,0,1,275.42,518.3Z"/><path class="cls-18" d="M187.68,437.5c8,4.9,14.76,11.18,21.06,18a3,3,0,0,1,.52,1.62,276.86,276.86,0,0,1,1.46,38.53c-.25,9.95-1,19.87-1.49,29.79-.24,4.37-.73,8.74-1.26,13.09a4.18,4.18,0,0,1-6.25,3.18c-1.53-.75-.83-2.35-.55-3.38,1.35-4.86,1.16-9.87,1.62-14.8,1.16-12.15.49-24.37.68-36.56.15-9.68-.81-19.28-1.37-28.92a9.2,9.2,0,0,0-2.4-5.79c-4.5-4.93-9.25-9.59-15.09-13C184.94,437.57,186.17,437.31,187.68,437.5Z"/><path class="cls-19" d="M26.79,466.25c-8.28-8.09-14.67-17.14-16-29a15.07,15.07,0,0,1,.67-6.05c1.08-3.52,3.74-5.06,7.26-3.92,7.31,2.38,13.08,7.13,18.41,12.5.73.74.49,1.33.09,2.07a136.17,136.17,0,0,0-9.83,23.61A3.65,3.65,0,0,1,26.79,466.25Z"/><path class="cls-18" d="M42.89,485.39c4.42,1.42,8.79,3.05,13.27,4.22,7.69,2,15.42,3.88,23.43,4.2,3.4.13,6.79.47,10.2.63,1.43.06,1.67.45,1.42,2-1.29,7.79-1.22,7.87-8.76,8.45a77.33,77.33,0,0,1-40.79-8.08C40.11,492.76,41.57,489.08,42.89,485.39Z"/><path class="cls-20" d="M274.79,454.86c.21-2,1.25-.9,1.94-.45,3.92,2.55,7.85,5.15,12.21,6.84,9.21,3.55,18.63,5.65,28.36,2.06,2.44-.91,5.05-1.46,7.25-3,1.17-.84,1.78-.31,1.95,1-3.75,7.41-10,11.46-17.93,13.13-12.6,2.65-23.48-2.71-31.36-15.24C276.34,457.77,275.6,456.29,274.79,454.86Z"/><path class="cls-21" d="M273.62,489a186.92,186.92,0,0,1-28.86,1.71c-6.29-.08-6.29-.14-6.24-6.25,0-5.79,0-5.87,6-5.76,7.83.15,15.54-.93,23.26-2a9.06,9.06,0,0,1,3.24,5.39C271.52,484.56,272,487,273.62,489Z"/><path class="cls-22" d="M144.57,583.22c-7.66,3.06-15.2,5.79-23.24,7.23,1.54-4,.48-5.62-3.55-5.86s-7.63,1.25-11.35,2.3a16.92,16.92,0,0,1-10.82-.59c3.66-1.91,7.28-2.39,10.69-3.4s7.16-1.74,10.65-2.87c4.53-1.46,5.46-3,5.44-7.71,0-4.17,0-4.19,4.1-3.45,1.63.3,3.21.91,4.84,1s1.77.81,1.7,2.07c-.06,1.07,0,2.15,0,3.22a6.41,6.41,0,0,0,4.85,6.45,34.91,34.91,0,0,0,3.34,1C142.33,583,143.46,583.05,144.57,583.22Z"/><path class="cls-23" d="M267.69,584.8c-3.68,1.56-6.92.9-10,.06-2.35-.65-4.74-1-7.11-1.48-4.39-.9-6,.79-5.07,5.65l-28.9-5.88c0-1,.9-1,1.42-1.22a8.22,8.22,0,0,0,5.86-8.44c0-2.54.67-3.68,3.42-3.69,1.9,0,3.74-1,5.7-1.16,1.1-.12,1.26.17,1.35,1.17.69,7.28,2.3,8.39,9.57,9.66C251.75,580.82,259.65,582,267.69,584.8Z"/><path class="cls-24" d="M76.32,520.69c-9.61,11-24.32,12.28-33.76,2.93-4.55-4.51-6.38-10.11-6.32-16.41,0-.86-.11-2,1.34-1-.81,5.6,2.71,7.1,7.25,8.23,8,2,16,3.8,24.31,4.31,1.85.11,3.65.51,5.48.69C75.37,519.54,76.22,519.64,76.32,520.69Z"/><path class="cls-25" d="M187.68,437.5l-3.07,1.84c-3-1.65-6.11-2.39-9.37-.68-12.41-1.12-24.64-3.49-37-5.17a11.9,11.9,0,0,1-3-1.11c-1.08-1.48-2.22-2.93-3.2-4.47-.31-.48-.9-1.27-.25-1.82a2.17,2.17,0,0,1,1.66-.17c6.7,1.72,13.61,2.06,20.44,2.82,6.66.74,13.35,1.24,20,1.67a10.68,10.68,0,0,1,6.43,2C182.69,434.26,185.54,435.37,187.68,437.5Z"/><path class="cls-10" d="M135.27,432.38c3.19.4,6.4.75,9.59,1.21,7.63,1.1,15.25,2.21,22.86,3.42,2.53.4,5,1.09,7.52,1.65-7.76,2.59-15.53,5.15-23.27,7.8a31.65,31.65,0,0,0-4.65,1.54,2.06,2.06,0,0,1-2.91-1C141.42,442.1,138.32,437.25,135.27,432.38Z"/><path class="cls-26" d="M224.38,455.15c-1.87-1.69-3.76-3.35-6.24-4.11.52-2.5,2.77-3.67,4.26-5.38,4.84-5.56,9.77-11,15.77-15.39.15-.12.24-.33.4-.43,1.57-.94,3.14-2.62,4.72-2.63,2.33,0,.86,2.75,1.74,4.16,1.5,2.42,2.22,5.3,3.5,7.87.87,1.77.24,2.07-1.33,1.91a5,5,0,0,1-1.7-.31c-3.68-1.79-7.1-.53-10.29,1.14a25.09,25.09,0,0,0-10,9.31C224.41,452.63,224.71,453.88,224.38,455.15Z"/><path class="cls-27" d="M76.32,520.69c-1.73-1.11-3.82-.83-5.61-.92-10.81-.52-21.16-3.11-31.48-6.06-1.14-.33-2.07-.89-2.12-2.06-.07-1.81-.54-3.69.47-5.42a107.92,107.92,0,0,0,42.7,9.27A16.28,16.28,0,0,1,76.32,520.69Z"/><path class="cls-28" d="M261.33,469.1c-3.19-2.94-5.24-6.84-8.36-9.88a40.58,40.58,0,0,0-10.22-7c-2-1-3.79-.22-5.61.23-1,.25-1.81.61-2.1-.79,3.23-2.58,6.87-1.86,10.28-.87,4.64,1.33,9.12,3.14,14,3.22a3.92,3.92,0,0,1,3.3,1.63c2.54,3.91,5,7.88,7.82,12.4C267,467.55,264.35,469.26,261.33,469.1Z"/><path class="cls-29" d="M20.78,489a32.81,32.81,0,0,1-9.92-17.18c-.44-2.1.6-3,2.6-2.6a28.37,28.37,0,0,1,10.37,4.45c1.22.8.45,1.51.28,2.21C23.06,480.22,21.94,484.5,20.78,489Z"/><path class="cls-30" d="M99.1,512c0,4.92-.06,9.84.06,14.76a3.49,3.49,0,0,1-1.76,3.32c-3.4-.93-6.8-1.84-10.19-2.78-1.39-.38-1.69-1.19-.72-2.29a36.45,36.45,0,0,0,5.65-9.25c.37-.79,1-.73,1.65-.94A13.91,13.91,0,0,0,99.1,512Z"/><path class="cls-31" d="M273.62,489a3,3,0,0,1-2.46-2.92c-.28-3.37-2-6.35-3.41-9.36a51.77,51.77,0,0,1,7.24-1.52c2.3-.45,3.83,1.81,4.54,4a23,23,0,0,1,.64,4c.73,5,.23,5.64-4.81,5.87C274.78,489.11,274.2,489.05,273.62,489Z"/><path class="cls-32" d="M275.42,518.3c.12-6,.12-12-1.09-17.91-.25-1.25-.5-2-1.84-2,2.29-.32,4.58-.61,6.86-1,1.06-.16,1.36.32,1.39,1.28q.28,8.44.62,16.89a1.52,1.52,0,0,1-1.39,1.81A19.13,19.13,0,0,1,275.42,518.3Z"/><path class="cls-31" d="M42.89,485.39c.21,3.86-1.62,7.5-1.23,11.38a43.89,43.89,0,0,1-7.27-4.07c-3.09-1.95-3.42-3.6-1.77-8.37,1.25-3.6,1.29-3.67,4.67-1.81C39.13,483.53,41.26,484,42.89,485.39Z"/><path class="cls-33" d="M361,221.43c-2.49,1.7-4.94,2-7.21,2.73s-3.76.05-3.91-2.59c-.06-1.06-.24-2.11-.38-3.16-.11-.82-1.28-1.72-.51-2.34s2,.05,2.89.52C354.8,218.12,357.73,219.7,361,221.43Z"/><path class="cls-34" d="M202.21,435.07c3.51.24,7.06.3,10.54.79a5.66,5.66,0,0,0,5.49-2.23c.53-.6.85-1.89,2.17-1.4-2.64,2.95-5.3,5.88-7.91,8.85-.86,1-1.44,1.48-2.72.28C207.4,439.11,204.75,437.15,202.21,435.07Z"/><path class="cls-5" d="M173,294.45c0,9.79-3.14,18.36-10.26,25.22A29.54,29.54,0,0,1,119,317.21c-10.72-12.86-10.26-33.93,1-46.29a30,30,0,0,1,50,8.47A33.87,33.87,0,0,1,173,294.45Z"/><path class="cls-5" d="M313.23,284.09c.09,8.89-2.31,16.89-8.22,23.73a25.74,25.74,0,0,1-40.9-1.81c-8.65-12.12-9.05-30.4-.75-42.72,10.15-15,29.5-15.35,41.53-2.53C311,267.29,313.21,275.34,313.23,284.09Z"/><path class="cls-35" d="M226.18,366.24a29.37,29.37,0,0,1-10.88-2.12c-4.37-1.61-9-2.26-13.49-3.68-13.54-4.31-18.69-18.82-13.45-30.51,6.79-15.14,17.83-26.05,34.55-29,22.33-4,39.07,10.43,40.9,30.87a12.9,12.9,0,0,1-6.65,13,4.51,4.51,0,0,0-1.88,2.45C250.44,359,239.65,366.22,226.18,366.24Z"/><path class="cls-36" d="M106.74,373.09a27.85,27.85,0,0,1-20.47-6.54c-9.7-8.05-9.52-23.49-.08-31.61,10-8.62,27.16-9.6,37.42-.17,11.89,10.93,9.47,29.27-5.3,36.2A22.4,22.4,0,0,1,106.74,373.09Z"/><path class="cls-5" d="M122.71,243.11l6.85-1.78c8-.81,15.94-1.31,23.87.42,3.75.82,5.55,3.15,4.94,6.27-.52,2.74-3.48,4.27-7,3.55-8-1.65-15.92-.72-23.73,1.12-3.76.89-6.82,3.27-9.7,5.78a5.4,5.4,0,0,1-3.91,1.69,5.05,5.05,0,0,1-4.67-3,4.47,4.47,0,0,1,.87-5.13A35,35,0,0,1,122.71,243.11Z"/><path class="cls-37" d="M297.06,238a10.7,10.7,0,0,1-4.48-1.15c-8.45-3.78-16.07-2.38-23,3.58-2,1.76-4.22,2.77-6.86,1.06-2.86-1.86-3.38-4.85-1.2-7.47,8.59-10.34,25.76-12.79,36.88-5.26.56.39,1.11.8,1.63,1.23,1.64,1.37,2.44,3.14,1.72,5.19S299.13,237.92,297.06,238Z"/><path class="cls-38" d="M158.73,531.93a204.07,204.07,0,0,1-35.75-3,9,9,0,0,1-7.54-7.35c-1-4.75-.52-9.54-.33-14.3.41-10.51,1.07-21,1.62-31.52.17-3.09,2.27-5.44,5.36-5.24,6.21.4,12.4,1.14,18.6,1.72a200.76,200.76,0,0,0,26.86.83c3-.11,6.06,0,9.07-.32,4.27-.38,6.22,2.24,6.19,6.19,0,4.68.18,9.38-.1,14.05-.56,9.46-.25,18.92-.47,28.38-.13,6-3.49,9.49-9.5,10a58.21,58.21,0,0,1-7,.64C163.42,531.87,161.08,531.93,158.73,531.93Z"/><path class="cls-39" d="M160.76,281.67c0,4-2.83,7.09-6.51,7.07a6.63,6.63,0,0,1-6.48-6.81c-.09-4,2.74-7.17,6.4-7.23S160.73,277.64,160.76,281.67Z"/><path class="cls-40" d="M299.5,271c.05,4.09-2.68,7.22-6.31,7.22-3.4,0-6.43-3.22-6.46-6.89s3.21-7.15,6.62-7.12S299.46,267.25,299.5,271Z"/><path class="cls-41" d="M250.28,337.47c-4,.84-7.93,1.66-11.9,2.51-3.48.74-6.46,2.57-9.42,4.41a58.2,58.2,0,0,1-16.09,7.3c-7.44,1.91-15.34-2.12-17.31-9a13.67,13.67,0,0,1,1.11-9.92c4.63-9.53,11.7-16.92,21.4-20.92,13.47-5.55,31.44-1,36.31,15.92a14.8,14.8,0,0,1,.47,5.49C254.06,335.45,252.07,336.36,250.28,337.47Z"/><path class="cls-42" d="M245.06,347.22c-3.88,7.07-14,11.26-20.23,8.66,4.6-2.21,8.53-5.52,13.28-7.26C240.17,347.86,242.45,347.72,245.06,347.22Z"/><path class="cls-43" d="M250.28,337.47l4.57-4.21C254.87,336.34,252.68,337,250.28,337.47Z"/><path class="cls-18" d="M173.61,509.84c-.18,3.13-.46,6.92-.58,10.71-.05,1.81-.76,2.59-2.59,2.73-10,.79-20,0-30-1-4.36-.41-8.68-1.07-13-1.48-2.37-.23-3.22-1.13-3.1-3.47.26-5.44.4-10.89.51-16.34,0-1.55.4-1.93,2.06-1.66A164.79,164.79,0,0,0,159.1,502c4.1-.13,8.14-.72,12.19-1.22,2.13-.26,2.46.51,2.35,2.31C173.52,505.07,173.61,507.13,173.61,509.84Z"/><path class="cls-18" d="M157.66,493.23c-11.08-.23-20.68-.69-30.14-2.75-1.64-.36-2-.89-1.91-2.43.23-2.52.35-5.06.38-7.59,0-1.51.48-1.58,1.92-1.4,6,.75,11.92,1.65,18,1.9,8.46.36,16.91.89,25.37.11,1.83-.16,2.39.7,2.31,2.42-.11,2.23-.16,4.48-.06,6.72.09,1.82-.74,2.45-2.41,2.44C166.13,492.62,161.19,493.58,157.66,493.23Z"/><path class="cls-44" d="M423.05,416.91c-1.47,3.43-4.08,4.8-7.79,4.78-14.74-.08-29.49-.25-44.22.1a8.35,8.35,0,0,1-8.6-8.43c.16-7.51,0-15,0-22.55,0-9.27,0-18.55,0-27.82,0-5.18,2.54-7.62,7.69-7.63,5.66,0,11.33-.12,17,.06,2.43.07,3.3-.35,3.24-3.08-.21-9.66-.09-19.33-.08-29,0-4.78,2.57-7.36,7.35-7.38,5.85,0,11.71,0,17.57,0,5.18,0,6.81,1.13,8.4,6.11a9.45,9.45,0,0,0-.19,3.18q0,42.64,0,85.28A36.87,36.87,0,0,1,423.05,416.91Z"/><path class="cls-45" d="M452.88,383.74c-5.7,0-11.16-.11-16.61,0-5.06.13-6.21-3.93-4.21-7.65,2.84-5.28,6.13-10.31,9.2-15.47q12.35-20.68,24.63-41.41c1.18-2,2.67-3.08,5-2.63,2.64.5,3.63,2.53,3.81,4.87.35,4.4-.9,8.67-1.45,13-.83,6.44-2,12.83-3.09,19.23-.31,1.8.77,1.73,1.88,1.58,5.36-.75,10.7.09,16.06.07,4.08,0,5.82,2.6,4.29,6.43-2.15,5.44-5.82,10-8.88,14.94-8.3,13.33-17.17,26.3-26.06,39.25-.49.71-1.06,1.38-1.57,2.09a4.53,4.53,0,0,1-5.88,1.77,4.78,4.78,0,0,1-3.07-5.39c.75-4.88,1.66-9.73,2.61-14.57C450.57,394.57,451.73,389.28,452.88,383.74Z"/><path class="cls-46" d="M423.72,339.3q0,36.84,0,73.68c0,1.34.25,2.74-.68,3.93-.89-1.79.18-3.54.17-5.33q-.15-43.06-.06-86.15"/><path class="cls-2" d="M400.9,325.66h12.85a2.49,2.49,0,0,1,.3,1.69c0,23.56.05,47.12,0,70.68-.54,3.39-.15,6.8-.25,10.2s-.19,3.44-3.54,3.42c-2.42,0-4.83.19-7.27.06-2-.1-2.74-1-2.68-2.9.07-2.14,0-4.28,0-6.43q0-36.37,0-72.76C400.32,328.28,399.93,326.86,400.9,325.66Z"/><path class="cls-47" d="M372.88,365.37c4.09,0,8.18,0,12.26-.14,1.32,0,1.66.41,1.66,1.65q0,21.92,0,43.83c0,1.4-.62,1.57-1.76,1.55-4.09-.07-8.18-.08-12.27-.11a3,3,0,0,1-.3-2q0-21.3,0-42.61C372.49,366.83,372.2,366,372.88,365.37Z"/><path class="cls-48" d="M460.08,394.82c1-5,2.06-10.06,3.05-15.1.79-4-.52-5.56-4.69-5.58H443.73l18-29.79c-.59,5.41-1.05,10.63-1.49,15.84-.29,3.4,1.14,5,4.54,4.77,4.49-.29,9-.28,13.45-.2.47,0,.94.05,1.93.1-6.64,10.27-13.11,20.24-19.57,30.22Z"/></g></g></svg>