<svg xmlns="http://www.w3.org/2000/svg" viewBox="0 0 541.68 594.73"><defs><style>.cls-1{fill:#4e3821;}.cls-2{fill:#120907;}.cls-3{fill:#ea7e20;}.cls-4{fill:#f5a926;}.cls-5{fill:#f8c652;}.cls-6{fill:#ea7a1f;}.cls-7{fill:#f7b02b;}.cls-8{fill:#f5a724;}.cls-9{fill:none;}.cls-10{fill:#473321;}.cls-11{fill:#fdc83d;}.cls-12{fill:#4080a8;}.cls-13{fill:#e95828;}.cls-14{fill:#f6ac2c;}.cls-15{fill:#4081a7;}.cls-16{fill:#4081a8;}.cls-17{fill:#32678c;}.cls-18{fill:#fdc83e;}.cls-19{fill:#c84219;}.cls-20{fill:#26577a;}.cls-21{fill:#33688d;}.cls-22{fill:#f08b59;}.cls-23{fill:#32678b;}.cls-24{fill:#4181a8;}.cls-25{fill:#eb6f23;}.cls-26{fill:#f6ad2d;}.cls-27{fill:#fcd85f;}.cls-28{fill:#33678c;}.cls-29{fill:#f08d5b;}.cls-30{fill:#fcc93f;}.cls-31{fill:#f6ad2e;}.cls-32{fill:#32678a;}.cls-33{fill:#35698d;}.cls-34{fill:#33688c;}.cls-35{fill:#f0d37b;}.cls-36{fill:#dbbd73;}.cls-37{fill:#cdb37d;}.cls-38{fill:#336b93;}.cls-39{fill:#c39e93;}.cls-40{fill:#473322;}.cls-41{fill:#483422;}.cls-42{fill:#f07e3f;}.cls-43{fill:#f07e40;}.cls-44{fill:#483423;}.cls-45{fill:#493422;}.cls-46{fill:#483322;}.cls-47{fill:#fefefd;}.cls-48{fill:#ee7133;}.cls-49{fill:#ee7233;}.cls-50{fill:#fde697;}</style></defs><g id="Capa_2" data-name="Capa 2"><g id="Capa_1-2" data-name="Capa 1"><path class="cls-1" d="M500.14,207.45a6.39,6.39,0,0,1,5.87-3.57c7.51-.18,15-.33,22.54-.28,5.34,0,7.7,2.71,7.71,8.41q0,45.83,0,91.64c0,2,0,3.91,0,5.86.06,5.75-2.3,8.2-8,8.28-35.62.49-71.24.35-106.86.37-4.49,0-7-2.52-7-7.06q0-17,0-34c0-5.27,2.46-8,7.73-8.16,6.73-.18,13.47-.14,20.2,0,4.19.06,6.88,2.75,7,7.3.24,6.92.15,13.86.19,20.79,0,2.73.2,5.48-.05,8.19-.21,2.46.59,2.94,3,3,3,.13,3.59-.8,3.57-3.67-.15-16-.06-32-.05-48,0-1.66,0-3.32.08-5,.2-4.51,2.32-7,6.8-7.13,7.71-.24,15.42-.26,23.13-.13,4,.07,6.34,2.91,6.34,7.22q0,28.26,0,56.51c2,.8,4,.25,6,.38a1.09,1.09,0,0,0,1.28-1.22c0-.78,0-1.56,0-2.34q0-46,0-91.94A24.91,24.91,0,0,1,500.14,207.45Z"/><path class="cls-1" d="M434.78,229.55c-7.48,7.9-14.76,15.65-22.11,23.33-4.51,4.71-7,4.66-11.69,0-2.83-2.83-5.67-5.65-8.49-8.49-3.67-3.7-3.75-6.73-.1-10.62q13.69-14.64,27.48-29.2c3.28-3.48,6.51-7,9.85-10.42,2.85-2.91,6.27-3,9.24-.16,4.74,4.51,9.47,9,14,13.71,1.39,1.43,2,1,3-.16q19.11-21.39,38.26-42.72c3.4-3.79,3.34-3.82-.45-7.3-1.65-1.52-3.3-3.05-4.85-4.67-3.56-3.71-2.38-9.07,2.52-10.34,14.05-3.62,28.07-7.32,42-11.23,4.85-1.35,8.63,1.9,8.08,7-.91,8.3-2.12,16.58-3.25,24.86-.82,6-1.61,11.94-2.63,17.87-.94,5.49-6.45,7.42-10.8,3.87a52.56,52.56,0,0,1-5.35-5c-1.17-1.26-1.86-1.16-3,.06-6.17,6.91-12.4,13.76-18.6,20.65q-17.13,19-34.23,38.08c-1.63,1.81-3.17,3.72-4.88,5.45-2.88,2.9-6.3,2.91-9.27.05C444.69,239.33,439.78,234.46,434.78,229.55Z"/><path class="cls-1" d="M401.84,388.32a60.18,60.18,0,0,1,120.36-.58c.36,33.32-26.79,61-59.82,61C429.73,448.82,401.52,422.64,401.84,388.32Z"/><path class="cls-2" d="M500.14,207.45c.7,1.82-.24,3.57-.23,5.38q.13,45.61,0,91.22c0,5.34.8,4.67-4.91,4.7-.91,0-2,.37-2.68-.66,7,.36,7,.36,7-6.64.08-29.64-.56-59.28-.11-88.92C499.31,210.81,499,209,500.14,207.45Z"/><path class="cls-3" d="M526.46,260.64c0,14.73-.05,29.46,0,44.19,0,2.24-.45,3.09-2.84,3a117,117,0,0,0-12,.23c-2.33.16-2.94-.52-2.93-2.85.08-18.82,0-37.65,0-56.48,0-10.92.05-21.85,0-32.77,0-2,.37-2.62,2.58-2.47a106.89,106.89,0,0,0,12.27-.07c2.18-.12,2.78.5,2.77,2.73-.11,14.83-.06,29.65-.06,44.48Z"/><path class="cls-4" d="M439.67,293.69c0,4.1-.1,8.19.05,12.28.07,1.86-.53,2.31-2.3,2.24-3.7-.13-7.4-.11-11.1,0-1.67.05-2.45-.25-2.4-2.19.21-8.38.31-16.76.37-25.13,0-1.5.45-2,2-2,3.8.1,7.61.09,11.4,0,1.53,0,2,.41,2,2-.09,4.29,0,8.58,0,12.86Z"/><path class="cls-5" d="M482.54,281.07c0,8.1-.06,16.2,0,24.29,0,2.06-.34,3-2.68,2.83-3.89-.22-7.8-.12-11.7,0-1.65,0-2.39-.23-2.42-2.18-.24-16.58,0-33.16.09-49.74,0-1.74.63-2.1,2.21-2.06,4,.09,8,.13,12-.05,2.12-.09,2.56.67,2.53,2.65-.11,8.09,0,16.19,0,24.28Z"/><path class="cls-6" d="M501.62,150.55c6.06-1.6,11.77-3.12,17.49-4.6,3.29-.86,6.6-1.63,9.88-2.49,1.12-.29,1.68-.14,1.49,1.18-1.31,9.12-2.6,18.25-4,28-2-1.83-3.45-3.29-5-4.67-3.37-3-5.84-2.9-8.79.41Q486.29,197.91,460,227.5c-1.87,2.09-3.74,5.6-5.77,5.72s-4.21-3.21-6.25-5.13c-3.12-2.93-6.12-6-9.26-8.91-2.92-2.72-5.63-2.69-8.4.19-7.22,7.5-14.35,15.08-21.56,22.59-.71.74-1.37,2.41-2.7,1.48a10.3,10.3,0,0,1-3.93-4.19c-.28-.68.65-1.13,1.1-1.61,10.07-10.69,20.19-21.34,30.22-32.08,1.14-1.23,1.7-1.06,2.75-.05,4.59,4.46,9.25,8.84,13.88,13.27,3.41,3.26,6.59,3.3,9.81-.24q18-19.83,36-39.77c4.16-4.61,8.36-9.19,12.38-13.93,2.92-3.44,2.65-5.64-.62-8.74C505.73,154.37,503.88,152.66,501.62,150.55Z"/><path class="cls-7" d="M461.87,338.07c26.37,0,49.9,20.23,50.11,49.51.21,30.84-23.52,50.88-49.51,51.06-28.11.2-50.81-22.52-50.72-50C411.83,360.43,434,338.06,461.87,338.07Z"/><path class="cls-8" d="M466.59,281.07c0-7.89.05-15.79,0-23.68,0-1.88.5-2.62,2.47-2.54,3.5.13,7,.08,10.52,0,1.56,0,2.3.36,2.29,2.1q-.06,24.27,0,48.55c0,1.75-.76,2.12-2.3,2.09-3.51-.07-7-.11-10.53,0-2,.07-2.47-.71-2.45-2.56.08-8,0-16,0-24Z"/><path class="cls-1" d="M446,398.83c2.57-.39,4.18.71,4.8,3.75,1.09,5.26,7.26,7,12,6.74,5.11-.28,8.48-3,8.88-6.55.39-3.34-2.26-6.38-7.17-8.09-4.49-1.57-9.14-2.71-13.38-5-6.63-3.52-10.3-8.85-9.72-16.54s4.79-12.8,11.84-15.56c1.75-.68,2.86-1.15,3-3.44a5.64,5.64,0,0,1,5.9-5,5.49,5.49,0,0,1,5,5.52c0,1.84.75,2.41,2.3,3,5.09,2,9.15,5.13,10.85,10.66a8.34,8.34,0,0,1,.25,4.33c-.48,2.14-1.36,4.18-4,4.35-3.26.21-5.57-1.23-6.33-3.82-1.85-6.27-10.12-8.63-14.93-4.26-3.35,3.05-3.05,7.47.79,9.86s8.48,3.35,12.76,4.94c5.56,2.07,10.4,5.08,12.9,10.72,4.43,9.94-.35,20.25-11.14,24.12-2,.72-3.56,1.13-3.52,3.94,0,2.63-2.67,4.56-5.2,4.57a5.81,5.81,0,0,1-5.67-5.28c-.12-1.65-.76-2-2.14-2.46-6.76-2.17-12.06-5.9-13.47-13.47a9.27,9.27,0,0,1-.19-1.74C440.37,399.88,441.42,398.83,446,398.83Z"/><path class="cls-9" d="M378.79,200.45A2.64,2.64,0,0,0,380,201a36.53,36.53,0,0,0-10.14-5.39,3.88,3.88,0,0,0,.84.39A31,31,0,0,1,378.79,200.45Z"/><path class="cls-10" d="M.18,413.22a32.89,32.89,0,0,0,5.47,14.54c9.53,14.37,22.56,24.79,37.56,32.92,1.48.8,2,1.42,1.31,3.19-2.14,5.59-3.22,11.23.95,16.49.75.94.05,1.65-.21,2.42a56,56,0,0,0-2.7,12.16C41,512.12,52.1,523.08,67.87,523.23a32.09,32.09,0,0,0,16.34-4.46c1.32-.76,1.78-.77,2.37.82a37.48,37.48,0,0,0,4.1,7.33c8.09,12.24,19.89,19.71,33,25.35,3,1.3,4.46,2.57,4.46,6.08,0,5.26.28,5.14-4.67,6.52-6.31,1.77-12.91,2.65-18.77,5.82-3.25,1.75-5.32,4.42-4.88,8.22.45,4,2,7.43,6.4,8.83,4.21,1.35,8.51.74,12.77.9a2.61,2.61,0,0,1,2.59,1.28,10.29,10.29,0,0,0,9.39,4.81c5.53-.1,10.6-2.11,15.63-4.12,6.63-2.65,13.43-5.07,19.19-9.45,3.49-2.65,4-6.67,1.75-10.35a10.93,10.93,0,0,0-4.66-4.25,47.07,47.07,0,0,0-4.45-2.06,1.6,1.6,0,0,1-1.14-2.23c.28-1.13,1-.69,1.82-.51a47.51,47.51,0,0,0,5.18.75c15,1.57,30,1.35,45,1.25,7,0,13.93-1.21,20.88-2,.91-.11,2-1,2.25.67.17,1,.23,2-1.21,2.54a31.35,31.35,0,0,0-5.57,3.1c-2.78,1.85-4.4,4.46-4,7.89s2.89,4.87,5.74,5.93a291.13,291.13,0,0,0,38.39,11c3.44.76,7.93,1.24,10.11-1.86,2.81-4,6.43-4.55,10.51-5a7.11,7.11,0,0,0,1.62-.57c3.83-1.38,5.62-4.3,6-8.17.32-3.67-1.64-6-4.77-7.58q-2.22-1.08-4.5-2c-7-2.87-14.58-3.68-21.88-5.49-1.28-.31-3.25-.13-2.71-2.42s-1.73-5.1,2.19-6.52c8.42-3.06,16.44-7.16,23.12-13.13,4.76-4.26,9.67-7.81,15.71-10,2.72-1,4.34-3.41,4.91-6.43a33.51,33.51,0,0,0,.53-5.82,334.28,334.28,0,0,0-1.22-36.22c-.15-1.62-.07-2.64,2.05-2.9a45.67,45.67,0,0,0,30.41-16.47c6.13-7.32,10.58-15.56,11.49-25.27,1.21-13-1.54-25.4-6.71-37.31-1.67-3.87-1.67-3.82,1.9-6,11.5-7.12,21.9-15.46,29.67-26.76,10.18-14.82,13.75-31,10.35-48.69a88.14,88.14,0,0,0-5.53-17h0q-2.4-5.3-4.79-10.58c.07-9.54-.18-19.69-.88-30.37-.41-6.39-2-13.33-3-19.53a3.61,3.61,0,0,1,2.89-4.14c3.75-.71,6.67-1.55,12.77-5.69a13.72,13.72,0,0,0,5.79-8.47c1.49-6.79-3.52-12.82-6.41-16.29A32.63,32.63,0,0,0,380,201a2.64,2.64,0,0,1-1.19-.58,31,31,0,0,0-8.11-4.42,3.88,3.88,0,0,1-.84-.39h0a2.81,2.81,0,0,1-1.13-2.36c-.39-3.07-.64-6.18-1.31-9.19Q356.74,136,318.1,105.42a4.77,4.77,0,0,1-2.19-4.3A128.11,128.11,0,0,0,313,68.68c-5.47-23.43-17-43-36.85-57.12C266.58,4.73,256.24-.4,243.92,0A18.67,18.67,0,0,0,225.6,17.85a36,36,0,0,0,1.31,11.78c-3.36-2.49-6.22-4.83-9.29-6.84-12.28-8-25.13-14.3-40.47-12.19-11,1.51-19.34,7.13-22.07,18.07a35.31,35.31,0,0,0,.65,18.41c1.83,6.5,5.13,12.23,9.1,17.8-4.49.88-8.72,1.78-12.38,4.31a12.47,12.47,0,0,0-5.26,13.7c.48,1.69.05,2.3-1.52,2.69a134,134,0,0,0-14.61,4.64c-34.28,12.87-60.3,35.37-78.19,67.23C38,183.87,33,212.39,35.3,242.39c.58,7.37,2.63,10.38,8,11.54,2.1.45,1.94,1.15,1.49,2.87-1.89,7.2-3.64,14.43-4.87,21.79C38.24,288.71,37.51,299,34.85,309c-3.06,11.55-3,23.27,1.11,34.69,1.53,4.19,3.43,8.25,5.31,12.75-1.86-1-3.33-1.91-4.85-2.69-4.89-2.5-9.92-4.6-15.57-3.67-12.35,2-17,13.72-15.8,24,.8,7.09,3.31,13.64,6.49,20-8.79,4-12.41,10-11.36,19.18"/><path class="cls-11" d="M366.72,360.39c-5.66,8.73-13.32,15.43-21.81,21.27-2.25,1.54-4.58,3-6.73,4.64-1.37,1.07-2,.73-2.86-.59-4.47-6.85-8.83-13.79-14.58-19.68-4.5-4.61-9.69-7.7-16.47-7.48a15.89,15.89,0,0,0-15.43,15.55c0,1.06.31,1.94-1.26,2.35-10.22,2.68-12.72,11.94-10.08,20.86a31.32,31.32,0,0,0,3.19,7.17c.79,1.32.41,1.94-1,2.1-2,.23-3.89,1.31-6,1.19a3.06,3.06,0,0,0-2.28-.18c-15.87,2.56-31.82,4.52-47.93,3.93-12.45-.45-25-.35-37.27-2.9-17.28-3.6-34.76-6.42-51.53-12.1a236.78,236.78,0,0,1-28.05-11.74A125,125,0,0,1,83,369.9c-10.38-8.4-19-18.23-24-30.79-2-4.86-2.43-10-3.29-15.11-1.34-7.93-.24-15.74,1-23.56,1.24-8.09,2.13-16.23,3.62-24.29.78-4.22,2-8.37,2.52-12.62.52-3.9,2.86-5.78,6.27-6.82,2-.6,3.91-1.23,5.87-1.85,6.69-2.13,13.37-4.28,20-6.52s13.61-2.54,20.47-2.88c7.68-.39,15.4-.24,23.08-.91.86-.07,1.77-.27,2.41.59a1.37,1.37,0,0,1-.39,1c-2.78,3.6-2.12,6.09,2.12,7.82,4,1.65,8.24,1.33,12.37.67,7.32-1.18,14.2-3.43,19.27-9.36a7.37,7.37,0,0,0,2-3.18c.7-3.27-.71-5-4.06-5-.68,0-1.37.18-2-.29a4.14,4.14,0,0,1,7-.43c1.83,2.94,3.86,2.48,6.42,1.86,6.63-1.6,13.24-3.41,19.92-4.75,13.38-2.69,26.77-5.37,40.36-6.88a380.07,380.07,0,0,1,49.34-2.39A232.63,232.63,0,0,1,339,229.34c5.24,1.16,10.43,2.53,15.62,3.87,3.53.9,4,.41,3.23-3.23-.58-2.87-1.33-5.69-2-8.53-.19-.78-1.18-1.88.5-2.32,1.37,0,1.12,1.1,1.28,1.84a140.19,140.19,0,0,1,2.69,14.1,22.61,22.61,0,0,0,.58,6.31,256,256,0,0,1,3.31,45.84,63.49,63.49,0,0,0,4.25,24.19c4.18,11.09,5.93,22.54,2.66,34.35a44.78,44.78,0,0,0-1.83,8.84C369.14,356.84,367.21,358.3,366.72,360.39Z"/><path class="cls-12" d="M169.53,99c11.06,2.47,22.1,5.05,32.77,8.94a149.73,149.73,0,0,1,16.95,7.38c3.1,1.59,3.64,4.93,5,7.59a147.54,147.54,0,0,1,12.2,36.22c1,4.75,2.08,9.47,3.17,14.2.39,1.66.06,2.49-1.89,2.61-9.63.61-19.05,2.46-28.47,4.48a300.28,300.28,0,0,0-40.1,11.82,434.08,434.08,0,0,0-44.64,19.33c-9.73,4.85-19.44,9.74-29.17,14.59a5.1,5.1,0,0,1-1.43.26c-1-.92-1.17-2.23-1.37-3.46a109,109,0,0,1-.69-26.83,117.76,117.76,0,0,1,6.44-30.26,105.31,105.31,0,0,1,21.1-35.52C129,119.73,140.05,111,153.09,105A90.73,90.73,0,0,1,169.53,99Z"/><path class="cls-13" d="M304.21,115.82c-.54,5-2.83,9.36-4.65,13.91a74.74,74.74,0,0,1-15.74,23.73,20.75,20.75,0,0,1-2.48,2c-4-3.68-6.22-8.68-9.2-13.1a236.46,236.46,0,0,0-20.07-26.18c-11.36-12.64-24.8-22.72-38.52-32.55-9.26-6.63-18.5-13.29-26.69-21.32-4.87-4.78-10.07-9.21-14.44-14.47-3.48-4.18-5.42-9.19-7.59-13.79-.51,1.54,1.26,3.86-1.15,5.29-.18-5-.62-10,3.16-14.24,2.62-2.93,6.2-3.65,9.59-4.9C194.51,23.4,209.59,32.56,223.5,44c3.61,3,7.14,6,12.06,6.71,1.48.21,2.85.45,4.23-.23,3.21-3.43,1.46-7.24.51-10.76-1.28-4.75-3.46-9.26-4.63-14-1.12-4.57-2-9.41,1.75-13.5a8.36,8.36,0,0,1,4.7-2.62,38.29,38.29,0,0,1,17.76,7.7c11.23,8.6,21.27,18.29,28.5,30.62,6.56,11.18,11.76,22.89,13.78,35.8.76,4.89,1.85,9.77,1.66,14.79-.11,3.13,1.26,6.07,1.22,9.24A31.3,31.3,0,0,1,304.21,115.82Z"/><path class="cls-14" d="M356.35,219.13q1.26,5.76,2.53,11.54a15.14,15.14,0,0,1,.37,2c.14,1.61,0,2.53-2.21,2-8.9-2.26-17.77-4.74-26.85-6.2-6.3-1-12.66-1.64-19-2.35-12.45-1.41-24.9-1.17-37.33-.88-9.27.22-18.56,1-27.81,2.1-10.4,1.2-20.69,2.93-31,4.78-11.83,2.13-23.45,5.15-35.11,8-1.62.39-2-.3-2.33-1.69a3,3,0,0,0-3-2.66c-1.35.09-3.26-1.23-4.05,1.1.38,1.68-1,2.46-1.91,3.32a29,29,0,0,1-14.35,6.76,28.37,28.37,0,0,1-12.13-.62c-.56-.13-1.15-.25-1.36-.92-4.81.28-9.63.92-14.42.74-8.3-.3-16.5.72-24.73,1.37a37.34,37.34,0,0,0-9.26,2.47c-7.68,2.73-15.39,5.38-23.27,7.44-5.08,1.34-5.47,5.4-6.26,9.35-1,5-2,10.05-2.82,15.11q-1.69,10.74-3,21.55c-.5,4.13-1.35,8.22-1.24,12.44.39,15.75,4.71,29.87,15.58,41.82a114.8,114.8,0,0,0,28.33,22.55c9.32,5.33,19.16,9.43,29.07,13.34a193.74,193.74,0,0,0,34.72,9.6c11.49,2.21,22.84,5.17,34.51,6.43a80.42,80.42,0,0,0,10.16.61c7.7-.15,15.35.88,23.06.67A308.16,308.16,0,0,0,262.74,408c3.17-.41,6.36-.56,9.5-1.27.49-.11,2.07-.81,1.51,1l-1.25.45c-2.43-.11-4.67.73-6.95,1.39a2,2,0,0,1-1.8.45c-3.19-.15-6.26.73-9.36,1.25-.87.14-2-.09-2.72.74-6.35-.27-10.15,3.85-13.92,8.05-1,1.06-2.08,2-3.13,3-3.35,1.73-7.05.94-10.58,1.31s-7,0-10.53.11a10.71,10.71,0,0,1-7.34-2.2c-1.74-1.34-3.47-2.84-5.66-3.48-6.89-6.49-15.77-6.37-24.32-7.34-10.26-1.17-20.35-3.32-30.43-5.45-18.3-3.88-36.17-9.14-53.24-16.89-12.17-5.53-23.41-12.55-32.37-22.54C48,353.07,41.86,337.14,43,318.76a36.26,36.26,0,0,1,1.63-8.57c2.73-8.63,2.78-17.66,4.14-26.48a224.53,224.53,0,0,1,7-30.94,2.89,2.89,0,0,1,2.29-2c12.51-4,24.69-8.83,36.77-13.94a17.3,17.3,0,0,1,10.81-.7c-.17.7.38.3.55.3q13,0,25.94,0c.44,0,1,.24,1.26-.35,5.31-.54,10.62-1.13,15.93-1.61A286.72,286.72,0,0,0,183,229c15.57-3.31,30.74-8.29,46.3-11.66,14.94-3.24,29.94-6,45.29-6.32,5.39-.59,10.81-.18,16.22-.23A63.34,63.34,0,0,1,301,211c10.92,0,21.69,1.46,32.43,3.25A184,184,0,0,1,356.35,219.13Z"/><path class="cls-12" d="M124.88,458.23c0-3.26,1.37-6.23,1.94-9.36.48-2.63,1.35-5.37-.6-7.81-2.15-2.69-5.2-2.32-6.23.95-1.31,4.15-2.13,8.45-3.23,12.66-1.22,4.69-2.53,9.35-3.8,14-.36,1.34-1.25,1.72-2.6,1.81a67.52,67.52,0,0,1-14.58-.73,98.93,98.93,0,0,1-35.56-12c-1.89-1.09-2.09-1.7-1.27-3.91a147.12,147.12,0,0,1,15.19-29.22c3.7-5.63,7.6-11.15,12.69-15.67,6.4,2.61,13.11,4.24,19.71,6.19,10.7,3.15,21.66,5,32.6,7a8.72,8.72,0,0,1,6.34,4.14c4.35,6.94,9.78,13.11,14.38,19.88a23.67,23.67,0,0,0,4.37,4.29c2.07,1.78,4.31,1.15,6.54.08s4.26-3.05,6.87-3.78a23.77,23.77,0,0,1,11.55-.47,70.24,70.24,0,0,1,14.31,4.44c.17-.52-.46-1.81,1.1-1.91,1,20.55.83,41.12.47,61.68a191,191,0,0,1-1,20.42c-.23,1.82-1,2.21-2.61,2.21-14.42,0-28.79-.75-43.16-2A262.38,262.38,0,0,1,122.21,525c-1.86-.44-3.67-1.15-5.5-1.74-1.15-.7-1-1.76-.82-2.85,3-16.2,4.22-32.66,6.92-48.91C123.55,467.08,124.48,462.69,124.88,458.23Z"/><path class="cls-15" d="M382.73,218.32c-5.07-2-9.53-3.76-14-5.41a182.05,182.05,0,0,0-23.17-6.57c-7-1.54-14.08-2.74-21.21-3.71a261.4,261.4,0,0,0-31.75-2.25A282.57,282.57,0,0,0,209,211.88a361.17,361.17,0,0,1-45.32,10.71c-15.38,2.45-30.86,4.23-46.4,4.06.86-1.49.94-1.59,5.45-3.75,16.47-7.86,33.06-15.46,50.07-22a269.6,269.6,0,0,1,32.17-10,244.82,244.82,0,0,1,27.38-5.39,276.69,276.69,0,0,1,48.16-1.76c9.37.41,18.65,1.42,27.9,2.73a164.63,164.63,0,0,1,22.17,4.82A204.36,204.36,0,0,1,357,200.42c7.59,3.34,15.43,6.31,21.53,12.31A17.92,17.92,0,0,1,382.73,218.32Z"/><path class="cls-11" d="M81.61,399.37c-14.19,15-24.15,32.4-32,51.13-.74,1.8-1.31,2.32-3.28,1.15-10.61-6.31-20.66-13.29-28.57-22.94-3.67-4.47-6.8-9.26-8-15a10.64,10.64,0,0,1,.33-6c1.31-3.5,4-4.91,7.6-4.1a25.07,25.07,0,0,1,8.53,3.66c1.89,1.25,4.07,2.83,5.88.32s-.11-4.22-2-5.86a45.86,45.86,0,0,1-15.64-28.25,15.86,15.86,0,0,1,.54-7.22c1.6-5.21,6.47-7.66,11.85-5.87,7.62,2.54,14,7.28,20.12,12.21,7.45,6,14.63,12.29,22,18.4C72.83,394.09,77.17,396.54,81.61,399.37Z"/><path class="cls-16" d="M237.56,127.27c7.59,5.19,13.69,11.91,19.44,19,3.18,3.91,5.78,8.23,8.67,12.33,7.08,10.05,15.13,10.47,24.28,2.56,8.85-7.65,14.59-17.61,18.91-28.4a97.38,97.38,0,0,0,4.88-15.79c.38-1.76.88-2.61,2.74-1,14.06,12.53,25.53,27,33.4,44.18a131,131,0,0,1,8,24.26,53.21,53.21,0,0,1,.76,5.68c-3.3-.21-6-2-8.78-3a202.75,202.75,0,0,0-37.6-9.88,244,244,0,0,0-30.82-2.83c-9.67-.31-19.3-.12-28.94.33-2.22.1-3.14-.19-3.59-2.93a218.54,218.54,0,0,0-6-25.71c-1-3.53-2.16-7-3.25-10.54-.36-2.29-.55-4.62-2.15-6.51A1.13,1.13,0,0,1,237.56,127.27Z"/><path class="cls-17" d="M169.53,99c-3.43,2.25-7.42,3.23-11.17,4.69A101.09,101.09,0,0,0,137.75,115a105,105,0,0,0-32.9,37.89,109.5,109.5,0,0,0-10.57,30.94,115.64,115.64,0,0,0-1.7,33.32c.31,3.1,1,6.12,1.3,9.2-3.88,2.78-8.54,3.82-12.83,5.67a62.5,62.5,0,0,1-10,3.6c-1.61-.12-1.3-1.5-1.47-2.42-4.13-22-3.21-43.63,4.6-64.81,3.56-9.63,7.27-19.17,13-27.71,5.87-8.71,11.6-17.54,19-25.1,1.85-1.88,4.24-3.12,5.81-5.28a135.61,135.61,0,0,1,32.55-14.41c2.2-.66,4.48-1.09,6.68-1.85a6.71,6.71,0,0,1,6,.68C161,97.09,165.51,97.43,169.53,99Z"/><path class="cls-18" d="M287.83,418.41a17.17,17.17,0,0,1,.22-2.89c1-3.95,2.22-4.37,5.37-1.8,1.47,1.2,2.9,1.64,4.33,0s.12-2.66-.91-3.68c-4.52-4.5-8.7-9.22-10.44-15.58a10,10,0,0,1-.36-5.19c.89-3.57,3.61-4.9,6.8-3.1s5.94,3.7,8.86,5.63c1.41.93,2.72,1.05,4-.15,1.44-1.39.56-2.72-.33-3.9-2.22-3-4.76-5.69-6.21-9.15-1.2-2.87-2-5.79.42-8.47,1.74-1.94,5.84-2.34,9.08-1a18.09,18.09,0,0,1,7.09,5.51c10.75,13.05,19.48,27.23,23.38,43.9,2,8.36,2.08,16.78-.92,25a18.08,18.08,0,0,1-1.06,2.05c-1.21-.94-2.41-.45-3.59.05a63,63,0,0,1-9.72,3.16c-5.1,1.21-9.45-.37-13.91-2.75-11.14-5.91-17.2-15.71-21.55-27A1.7,1.7,0,0,0,287.83,418.41Z"/><path class="cls-16" d="M275,426.6c-.58,3.93-2,7.63-3,11.46-.47,1.92-1.23,1.92-2.77.88a112.85,112.85,0,0,0-15.35-9.12c-2.18-1-4.21-1.11-5.45.74s-.75,4.08,1.18,5.67a5,5,0,0,1,.73.9c-5.69,2.3-9.88,6.47-13.67,11.09-.94,1.14-2.4,2.49-1,4.11,1.29,1.46,3,1.11,4.58.3,2.6-1.35,5.22-2.68,7.76-4.12a16.11,16.11,0,0,1,15.16-.69,50.46,50.46,0,0,0,8.75,3.31c3.32.76,5.44-.15,7-3.15a15.94,15.94,0,0,0,1.68-6.17c0-2,1.57-3.5,1.72-5.58,2.46,4.7,5.72,8.82,8.31,13.3,1.55,2.67,1.35,6.39,1.78,9.65.2,1.54-1.18,1.29-2.08,1.28-11-.12-22,1.73-33,1.33a67.63,67.63,0,0,0-9.64.37,7.31,7.31,0,0,0-6.85,7.75c.32,14.15,1.36,28.26,1.31,42.42,0,4.07,3.9,7.73,8.63,7.86a178.17,178.17,0,0,0,23.09-.66C281,518.8,288,517.7,295,516.59c2.28-.36,2.23.76,2.06,2.28-.4,3.69-3.65,4.12-6.18,4.87A204,204,0,0,1,248.5,531c-6.12.46-12.22,1.09-18.37,1.22-1.88,0-2.07-.5-1.95-2.1,1.75-23.09,1.62-46.21,1.45-69.34,0-4.58-.21-9.17-.46-13.75a7.11,7.11,0,0,1,1.87-5.54c5.47-6.16,11.21-12.06,17-17.89,2-2,4.45-1.61,6.87-1.6,1.66,2.9,4.61,3,7.37,3.14,3.57.21,7.15.07,10.73.05C273.93,425.18,275.42,424.67,275,426.6Z"/><path class="cls-19" d="M163.68,39.3c1.24-2.44-.07-5.14,1-8.35,1.27,4.75,3.39,8.45,5.41,12.19,3.49,6.46,9.15,11.09,14.35,16a198.9,198.9,0,0,0,18.14,15.49c5.6,4.17,11.38,8.09,16.95,12.29,7.59,5.73,15.17,11.44,22.23,17.86a187,187,0,0,1,31.43,38c2.69,4.23,5.43,8.43,8.15,12.64-4,2.1-4.89,1.87-7.59-2.35-5.89-9.19-12.47-17.82-20.59-25.16-11-10-23-18.59-36.69-24.7a165.22,165.22,0,0,0-27.68-9.46c-7.65-1.89-15.3-3.8-22.91-5.86a31.58,31.58,0,0,1-6.67-2.69,5.58,5.58,0,0,1-3.05-5.78c.31-2.63,2.59-3.56,4.61-4.28a33.48,33.48,0,0,1,14.07-1.42c1.94.16,3.9.07,5.84.21a2.4,2.4,0,0,0,2.59-1.47c.44-1.14.65-2.44-.53-3.48-1.66-1.46-3.14-3.15-4.89-4.47-7.68-5.82-11.66-13.88-14.13-22.89A9,9,0,0,1,163.68,39.3Z"/><path class="cls-20" d="M112.07,110.33c-.63,3.36-3.92,4.4-5.92,6.52a139.2,139.2,0,0,0-14.27,18.29c-3.29,4.89-6.71,9.77-9.31,15.14a194.89,194.89,0,0,0-7.86,19,112,112,0,0,0-5.07,18.8A125.92,125.92,0,0,0,68.57,220a141.46,141.46,0,0,0,1.88,14.09c.11.58.08,1.17.62,1.57-3.89,2.17-8.28,3-12.39,4.56-3.49,1.33-7.1,2.31-10.66,3.42-1.64.51-2.88.22-3.25-1.73a29.31,29.31,0,0,1-.68-4.31,164.29,164.29,0,0,1,1.31-29.42,138.06,138.06,0,0,1,4.09-18.23,129.12,129.12,0,0,1,11-26.82,145.36,145.36,0,0,1,13.11-19.86A135.42,135.42,0,0,1,96,121.09,90.91,90.91,0,0,1,112.07,110.33Z"/><path class="cls-14" d="M179.7,553.15c-21.84-.79-43.21-3.69-62.88-14.12a61,61,0,0,1-14.66-11.34,183.35,183.35,0,0,0,21.75,6.92,237.87,237.87,0,0,0,33.31,5.73,442.44,442.44,0,0,0,58.12,2.06c19.87-.53,39.69-1.76,59.39-5.63-6.65,7.58-43,16.92-63.37,16.39-6,.56-12,.2-18,.21C188.8,553.38,184.24,553.74,179.7,553.15Z"/><path class="cls-16" d="M191.72,438.9a3.88,3.88,0,0,1,.39-.42c1.79-1.48,3.84-2.91,2.48-5.71-1.07-2.18-3.49-2.82-6.56-1.41-6.09,2.82-12.4,5.21-18.23,8.58-1.14.66-1.78.91-2.61-.29-3.31-4.83-6.66-9.64-9.48-14.78.07-1.32,1-.85,1.71-.82,8.08.37,16.12-.84,24.19-.77.58,0,1.09-.44,1.7-.31,3.34-.57,5.65,1.45,8.15,3.13,8.48,5.7,16.86,11.54,24.89,17.88a5.33,5.33,0,0,1,2.18,4.4c.91,17.94.55,35.89.25,53.84-.15,9.25-.94,18.5-1,27.76,0,4.1-3.22,2.49-5.1,2.89-2.29.48-2-1.47-1.92-2.89,1.58-25,1.19-50.12,1-75.18,0-.78,0-1.57,0-2.35-.32-6.39-2-7.61-8-5.93a61.21,61.21,0,0,0-12-5.93C192.92,440.29,191.69,440.3,191.72,438.9Z"/><path class="cls-12" d="M250.24,498.82c0-3.51.09-7,0-10.53-.06-1.84.61-2.13,2.23-1.79,6.22,1.31,12.6,1.25,18.88,2,6.05.77,11.62-1.82,17.43-2.8,1-.18,2-.53,3.12-.64,3.79-.4,4-.34,4.07,3.44.07,5.57.59,11.1,1.12,16.63.14,1.49-.18,2.08-1.8,2.55-5.93,1.73-12.06,2.37-18.1,3-7.93.76-15.89,1.85-23.91,1.49-1.85-.08-2.86-.28-2.74-2.53.2-3.59.06-7.21.06-10.82Z"/><path class="cls-21" d="M191.72,438.9c3.66,1.63,7.35,3.21,11,4.91,1.25.59,2.72,1.07,3.09,2.71a3.7,3.7,0,0,1-1.18,2.34c-.45,2.46-1.68,2.56-3.81,1.64a53.49,53.49,0,0,0-14.58-3.89c-4.75-.58-9.1.85-13.2,3.36-6.27,3.83-8.88,3.3-13.29-2.56-3.44-4.57-6.46-9.47-10.06-13.9-2.15-2.65-3.89-5.51-5.82-8.28a5.59,5.59,0,0,0-3.93-2.14A323.83,323.83,0,0,1,91,411.46a8.89,8.89,0,0,1-4.2-2.47,58.62,58.62,0,0,1,7.35-7.43,1.91,1.91,0,0,1,2.31-.48,251.88,251.88,0,0,0,30.73,10.41c4.23,1.17,8.36,2.72,12.68,3.65a5.32,5.32,0,0,1,3.25,2.66c5.22,8.39,10.11,17,15.83,25.07,1.55,2.2,3.19,4.34,4.92,6.4,1.52,1.8,4.22,1.88,6.94.25A197.78,197.78,0,0,1,191.72,438.9Z"/><path class="cls-22" d="M304.21,115.82c-.23-16.33-1.46-32.56-7.11-48a102,102,0,0,0-18.73-32.38,115.55,115.55,0,0,0-23.64-20.67c-3.87-2.55-8.52-3.15-12.61-5.15,8.88-1.38,16.45,2.26,23.72,6.51C285.29,27.45,297.05,44.61,303,66.05a100,100,0,0,1,4,32.89C306.67,104.64,306.46,110.41,304.21,115.82Z"/><path class="cls-23" d="M124.88,458.23c1.34,2.63.16,5.32-.24,7.82-1.17,7.44-2.24,14.88-3.31,22.33-1.57,10.89-2.36,21.9-4.75,32.66a2.86,2.86,0,0,0,.13,2.21c-7.58-1.92-14.54-5.3-21.42-8.93-1.88-1-2.15-1.82-.56-3.46,3.67-3.8,6.36-8.35,9-12.88a2,2,0,0,1,1.72-1.17c6.27-.72,9.57-4.58,11.27-10.39,2.56-8.77,5.19-17.52,7.17-26.45A7.17,7.17,0,0,1,124.88,458.23Z"/><path class="cls-24" d="M96.26,488.22c-10.76-.23-20.87-3.21-30.79-7a41.33,41.33,0,0,1-10.21-5.42c-2.81-2.12-3.16-7.47-.79-10.1.91-1,1.55-.27,2.26.14a93.75,93.75,0,0,0,23.83,9.66c8.67,2.21,17.45,4,26.49,3.65,2.37-.1,3.13.28,2.17,2.87-1.29,3.49-2.85,6.06-7.15,5.75A37,37,0,0,0,96.26,488.22Z"/><path class="cls-11" d="M90.12,501.59c-6.3,9.36-19.45,14.13-29.23,10.59a12.2,12.2,0,0,1-8.62-11.62,28,28,0,0,1,1.32-11.24,97.09,97.09,0,0,0,20.71,8.51c4.51,1.25,9.2,1.65,13.72,2.86C88.76,500.89,89.58,500.9,90.12,501.59Z"/><path class="cls-25" d="M130.19,585.77c1.41-1.65,3.3-2.67,4.51-4.43.85-1.24,1.24-2.51.37-3.77a3.06,3.06,0,0,0-3.56-1.27c-5.17,1.33-10.3,2.86-15.71,2.89-1.75,0-3.5.16-5.25.21-.45,0-1.09.1-1.13-.57a1.08,1.08,0,0,1,.85-1.05c2.49-.78,5-1.69,7.49-2.32,5.63-1.4,11.11-3.29,16.6-5.16,2.49-.85,3.81-2.49,3.55-5.28-.16-1.64.05-3.32-.09-5-.16-2,.39-2.68,2.44-2a26.7,26.7,0,0,0,5.9,1.53c2.85.28,3.53,1.59,3.41,4.32-.26,6.31.24,6.84,6.27,9a5.54,5.54,0,0,1,3,1.86C149.76,579.77,140.53,584.15,130.19,585.77Z"/><path class="cls-25" d="M285.36,577.23c-5.07,1.44-9-.44-13-1.12a31.93,31.93,0,0,0-4.89-.78c-1.44,0-2.54.41-3,1.74a2.88,2.88,0,0,0,1.13,3.59,15.34,15.34,0,0,1,3.24,2.94c-12.7-2-24.95-5.44-37.63-9.59,1.82-.91,3.12-1.52,4.37-2.2,3.6-1.94,6.13-4.55,5.36-9-.36-2.1.53-3.08,2.54-3.33a25.43,25.43,0,0,0,2.56-.56c4.63-1.11,4.63-1.12,4.83,3.77.18,4.49,1.59,6,5.85,6.93,8.41,1.93,16.79,4,25.17,6.11A27.42,27.42,0,0,1,285.36,577.23Z"/><path class="cls-24" d="M256.59,470.43c11.77-.39,23.54-.72,35.26-1.89,1.36-.14,1.9-.1,2,1.41.17,2,1.27,4.18.81,6-.6,2.28-3.35,1-5.08,1.5-8.43,2.41-17,3.89-25.83,2.29-3.72-.68-7.55-.34-11.29-1.26-1.75-.43-2.55-1-2.51-2.71a6.44,6.44,0,0,0-.1-.87c-.39-4.48-.39-4.48,4.09-4.45Z"/><path class="cls-26" d="M287.83,418.41c.58-.25.88-.35,1.19.52a52.59,52.59,0,0,0,12.49,20.29c4.77,4.69,10.52,8.58,17.32,9.34,4.44.5,8.93-1.24,13.13-3.05,1.16-.5,2.37-.87,3.54-1.34,1.52-.6,1.55.42,1.61,1.44-2.94,6.52-8.45,9.09-15.14,9.65-8.39.7-15.21-2.72-20.85-8.62-6.85-7.15-12-15.28-13.42-25.34A5.46,5.46,0,0,1,287.83,418.41Z"/><path class="cls-27" d="M366.72,360.39c-.1-.16-.34-.41-.3-.47,1.95-2.78,1.78-6.11,2.57-9.2a126.47,126.47,0,0,0,2.56-12.41c1.18-7.54-.35-14.73-2.48-22-1.15-3.88-2.78-7.55-3.9-11.41a34.94,34.94,0,0,1-1.27-8.31c-.32-6.89.5-13.78,0-20.63-.63-8.2-.93-16.43-2-24.61-.65-4.89-1.34-9.78-2-14.68a1.69,1.69,0,0,1,.44-1.62c1.46,8.08,2.38,16.24,3.24,24.41a252.45,252.45,0,0,1,.91,31.47c-.06,3.08,1.2,5.66,2.61,8.22,5.94,10.82,9.64,22.21,9.23,34.74C376,343.82,372,352.31,366.72,360.39Z"/><path class="cls-28" d="M280.66,441.81c1,3.27-.34,6-2.24,8.37-1.44,1.79-3.45,2.82-6,1.89-2.18-.82-4.63-1.13-6.59-2.29-7.75-4.62-14.86-2.87-21.86,1.65a27.92,27.92,0,0,1-4.32,2.37,4.15,4.15,0,0,1-4.85-.95c-1.43-1.51-.41-2.79.54-4.12A44,44,0,0,1,246,438.47a5.89,5.89,0,0,1,4.38-1.34c6.15,3.12,11.39,7.67,17.39,11a17.14,17.14,0,0,0,3.31,1.73c3.22.95,5.13,0,6.95-3C279,445.23,279.16,443.17,280.66,441.81Z"/><path class="cls-29" d="M239.79,50.5c-3.71,2.13-7.33.81-10.29-1.17-5.48-3.65-10.49-8-15.82-11.9a98.16,98.16,0,0,0-34.61-16.19,5,5,0,0,1-2.64-1.08c12.4-2.68,22.85,2.3,33,8.47,8.61,5.26,15.8,12.28,23.12,19.11C234.59,49.68,236.78,51.12,239.79,50.5Z"/><path class="cls-30" d="M200.51,418.83c1.61-.61,2.45.77,3.39,1.51A16.32,16.32,0,0,0,215,423.75c6.56-.14,13.11-.45,19.66-.66l-10.18,10.83c-.7.74-1.25,1.25-2.42.4C214.9,429.09,207.69,424,200.51,418.83Z"/><path class="cls-31" d="M90.12,501.59a113,113,0,0,1-19.28-4,91.89,91.89,0,0,1-15.06-6.23,4.79,4.79,0,0,1-2.19-2.07c.41-.9-.34-3,1.95-2a124,124,0,0,0,36.64,10.72A7.4,7.4,0,0,1,90.12,501.59Z"/><path class="cls-32" d="M275,426.6c-.19-1-.89-.63-1.55-.65-4.84-.18-9.7.59-14.53-.45-1.27-.27-2.32-1-3.55-1.24-2-.43-1-1.38-.42-2.26,6.86-1.46,13.74-2.82,20.56-4.45,2-.47,2.16.41,1.73,1.64C276.36,421.63,276.31,424.31,275,426.6Z"/><path class="cls-33" d="M185.31,423a3.11,3.11,0,0,1-2.72,1.29c-6.94-.12-13.85.51-20.76,1-1.39.09-2.71-.73-4.12-.36-1.92-1.69-2.33-4.42-5-6.44,4.12-.2,7.31,1,10.56,1.44,5.66.76,11.3,1.73,17,2C182,422,183.78,421.87,185.31,423Z"/><path class="cls-34" d="M319.27,464.48c-4,3.26-8.67,4.29-13.47,4.86-.69.08-1.56,0-1.52-.9.15-3-2-5.74-1-9.16C308.29,461.92,313.31,464.52,319.27,464.48Z"/><path class="cls-35" d="M133.48,236.13c.33,1.18-.65.57-.93.57-9.54,0-19.08,0-28.69,0,.51-.82,1.3-.32,1.87-.57Z"/><path class="cls-36" d="M179.7,553.15h31.66c-1.16.71-2.47.43-3.71.44q-12.4,0-24.82,0A5.53,5.53,0,0,1,179.7,553.15Z"/><path class="cls-37" d="M301,211l-26.34,0A134.78,134.78,0,0,1,301,211Z"/><path class="cls-38" d="M374.21,225.87a9.87,9.87,0,0,1-3.19,1.54,2.3,2.3,0,0,1-2.75-2.91c.22-.78.79-.75,1.35-.53C371.11,224.56,372.59,225.2,374.21,225.87Z"/><path class="cls-39" d="M237.56,127.27c1.21,2.63,3.15,5.09,2,8.29-1.47-3.31-2.94-6.63-4.47-10.06C236.38,125.72,236.83,126.68,237.56,127.27Z"/><path class="cls-11" d="M251.67,412.05c-.28-.14-.87-.5-.69-.53,4-.7,8-1.29,12-1.87.23,0,.5.27.75.41Z"/><path class="cls-11" d="M265.55,409.61l-.29-.07c-.09,0-.17-.08-.26-.12,2.47-.57,4.79-2.09,7.5-1.2Z"/><path class="cls-10" d="M190,292.69c-.27,9.13-5.14,18.94-15.41,25.5-14.86,9.47-33.29,4.46-41.8-11-9.26-16.87-3-38.13,13.45-45.74C167.23,251.75,190,266.48,190,292.69Z"/><path class="cls-40" d="M333.67,290.21c-.09,11.23-4.4,20.49-13.51,27.11-11.91,8.65-26.61,7-36.71-3.63-11.3-11.95-12.45-31.5-2.58-44,13.8-17.41,40.22-14.18,49.6,6.08A31.87,31.87,0,0,1,333.67,290.21Z"/><path class="cls-41" d="M262.57,337.1a62.3,62.3,0,0,1,3,5.75c2.69,6.71.29,13.37-5.92,17.09-5.27,3.15-11.2,3.87-17.09,4.38-9.42.8-18.84,1.05-28.23-.91-13.53-2.83-22.4-14-18.63-29,5.44-21.6,20-35.32,41.55-40.57,10.7-2.59,20.11,1.87,27.94,9.25A38.74,38.74,0,0,1,277,325.4c1.28,7.68-2.9,12.44-10.68,12.15C265.12,337.5,263.9,337.27,262.57,337.1Z"/><path class="cls-42" d="M126.55,321c9.64.41,18.23,5.3,22.46,15.93,2.59,6.49,1.16,13.22-3.3,18.63a27.26,27.26,0,0,1-40.43,1.62,19.65,19.65,0,0,1-1-26.6C109.61,324.08,116.56,321.13,126.55,321Z"/><path class="cls-43" d="M313.55,341.89c0-9.1,6.79-17.92,15.7-20.87,9.86-3.27,18.68-1.56,26.17,5.44,11.49,10.74,8.37,28.5-6.86,35.44-10.4,4.74-20,2.85-28.42-4.52A18.41,18.41,0,0,1,313.55,341.89Z"/><path class="cls-44" d="M140.81,245.32c3.94.07,7.65,1.66,11.78,1,7.16-1.17,13.41-3.63,18-9.52,2-1.17,4.14-1.08,5.54.59a5.42,5.42,0,0,1,.16,6.77,21.1,21.1,0,0,1-8.27,7.22c-7.1,3.43-14.58,5.3-22.55,4.15a15.64,15.64,0,0,1-4.42-1.37c-1.78-.85-3.3-2-3.31-4.37A4.45,4.45,0,0,1,140.81,245.32Z"/><path class="cls-45" d="M316.68,255.12c-9.36-.35-17.64-2.31-24.08-9.06-1.76-1.85-2.6-3.89-1.32-6.34,1.43-2.73,4.69-3.37,6.81-1.15,6.1,6.37,13.89,7.25,22.05,7.09.87,0,1.74-.21,2.62-.25a4.31,4.31,0,0,1,4.57,3.34c.7,2.26-.51,3.8-2.31,4.84C322.31,255.18,319.25,255.15,316.68,255.12Z"/><path class="cls-46" d="M132.55,487.19c.46-6.84-.6-14.27.57-21.64.57-3.63,2.65-5.32,6.22-4.77,12.94,2,26,2.2,39,2.54,3.12.09,6.25-.23,9.35-.06,5,.28,6.7,2.06,6.81,7.16.13,5.56.19,11.13-.06,16.68-.34,7.12-.35,14.24-.44,21.36a26.72,26.72,0,0,1-.82,7.23c-1,3.43-3.51,5.66-7.07,5.74-11.3.26-22.6.47-33.88-.94-4.63-.58-9.26-1-13.74-2.32-3.51-1-5-3.13-5.37-6.75C132.27,503.54,132.79,495.63,132.55,487.19Z"/><path class="cls-47" d="M164.22,277.88c0-4.28,2.86-7.12,7.07-7.1A7.35,7.35,0,0,1,178.8,278a7.68,7.68,0,0,1-7.57,7.31A7.29,7.29,0,0,1,164.22,277.88Z"/><path class="cls-47" d="M304.77,277.87c0-4.15,2.75-7.05,6.77-7.1,4.31,0,7.63,3,7.63,7.06a7.6,7.6,0,0,1-7.29,7.27A7,7,0,0,1,304.77,277.87Z"/><path class="cls-48" d="M203.46,340a35.22,35.22,0,0,1,8.09-19.28c6.42-7.93,13.91-14.26,23.88-17.39s20.9,2.13,26.36,9.35c3,4,5.56,8.2,6.4,13.23.19,1.13.63,2.45-.49,3.25-.93.66-1.81-.28-2.66-.68-5.49-2.57-11.1-4.67-17.24-5-11-.54-20.43,3.76-29.22,9.88-4.7,3.28-8.29,7.58-11.55,12.21-.38.54-.51,1.43-1.34,1.35s-.91-.89-1.1-1.54C204.06,343.59,203.29,341.88,203.46,340Z"/><path class="cls-49" d="M231.24,356.26a59.31,59.31,0,0,1-17.89-2.21c-2.17-.67-1.89-1.26-.63-2.65q14.4-15.87,35-10.29a15,15,0,0,1,8.35,5.48c2.16,2.91,1.77,4.58-1.42,6.26-3.88,2-8.21,2.25-12.43,2.66C238.3,355.88,234.34,356.59,231.24,356.26Z"/><path class="cls-16" d="M185.94,486.91c-.25,8,.34,16-.43,24-.2,2-1.09,2.46-3,2.48a244.17,244.17,0,0,1-39.06-2.4c-1.81-.27-2.2-1.08-2.19-2.7,0-6.73,0-13.47-.06-20.2,0-1.77.66-2,2.07-1.62a137.47,137.47,0,0,0,19.39,3.87,26.94,26.94,0,0,0,8.13-.56C175.75,489,180.66,487.93,185.94,486.91Z"/><path class="cls-24" d="M167.41,481.89c-9.76-.18-17.4-2.16-25.1-3.73a1.21,1.21,0,0,1-1.1-1.41c0-.29,0-.58,0-.87-.09-6.18-.06-6.52,6-5.89a301.13,301.13,0,0,0,30.62,1.55c2.23,0,4.47,0,6.71-.05,1.42,0,2,.57,1.79,1.93a1.46,1.46,0,0,0,0,.29c0,5.3-.14,5.65-6.86,6.61C174.89,481,170.32,482.29,167.41,481.89Z"/><path class="cls-50" d="M390.33,367q-.06,23.38-.11,46.79c-1.1-.39-.55-1.33-.55-2"/></g></g></svg>