<svg xmlns="http://www.w3.org/2000/svg" viewBox="0 0 521.52 599.9"><defs><style>.cls-1{fill:#55371e;}.cls-2{fill:#6e2517;}.cls-3{fill:#732517;}.cls-4{fill:#792416;}.cls-5{fill:#42201f;}.cls-6{fill:#361011;}.cls-7{fill:#370f11;}.cls-8{fill:#330f11;}.cls-9{fill:#260d0c;}.cls-10{fill:#240e0d;}.cls-11{fill:#fbc838;}.cls-12{fill:#477b9f;}.cls-13{fill:#e45423;}.cls-14{fill:#dc462a;}.cls-15{fill:#477c9f;}.cls-16{fill:#f3a91d;}.cls-17{fill:#325b79;}.cls-18{fill:#fbc738;}.cls-19{fill:#487c9f;}.cls-20{fill:#f2a71b;}.cls-21{fill:#c73c18;}.cls-22{fill:#335e7d;}.cls-23{fill:#f8bd2b;}.cls-24{fill:#f8bd2d;}.cls-25{fill:#e45822;}.cls-26{fill:#e45623;}.cls-27{fill:#f2a81d;}.cls-28{fill:#346383;}.cls-29{fill:#346181;}.cls-30{fill:#336282;}.cls-31{fill:#f1a61c;}.cls-32{fill:#346485;}.cls-33{fill:#336180;}.cls-34{fill:#356381;}.cls-35{fill:#f1a81f;}.cls-36{fill:#fac637;}.cls-37{fill:#335f7d;}.cls-38{fill:#35617f;}.cls-39{fill:#376483;}.cls-40{fill:#487d9f;}.cls-41{fill:#e0ba66;}.cls-42{fill:#db452a;}.cls-43{fill:#db462a;}.cls-44{fill:#54371d;}.cls-45{fill:#54361d;}.cls-46{fill:#ed7228;}.cls-47{fill:#54371e;}.cls-48{fill:#772517;}.cls-49{fill:#742517;}.cls-50{fill:#56381e;}.cls-51{fill:#782416;}.cls-52{fill:#fefdfd;}.cls-53{fill:#fefdfc;}.cls-54{fill:#ed7128;}.cls-55{fill:#e45926;}</style></defs><g id="Capa_2" data-name="Capa 2"><g id="Capa_1-2" data-name="Capa 1"><path class="cls-1" d="M112.57,599.9c-3.15-3.19-6.87-3.86-11.22-3.1a19,19,0,0,1-9.22-.94c-3.57-1.19-6-3.5-6.53-7.41-.5-4.2,1-7.42,4.9-9.36a79,79,0,0,1,21.79-6.7c1.86-.32,2.48-.75,2.61-2.81.2-3.26-.79-4.81-4-6-12.63-4.68-24.38-11-34.21-20.43-2.11-2-3.67-5.22-6.11-6.07-2.24-.78-5.23,1.21-8,1.56-14.2,1.79-29.8-7-35.26-20.14A27.75,27.75,0,0,1,25,505.45c.27-3.16-1-4.7-3.36-6.32A52.33,52.33,0,0,1,4.37,480.06,26.73,26.73,0,0,1,1.9,463.65a7.66,7.66,0,0,1,5.24-6.12c1.84-.67,1.72-1.42.89-2.89-4.76-8.36-7.15-17.23-6.28-27,.69-7.88,5.43-14.53,12.36-16.14,4.36-1,8.27.57,11.91,2.69a83.93,83.93,0,0,1,8.9,6.05c2.85,2.2,5.46,4.71,8.38,7.26a102.1,102.1,0,0,1,22.8-23.73c-5.71-2.54-11.06-5-16.21-7.8C34.17,387.31,20.36,376.45,11,360.85A76.37,76.37,0,0,1,.17,315.72,50.71,50.71,0,0,1,4,298.21c2.53-5.72,3.24-11.7,3.62-17.8a206.46,206.46,0,0,1,4-28.22c-6.58-.75-8.07-2.5-9.22-11.24A164.07,164.07,0,0,1,1.9,203.3a137.68,137.68,0,0,1,22.34-63.12c21.63-32.71,51.29-54.95,88.6-67,.74-.23,1.48-.44,2.22-.64,3.23-.86,5.62-1.68,6.37-6.09,1.16-6.79,7-9.2,13.31-10.19.48-.08,1-.08,1.68-.13a57,57,0,0,1-6.6-18c-2.95-17.14,4.66-31.67,21-35.59,9.11-2.17,18-.44,26.52,2.84,10,3.82,18.54,9.94,27,16.8,0-10.36,3-18.65,13.59-22.23h10c30.43,13.91,46.37,39.07,54.54,70.26a67.54,67.54,0,0,1,1.87,10.58,5.48,5.48,0,0,0,2.76,4.36c18.38,12.28,33.69,27.46,44.18,47.15,7.56,14.21,12.66,29.24,14.19,45.27.36,3.74,1.68,5.3,4.86,6.27a23.21,23.21,0,0,1,10.42,7.18c1.36,1.53,2.32,2.27,3.23-.34a12.82,12.82,0,0,1,1.73-2.67c1.56.78.5,1.75.13,2.59-1.11,2.5-.84,3.93,1.31,5.48,1.09.79,2.32,1.35,2.43,3,0,.34,1.43.27,1.41,1.29a17.9,17.9,0,0,0,1.47,3.46c2.8,5.65,2,10.82-2.08,15.54-.76.88-1.5,1.77-2.34,2.57-2.73,3.52-6.47,5.22-10.75,5.93-1.42.58-2.82,1.24-4.27,1.71-4,1.29-4,1.27-3.11,5.16a284.38,284.38,0,0,1,6.93,50.12c.11,2.2,1.43,3.77,2.51,5.45a58.84,58.84,0,0,1,9.07,37.75c-1.18,13.53-6.47,25.56-14.42,36.5A105.25,105.25,0,0,1,327,390.11c-1.76,1.18-1.93,1.93-.66,3.7,6.65,9.28,13.41,18.54,17.84,29.17,5.48,13.13,7.05,26.47.36,39.62-6.42,12.61-16.63,19.77-31.22,19.56-4.84-.07-9.3-1.72-13.65-3.68-.77-.35-1.53-.72-2.48-1.16.27,4.59.49,8.95.79,13.3a202.68,202.68,0,0,1-1.47,39.4c-.62,4.94-3.85,8.28-8.66,9.54a15.07,15.07,0,0,0-7.74,5.1c-8.35,9.42-18.84,15.73-30.52,20.21-1.43.55-3.79.26-3.45,3.25.32,2.8,2.24,2.67,4.08,3C258,572.77,266,574,273.47,577a23.87,23.87,0,0,1,5.09,2.7,8.24,8.24,0,0,1,.12,13.44c-3.57,2.71-7.72,2.86-11.94,2.68-2-.09-3.68,0-5.17,1.75-1.36,1.62-3.53,1.94-5.63,1.79a241.35,241.35,0,0,1-24.84-3.21c-6.29-1.11-12.63-2-18.8-3.76a29.74,29.74,0,0,1-3.55-1.22c-5.39-2.28-6.58-7.11-2.91-11.71,1.88-2.36,4.44-3.67,7.13-4.82.73-.31,1.94-.57,1.43-1.75s-1.34-.2-2-.08c-8.09,1.41-16.27,1.53-24.46,1.52a326.64,326.64,0,0,1-37.65-2c-1-.12-1.89-.32-2.84-.48-.87,2.24-.31,3.53,2.19,4.21a13.28,13.28,0,0,1,6.48,4.21c3.34,3.78,2.88,7.51-1.37,10.24-3.3,2.11-7,3.08-10.77,4.1a200,200,0,0,1-24.49,4.81,5.15,5.15,0,0,0-1,.42Z"/><path class="cls-2" d="M430.83,280c1.15-2.31,3.31-2.89,5.55-2.91q13.71-.14,27.43,0c2.16,0,4.48.28,5.59,2.73a15.51,15.51,0,0,1,.82,5.42q-.06,29.82,0,59.63c0,1-.52,2.14.46,3,2.88-.22,5.83.73,8.65-.49a8.15,8.15,0,0,0,.24-3.47c0-31.78,0-63.57.05-95.35C481,245,482.33,244,486.15,244c9.47,0,18.94.11,28.4-.06a6.24,6.24,0,0,1,6.69,6.61c-.14,33.58-.08,67.16-.08,100.74,0,5-2.09,7.2-7.08,7.2q-62.39.06-124.75,0a10.05,10.05,0,0,1-6.74-2.31c-1.15-1.13-1.16-2.57-1.16-4q0-20.76,0-41.52c0-4.78,2.4-7.22,7.1-7.23,8.77,0,17.54,0,26.31,0,1.48,0,2.9.08,4,1.18A8.55,8.55,0,0,1,421,311c-.1,11.39-.06,22.78,0,34.17,0,.89-.49,1.94.46,2.7l8.43,0c1-.87.45-2,.45-3q.06-29.68,0-59.37A26.75,26.75,0,0,1,430.83,280Z"/><path class="cls-3" d="M357.33,227.94c2.41-1.14,4.81-2.29,7.22-3.41a8.23,8.23,0,0,0,3-3c41.66.57,83.31.14,125,.26a11.11,11.11,0,0,0,3.19-.38c3.92-1.12,5.16-3.9,3.08-7.37-8.82-14.73-17.4-29.6-26.27-44.3q-12.62-20.92-24.85-42.09c-4.33-7.52-8.83-15-13.43-22.31-2.2-3.52-4.17-3.56-6.24,0-5.43,9.26-11,18.44-16.44,27.68Q399.34,153.74,387,174.34c-4.7,7.88-9.3,15.81-14.11,23.62-.63,1-1,2.39-2.61,2.41-1.1-2.3-3.57-3.27-5.07-5.22-1.37-1.77-1.36-3.17,0-4.84.47-.55,1.33-1.3.46-2.25q20.79-35.4,41.59-70.8C411,111,415,104.9,418.38,98.5a14.36,14.36,0,0,1,25.23-.34q17.77,30,35.65,59.84,14.49,24.33,29,48.67c3.65,6.13,5,12.44.9,18.84-3.41,5.35-8.57,7.58-14.86,7.58q-57.24,0-114.49,0c-4.47,0-8.94.31-13.43-.3A14.27,14.27,0,0,1,357.33,227.94Z"/><path class="cls-4" d="M381.42,468.7c-2.32-2.16-2.83-5-2.83-7.95q-.06-34.83,0-69.66c0-7,4.57-11.46,11.51-11.47q58,0,115.9,0c7.29,0,11.94,4.78,11.94,12.08q0,34.24,0,68.48c0,2.87-.4,5.59-2.35,7.86-3.06,2.95-6.72,3.9-10.93,3.89q-56.46-.1-112.92,0A16,16,0,0,1,381.42,468.7Z"/><path class="cls-5" d="M382.59,356.23c4.48,2.69,9.44,1.68,14.22,1.68q58.57.09,117.15,0c5,0,6.9-1.84,6.9-6.83q0-50.24,0-100.46c0-4.23-2-6.31-6.23-6.33-9.47,0-18.94,0-28.41,0a6.18,6.18,0,0,0-6.34,4.12,1.17,1.17,0,0,1-.08-1.37,4.8,4.8,0,0,1,4.84-3.39c10.44,0,20.89-.08,31.32,0,3.44,0,5.56,2.42,5.56,5.83q0,51.68,0,103.35c0,3.09-1.65,4.84-4.42,5.67a13,13,0,0,1-3.45.5q-62.07,0-124.13,0C386.9,359,384.22,358.83,382.59,356.23Z"/><path class="cls-6" d="M381.42,468.7c6.27,4.09,13.32,2.86,20.14,2.87q51.62.09,103.22,0c3.82,0,7.35-.65,10.08-3.61a.46.46,0,0,1,.75,0c-2.24,3.33-5.57,4.21-9.31,4.21H440.78q-24.87,0-49.73,0C387.38,472.28,383.9,471.87,381.42,468.7Z"/><path class="cls-7" d="M479.8,247c0,.46.06.91.08,1.37q0,47.68,0,95.36c0,1.22.46,2.55-.52,3.65-.08-1.95-.21-3.89-.21-5.83q0-44.89,0-89.79C479.15,250.2,478.8,248.52,479.8,247Z"/><path class="cls-8" d="M430.83,280c.73,1.82-.25,3.56-.24,5.37.11,19.78.08,39.56,0,59.34,0,1.07.6,2.38-.73,3.18q0-31.28.06-62.55C430,283.57,429.56,281.65,430.83,280Z"/><path class="cls-9" d="M470.68,347.91c-1.36-.79-.72-2.11-.73-3.17,0-17.56,0-35.12,0-52.68,0-4.08.26-8.17-.51-12.21,1.67,1.54,1.21,3.6,1.22,5.48Q470.68,316.62,470.68,347.91Z"/><path class="cls-10" d="M421.47,347.9c-1.28-.69-.73-1.9-.73-2.87q-.06-15,0-30c0-3.59.34-7.21-1.83-10.4,2.46,1.32,2.52,3.65,2.52,6Q421.45,329.26,421.47,347.9Z"/><path class="cls-11" d="M333.89,216.19c4.78,14.74,7.77,29.88,10,45.17q1.86,12.72,2.43,25.59a12.83,12.83,0,0,0,2.51,6.74c13.15,19.08,11.92,38.56,1.12,58-7.11,12.79-17.88,22.2-29.93,30.26-1.71,1.14-2.19.11-2.92-.89A125.85,125.85,0,0,0,302,363.68c-3.76-3.56-7.74-6.84-12.6-8.85-10.66-4.4-20.06,1.77-20.43,13.37-.19,5.59,1.36,10.76,3.56,15.79.71,1.6,1.5,3.15,2.34,4.89-8.6,1.86-11.9,8.06-13.15,15.92-14,2.27-28.13,4.15-42.35,5.06-10.74.69-21.46.55-32.18.38-16.11-.25-32.06-2.41-48-4.9a262.62,262.62,0,0,1-49.76-13c-13.92-5.09-27.09-11.63-38.33-21.51-12.51-11-22.24-23.79-25.59-40.58-2-10.18-.95-20.2,1.65-30.13,1.74-6.65,1.88-13.5,2.56-20.28a152,152,0,0,1,4.06-24.8,6.66,6.66,0,0,1,4.37-4.67c11.11-4.57,22.42-8.55,33.68-12.71,5.19-1.92,10.23-.62,15.32-.38a223.57,223.57,0,0,0,24.56-.05,320.44,320.44,0,0,0,33.41-3.69c2.68-.45,5.08-1,7-3.16,1.09-1.26,2.51-2.64,4.48-1.16-5.17,6.18-10.76,11.67-19.3,12.85-3.47.48-6.88,1.36-10.43,1.24a4.75,4.75,0,0,0-2.81.64c-1.69,1.11-3.19,2.44-2.72,4.72s2.08,3.42,4.39,3.58A44.48,44.48,0,0,0,138.47,251a48.43,48.43,0,0,0,18.66-8c3.71-2.74,6.23-5.94,4.41-10.92a1.35,1.35,0,0,1,.4-1.59c3.35-1.06,6.8-1.74,10.21-2.54,15.77-3.69,31.25-8.52,46.93-12.53a234.18,234.18,0,0,1,41.54-6.61c21.16-1.52,41.85,1,62.29,6.26a36.68,36.68,0,0,1,6.12,2C330.89,217.9,332.58,218.25,333.89,216.19Z"/><path class="cls-12" d="M134.86,85.35a114.35,114.35,0,0,1,24.66,6.37,135.33,135.33,0,0,1,31.74,16.34,116.21,116.21,0,0,1,30.63,31.57A145,145,0,0,1,233,160.19c-6.95.91-13.74,1.85-20.55,2.69-6.06.74-12,1.9-18,3.2-7.76,1.69-15.37,3.86-23,6.15a337.68,337.68,0,0,0-33,12.3c-20.23,8.55-39.16,19.71-58.88,29.26-5.72,2.77-11.3,5.89-17.42,7.76-1.56-.28-1.48-1.67-1.69-2.71-5.69-28.72-2.12-56,12.16-81.84a118.67,118.67,0,0,1,21.27-28.14c10.1-9.75,21.49-17.77,34.94-22.46A16.8,16.8,0,0,1,134.86,85.35Z"/><path class="cls-13" d="M140.68,27c0-7,6.78-12.94,12.24-14.09,9.44-2,18.11.54,26.33,4.94C192.89,25.18,203.73,36,214.84,46.5c1.71,1.61,3.64,3.79,6,2.2s.81-4.35.07-6.4c-2.78-7.77-5.79-15.43-5.3-23.95.38-6.51,4.86-9.45,11-7.22,11.74,4.26,19.86,12.95,27.28,22.34A95.31,95.31,0,0,1,271.6,69.68c3.25,13.06,4.15,26.42,1.27,39.68-3.29,15.22-10.43,28.43-22.12,39-2.08,1.87-4.47,3.39-6.57,5.24-1.31,1.15-2,.7-2.62-.57-1.62-3.34-3.2-6.7-4.8-10a86.8,86.8,0,0,0-11.76-25,138.92,138.92,0,0,0-19.71-22.7Q195.57,86.15,185,78c-9.31-7.23-18.63-14.49-27.05-22.76a68,68,0,0,1-15.73-23C141.54,30.53,141.6,28.63,140.68,27Z"/><path class="cls-14" d="M370.32,200.37c5.23-7.27,9.33-15.23,13.95-22.88,9.27-15.37,18.31-30.89,27.46-46.34q8-13.55,16-27.07c1.84-3.12,4.69-3.24,6.57-.09q12.51,20.87,24.91,41.8,9.21,15.53,18.41,31.06,11,18.66,22.06,37.34c2.07,3.52.88,6.5-2.94,7.8a13.28,13.28,0,0,1-4.34.51q-58,0-116,0c-2.42,0-4.84-.65-7.28,0a1.39,1.39,0,0,1-1.67-.88,19.61,19.61,0,0,0,5.21-7.44c1.61-4.14.21-7.77-1.57-11.36A4.12,4.12,0,0,1,370.32,200.37Z"/><path class="cls-15" d="M110.05,468.67a161.55,161.55,0,0,1,3.31-15.85,13.52,13.52,0,0,0,.26-5.21,4.19,4.19,0,0,0-3.44-3.46,3.91,3.91,0,0,0-4.66,2c-2,3.52-2.37,7.53-3.38,11.33-1.56,5.88-2.66,11.88-4.16,17.78-.55,2.14-1,4.34-1.54,6.48-.5,1.86-1.12,2.37-2.88,2.24-9.49-.73-18.91-1.74-28.2-4.09a150.86,150.86,0,0,1-20.69-6.6c-.66-2.66.77-4.92,1.69-7.14,4.68-11.32,10.54-22,18.71-31.22A80.76,80.76,0,0,1,81.65,420.2c3.8-2.45,8-2,12.15-.93,9.35,2.37,18.48,5.56,27.92,7.62,1.6.35,3.31,0,4.81.82,4.33,7.26,8.7,14.5,13,21.8a35.27,35.27,0,0,0,5.16,6.18c1.9,2,4.33,1.16,6.59,1.29,4.35,1.09,8.55-.31,12.67-1.19a188.54,188.54,0,0,0,22.41-6.59,7,7,0,0,0,2.4-1.6,35.56,35.56,0,0,1,8.78,6.9,5.74,5.74,0,0,1,1.82,3.51A298.63,298.63,0,0,1,201,492.75a351.14,351.14,0,0,1-2.71,40c0,.29-.05.58-.07.87-.47,6.58-.48,6.41-6.93,6.63-10.85.37-21.67-.47-32.43-1.41-7.52-.65-15.05-1.73-22.54-2.95-8.81-1.43-17.52-3.3-26.24-5.11-2.92-.6-5.77-1.57-8.65-2.37-1.24-.67-.87-1.85-.81-2.87.34-6.91,1.31-13.75,2.29-20.59,1.66-11.64,4.81-23,7-34.49A6,6,0,0,0,110.05,468.67Z"/><path class="cls-16" d="M333.89,216.19c-.46,3.22-.45,3.18-4.07,2a172.65,172.65,0,0,0-33.68-7.4,200,200,0,0,0-29.63-1.57c-7.15.24-14.26,1.19-21.38,2-18,2.13-35.17,7.67-52.56,12.32-9.17,2.45-18.37,4.73-27.58,7a22.05,22.05,0,0,1-3.47.32,6.56,6.56,0,0,1-5-1.4c-2.14-1-3.4.58-4.31,1.91-1.54,2.22-3.77,2.57-6.07,2.89-6.81,1-13.62,1.84-20.43,2.77-2.7.38-5.42.36-8.13.65a187.22,187.22,0,0,1-28.32.55c-3.44-.16-7,0-10.42-.93-2.47-.64-4.79.51-7.08,1.31-11.12,3.86-22.08,8.12-33.09,12.28-4,1.5-4.53,4.69-5,7.72-1.27,7.73-2.83,15.42-3.15,23.31-.38,9.21-2.54,18.2-4.24,27.24-2.63,14,0,27.27,7.19,39.54,7.42,12.69,17.81,22.56,30.15,30.32a142.92,142.92,0,0,0,31.17,14.26,270.68,270.68,0,0,0,33.66,9.22c8.65,1.67,17.39,2.78,26.09,4.11,19.62,3,39.36,3.09,59.09,2.72a214.61,214.61,0,0,0,28.36-2.6c5.65-.86,11.36-1.27,16.95-2.5a3.16,3.16,0,0,1,2.8.51c.26,4.8.28,4.88-4.21,5.79A138.43,138.43,0,0,0,244,414.34c-3.78,1.16-6.51,3.87-9.34,6.37s-5.63,5.38-8.44,8.08c-1.69,1.72-3.76,2.11-6.12,2.13-3.3,0-6.58.65-9.91.56A8.6,8.6,0,0,1,205,430c-4-3.13-7.57-6.71-11.78-9.55a25.85,25.85,0,0,0-13.9-4.61,352.32,352.32,0,0,1-41.88-4.08c-16.53-2.63-32.94-5.87-48.88-11.1C72.39,395.39,56.83,388.8,42.79,379c-12.49-8.7-22.67-19.36-27.93-34-5.75-16-5.88-31.87,1.29-47.48a27.13,27.13,0,0,0,2.07-9.91,197.37,197.37,0,0,1,5.71-38.06,3.44,3.44,0,0,1,2.39-2.84c15.55-5.58,31.13-11.13,46.48-17.26a6.15,6.15,0,0,1,3.7-.15c14.94,3.06,30,3.29,45.13,1.8,30.36-3,59.21-12,87.82-22,14.7-5.13,29.58-9.85,45-12.07,24.94-3.59,49.37-1.51,72.92,8.06a6.37,6.37,0,0,1,4,3.89C332.22,211.44,333.06,213.81,333.89,216.19Z"/><path class="cls-17" d="M134.86,85.35c-10.44,2.62-19.65,7.73-28.29,14a115.18,115.18,0,0,0-32.7,37.06A114.18,114.18,0,0,0,61.06,170a109.35,109.35,0,0,0-1.92,33.29c.57,5.7,1.44,11.33,2.47,17a5.62,5.62,0,0,0,.58,1.28c-5.58,2.8-11.52,4.71-17.34,6.9C35.46,232,26,235.27,16.54,238.7c-3.29,1.2-3,1.06-3.74-2.38-1.66-7.55-.77-15.14-1-22.71-.21-6.25,1.11-12.31,2.06-18.45a124.05,124.05,0,0,1,4-17.09,126.33,126.33,0,0,1,9.5-22.14,126.78,126.78,0,0,1,14.19-21.65A168,168,0,0,1,64.92,111a165.11,165.11,0,0,1,26.82-17.8,94.31,94.31,0,0,1,18.45-7.82c3.93-1.13,7.7-2.75,11.69-3.77,1.4-.35,2.34-.45,3.3.53C127.85,85,131.74,84,134.86,85.35Z"/><path class="cls-15" d="M361.11,207a3.84,3.84,0,0,1-4.18-.16c-9.44-5.24-18.95-10.34-29.16-13.94a167.53,167.53,0,0,0-21-5.64,145.74,145.74,0,0,0-31-3.22c-7.11,0-14.14,1.1-21.2,2a197.84,197.84,0,0,0-25,5.09c-8,2.08-15.94,4.7-23.84,7.27-8.9,2.9-17.72,6-26.58,9-7.59,2.58-15.28,4.85-23.07,6.69-7,1.65-14,2.91-21.12,4.12-10.91,1.85-21.86,2.29-32.85,2.53a36.26,36.26,0,0,1-9.33-1.12c7-3.7,14-7.43,21-11.1q16.78-8.76,34.35-15.86A311.84,311.84,0,0,1,180,181.39c7.08-2,14.18-3.93,21.37-5.35,9.51-1.88,19.15-3.08,28.84-4,12.48-1.21,24.94-1.17,37.42-.94a201.45,201.45,0,0,1,20.9,2,145.91,145.91,0,0,1,21.08,4.08,119,119,0,0,1,33,14.46C349.36,195.93,355.77,200.62,361.11,207Z"/><path class="cls-18" d="M285.33,452.52c-6.3-7.27-11.49-15.17-13.72-24.71a5.82,5.82,0,0,1,.22-4c.91-1.94,2.2-2.62,4.21-1.64a23.32,23.32,0,0,0,2.4,1.06c1.63.58,3.39.92,4.38-.92.91-1.69.14-3.26-1.22-4.42-2-1.72-4.07-3.33-6.1-5a9,9,0,0,1-2.55-3.16c-1.39-2.94-1.54-5.88.48-8.55a8.09,8.09,0,0,1,8.28-3.11,24.81,24.81,0,0,1,8.61,3.41c1.56.9,3.12,1.45,4.48-.1a3.59,3.59,0,0,0-.05-5c-1.13-1.34-2.43-2.53-3.67-3.76-5.91-5.88-10.62-12.43-11.8-21,0-.1-.07-.19-.07-.28.12-2.47-.6-5.3,1.92-7s4.73,0,6.73,1.29c7.06,4.55,12.57,10.76,17.63,17.34,9.73,12.66,19.42,25.37,27.08,39.43,4.69,8.62,7.44,17.79,5.51,27.78a20.81,20.81,0,0,1-2.82,7.6c-.94-1.4-1.83-.41-2.64.12-7.68,5-16.06,6-24.88,4.28-4.05-.77-7.65-2.8-11.32-4.54-3.4-1.62-7-2.92-9.91-5.47C286,451.75,285.67,452.2,285.33,452.52Z"/><path class="cls-15" d="M255.55,159.1c7.12-5.48,12.45-12.32,17-19.77a83.2,83.2,0,0,0,11.17-29.06,57.18,57.18,0,0,0,1.2-10.41c0-2.06.9-2,2.29-1,18.2,13,31.78,29.53,40,50.47,3.14,8,4.74,16.32,6.76,24.57a9.69,9.69,0,0,1,0,2C309,164.43,282.61,160.45,255.55,159.1Z"/><path class="cls-19" d="M260.21,440.15c-4.92-1.37-9.8-2.86-14.75-4.07-3.54-.86-6.57.56-8.78,3.26-2.35,2.89-5.16,5.39-7.06,8.67-1.11,1.9-1.15,3.59.48,4.92s3.45.95,5.18,0c.5-.28.95-.63,1.43-.94a3.44,3.44,0,0,0,3.09-.22c2-1.47,4.11-1,6.39-.52,6.29,1.35,12.23,3.84,18.51,5.26a13.46,13.46,0,0,1,9.59,8.3,1.08,1.08,0,0,1-.11,1.33c-11.17,2.57-22.52,2.78-33.9,2.54a4.27,4.27,0,0,0-4.62,4.49c.17,10.12.49,20.25.74,30.38.12,4.77.37,9.54.32,14.31-.07,6.33,3.88,11.39,11.38,11.29a141.53,141.53,0,0,0,23.53-1.79,26.37,26.37,0,0,1,4.36-.09c0,1.47-1.81,1.52-2.18,2.75-.24.8-1.27,1.65.47,2,.31.06.26.64-.08,1-4.63,1-9.19,2.23-13.9,3a243.09,243.09,0,0,1-36.92,3.2c-2.32,0-2-1.57-1.72-2.78,1.12-4.48,1.08-9.08,1.6-13.61,1.89-16.3,1.92-32.68,1.85-49.07,0-7.83-.75-15.57-1.52-23.33a2.65,2.65,0,0,1,.5-2.11c5.11-6.63,9.93-13.52,16.42-19,1-.81,1.86-1.74,3.22-1.88,3.15-.82,6.35-.59,9.54-.48a4.28,4.28,0,0,1,3.72,2C258.94,432.39,260.4,436.05,260.21,440.15Z"/><path class="cls-20" d="M168.49,563.61c-12.82-.11-25.4-2.14-37.88-4.78-14-3-27.26-7.9-39-16.3a92.83,92.83,0,0,1-10.32-8.81c60.14,19.22,120.75,21,182.11,12.21-19.56,13.55-42.16,16.1-65,17.68-6.08.57-12.18.19-18.27.22C176.22,563.86,172.34,564.17,168.49,563.61Z"/><path class="cls-21" d="M140.68,27c.51,0,1,.12,1.1.72,1.39,6.27,4.45,11.77,8.08,16.94a92.21,92.21,0,0,0,16.4,17.26c9.86,8.3,20,16.29,30,24.39a160.19,160.19,0,0,1,16,14.91c9.43,10,17.75,20.85,22.49,33.94.88,2.43,3.14,4.73,2,7.76-4.28-6.35-8.28-12.89-13-18.92a116.72,116.72,0,0,0-21.91-21.77A139.58,139.58,0,0,0,171.05,85a153.07,153.07,0,0,0-18.73-6.52c-5.61-1.48-11.23-2.73-16.94-3.71-1.89-.33-4.77-.65-4.1-4.09.42-2.18,2.6-3.64,5.42-3.89,3.78-.32,7.31.92,10.87,1.68a59.49,59.49,0,0,1,7.64,1.66,2.38,2.38,0,0,0,2.88-1.46c.66-1.33.08-2.6-1-3.62a63.79,63.79,0,0,1-12.2-16c-2.87-5.11-4.18-10.72-5.22-16.4A7.14,7.14,0,0,1,140.68,27Z"/><path class="cls-22" d="M126.53,427.71c-2.88,1.34-5.59-.21-8.18-.86-8.44-2.1-16.76-4.72-25.14-7.06-6.27-1.74-11.53.38-16.23,4.5-7.7,6.77-14.72,14.13-20.15,22.89a116.05,116.05,0,0,0-12.16,26.06,46.47,46.47,0,0,0-6.15-3c-2.75-.9-2.72-2.81-2.07-4.8,2.09-6.35,4.13-12.75,7.18-18.73,6.48-12.67,15.95-22.91,26.54-32.2,1.8-1.58,3.9-2.82,5.69-4.4,3-2.61,5.75-.54,8.4.29,8,2.52,16,4.92,24.12,6.8,3.76.87,7.48,1.79,11.3,2.36a3.91,3.91,0,0,1,3.61,2.81C123.9,424.3,125.41,425.94,126.53,427.71Z"/><path class="cls-19" d="M191.11,432.11c3.07,2.46,6.26,4.79,9.19,7.42,4.33,3.88,8.44,8,12.71,12a5.23,5.23,0,0,1,1.63,3.46c1.51,9.77,1.58,19.64,1.51,29.46a349,349,0,0,1-2.55,41.1c-.51,4.14-.91,8.31-1.4,12.46-.41,3.51-3.11,1.74-4.79,2-1.86.27-2.07-1-1.86-2.67a393.37,393.37,0,0,0,2.92-62.7c-.2-5.64-.91-11.27-1.2-16.91-.33-6.48-4.74-10.49-8.9-14.46a87.63,87.63,0,0,0-8.12-6.51,10.81,10.81,0,0,0-10.64-1.58,246.43,246.43,0,0,0-28.1,10.75c-1.89.89-2.51.4-3.35-1.08-2.63-4.61-5.34-9.17-8-13.74-.29-2.32,1.43-1.49,2.43-1.43,4.66.32,9.26,1.26,13.94,1.52,8.24.44,16.44,1.86,24.75.68,2.18-.32,4.46.24,6.68.49A6.49,6.49,0,0,0,191.11,432.11Z"/><path class="cls-15" d="M280.05,516.62a133.78,133.78,0,0,1-30.23,3.74c-2.74,0-3.85-1-4.22-3.52-.84-5.81-.47-11.66-.7-17.48-.07-1.77,1.06-1.48,2.11-1.47l15.76,0c5.47,0,10.81-1.17,16.21-1.72,1.16-.62,1.83-.23,2.12,1a10,10,0,0,1,.36,3.47C280.77,506,281.24,511.37,280.05,516.62Z"/><path class="cls-23" d="M27.24,462.06c-9.89-9.25-16.41-19.45-15.5-33.17A10.91,10.91,0,0,1,13,424.73c1.41-2.79,3.4-3.62,6.26-2.39,7.11,3.06,12.38,8.64,18.16,13.53.73.62.43,1.13.09,1.74A102.6,102.6,0,0,0,27.24,462.06Z"/><path class="cls-19" d="M42.28,482.68c4,1.34,8,2.77,12.09,4a129.6,129.6,0,0,0,27.38,5.37c3.3.26,6.6.55,9.91.73,1.51.08,1.82.75,1.45,2.08-.62,2.23-1.06,4.52-1.81,6.7a3.27,3.27,0,0,1-3.57,2.32,181.48,181.48,0,0,1-20.28-2.11,91.87,91.87,0,0,1-24.33-7.3c-.89-.4-1.74-.85-2.61-1.28a18.91,18.91,0,0,1,.57-9.21C41.25,483.43,41.24,482.52,42.28,482.68Z"/><path class="cls-24" d="M78,518.35c-11.76,15.12-29.7,11.53-39.12.2-3.32-4-4.36-10-3.37-17L44,505.79c-1,1.67-2.1.42-2.79.25,8.35,10,20.7,10.85,32.67,12.8C75.42,519.09,76.49,517.06,78,518.35Z"/><path class="cls-25" d="M145.68,584.48a148.13,148.13,0,0,1-24.35,4.93c-.87.09-1.75.47-1.71-1,0-2.06-1.31-2.49-3.09-2.56-5.49-.24-10.82,1.44-16.29,1.22-1,0-1.92,0-3.61,0a40.22,40.22,0,0,1,12.64-4.68c3.21-.72,6.52-1.13,9.65-2.11,4.38-1.36,6.47-5,5.62-9.54-.44-2.3-.26-3.32,2.46-2.46,2.2.7,4.56.88,6.78,1.52,1.63.46,2.9,1,2.46,3.55-.81,4.72,1.63,7.85,6.88,10.13C143.73,583.7,144.35,583.94,145.68,584.48Z"/><path class="cls-26" d="M269.51,585.93c-5.92-.06-11.85.18-17.73-1-3.63-.73-4.78.5-4.26,4.39L217.26,584c2-1.59,3.62-2.76,5.09-4.1,1.76-1.61,3-3.51,2.73-6.11-.08-.69-.41-1.6.59-2,3-1.32,6.21-1.44,9.31-2.23,1.27-.33,1.21,1,1.38,1.77,1.53,7.3,4.36,7.28,10.28,8.69,7.61,1.8,15.26,3.44,22.9,5.15Z"/><path class="cls-19" d="M278.93,486.78a77.36,77.36,0,0,1-9.36,1.73c-7.57.51-15.16,1.18-22.78.25-1.48-.18-2-.55-2-2.06.05-2.34-.08-4.69-.17-7,0-1.26.12-1.92,1.74-1.86a129.65,129.65,0,0,0,26.75-2,24.09,24.09,0,0,1,3.51-.12C278.9,479.07,279.93,482.71,278.93,486.78Z"/><path class="cls-27" d="M285.33,452.52c0-.56-.25-1.27,0-1.65s.92,0,1.21.32c3.13,3.11,7.32,4.36,11.1,6.28,5.84,3,11.91,5.36,18.67,4.75,5.32-.49,10.61-1.14,15.09-4.51a16.59,16.59,0,0,1,2.33-1.22c1.71-.91,1.37.5,1.52,1.35-4.41,11.7-18.68,17-30.68,11.24C296.71,465.3,290.6,459.37,285.33,452.52Z"/><path class="cls-28" d="M191.11,432.11c-.16.84.34,2.08-1.51,1.57a28,28,0,0,0-10.81-.67,72.22,72.22,0,0,1-13-.16c-5.69-.4-11.37-1.08-17.05-1.68-2.31-.24-4.61-.55-6.91-.91-.82-.13-1.57-.43-1.7.8a32.09,32.09,0,0,0-6.06-8.39c3.51.17,6.24-.12,8.74.52,3.16.82,6.37.58,9.49,1.1,8.18,1.36,16.43,1.39,24.66,1.65C182.54,426.12,187.44,427.68,191.11,432.11Z"/><path class="cls-29" d="M110.05,468.67c1,.57.68,1.42.48,2.29-2,9.16-4.52,18.26-5.9,27.53-1.47,9.89-3.39,19.78-3.22,29.87-4.32-.9-8.33-2.92-12.73-3.58-1.4-.21-1.18-1.37-.72-2.3,1.35-2.73,2.72-5.46,4.18-8.13a3.94,3.94,0,0,1,1.73-1.9c5.75-1.79,6.52-7,8.08-11.62,2.55-7.53,3.7-15.43,5.73-23.11C108.47,474.7,108.64,471.52,110.05,468.67Z"/><path class="cls-30" d="M274.18,466.16a17,17,0,0,0-7.66-8.26c-1.88-1-3.75-.76-5.57-1.35-5.53-1.81-11.18-3.25-16.71-5-1.72-.56-2.71.21-4,.94s-2.7,2.24-3.54-.45c1.08-2.24,3.21-3.46,4.91-5.09.75-.72,1.52-.3,2.4-.08,6,1.48,11.93,3.09,18,4.38,3.56.76,7.19,1.23,10.69,2.25a2.3,2.3,0,0,1,1.23.69c1.78,2.67,4.29,4.7,6.28,7.17s1.48,3.47-1.57,3.76A19.37,19.37,0,0,0,274.18,466.16Z"/><path class="cls-31" d="M78,518.35c-2.37,1.86-5,1.08-7.57.71-8.55-1.21-17.08-2.65-24.41-7.59-2.62-1.76-4.71-4.33-7.28-6.75,2.21-.24,3.33,2.15,5.25,1.07a106.68,106.68,0,0,0,18.41,5.48,99.56,99.56,0,0,0,19.09,2A15.89,15.89,0,0,1,78,518.35Z"/><path class="cls-32" d="M188.72,447.6c.69,1.44-.29,2-1.37,2.26-7.71,2.14-15.21,5.05-23.06,6.68-3.55.74-7.12,1.63-10.81,1.58-.9,0-2.06.35-2.24-1.14,3.79-1.57,7.53-3.28,11.39-4.68,6.56-2.38,13.18-4.6,19.8-6.82C185,444.61,187,445.72,188.72,447.6Z"/><path class="cls-33" d="M280.05,516.62c-.63-.55-.5-1.14-.48-2,.15-5.75,1.7-11.43.78-17.24-.18-1.16-.57-1.2-1.37-1.21,2.07-1.09,4.55-.45,6.65-1.64,1-.55,1.55.21,1.54,1.35,0,6,0,12.06,0,18.08,0,.57,0,1.48-.7,1.38C284.13,515.05,282.32,517,280.05,516.62Z"/><path class="cls-34" d="M260.21,440.15c-.79-2.57-1.61-5.14-2.35-7.73-1.06-3.74-2.41-4.83-6.36-4.74-2.3.06-4.63-.31-6.91.33-.45.13-.67-.26-.86-.6,2-2.75,5.32-3.1,8.11-4.32a53.71,53.71,0,0,1,7.9-2.23c1.11-.29,1.71.22,1.58,1.36-.78,6.92,1.48,13.15,4.62,19.64Z"/><path class="cls-35" d="M21,485.57a29.66,29.66,0,0,1-8.63-12.15,11.43,11.43,0,0,1-.6-4.59c.09-1.87.73-2.76,2.73-1.69,2.69,1.46,5.8,2.17,7.6,5.1a3.74,3.74,0,0,1,.71,3.18A61.43,61.43,0,0,0,21,485.57Z"/><path class="cls-36" d="M205,430a50.21,50.21,0,0,0,21.26-1.23c-3,3.68-6,7.33-8.92,11.06-.8,1-1.18,1.45-2.31.26C211.75,436.67,208.34,433.38,205,430Z"/><path class="cls-37" d="M42.28,482.68c-1.7,3.32-.87,7.06-1.77,10.52-1.33-.71-2.65-1.45-4-2.13-5.28-2.67-5.88-3.87-4.68-9.7.41-2,1.34-2.87,3.46-1.7S40.24,481,42.28,482.68Z"/><path class="cls-38" d="M278.93,486.78a57,57,0,0,0-2.29-11.11c1.92-1.65,4.68-.7,6.71-2.18.64-.47,1.37,0,1.58,1a42.94,42.94,0,0,1,1.11,8.91c0,1.92-.78,2.64-2.5,2.81C282,486.4,280.47,486.6,278.93,486.78Z"/><path class="cls-39" d="M274.2,533c-2.43-1.83-1.85-3.69,1.79-5.71,2.76-1.92,6.25-1,9.18-2.3.87-.4,1.42.46,1.31,1.39-.15,1.26.3,2.73-1.61,3.28C281.29,530.67,277.76,531.87,274.2,533Z"/><path class="cls-40" d="M344.43,214.64c-.18-1.73.49-1.58,1.31-1.12l6,3.35c.42.24.9.44.91,1s-.61.69-1,.85c-1.34.54-2.69,1.06-4.07,1.5-.53.16-1.31.18-1.54-.46C345.39,218,344.88,216.12,344.43,214.64Z"/><path class="cls-41" d="M168.49,563.61h29.86c-2,.81-4,.5-6,.52-6.91,0-13.81,0-20.71-.06C170.55,564.06,169.45,564.26,168.49,563.61Z"/><path class="cls-42" d="M489.82,301.14c0-14.73.06-29.46-.05-44.19,0-2.21.59-2.82,2.75-2.76,5.17.14,10.35.17,15.51,0,2.28-.07,3,.53,3,2.87-.1,16.2-.06,32.39-.06,48.58,0,13.17-.05,26.34.06,39.51,0,2.32-.62,3-2.93,2.9-5.07-.17-10.15-.17-15.21,0-2.39.08-3.11-.52-3.09-3,.13-14.63.06-29.27.06-43.9Z"/><path class="cls-42" d="M460,317.93c0,9.17-.07,18.35.06,27.52,0,2.12-.62,2.63-2.63,2.58-4.87-.13-9.76-.09-14.64,0-1.64,0-2.17-.46-2.16-2.14q.07-28,0-55.93c0-1.75.46-2.4,2.3-2.36,4.87.11,9.76.12,14.63,0,2-.05,2.49.61,2.47,2.51C459.9,299.38,460,308.65,460,317.93Z"/><path class="cls-43" d="M392.13,331c0-4.78.08-9.56,0-14.33,0-1.93.32-2.79,2.52-2.72,4.77.16,9.55.07,14.32,0,1.34,0,2,.08,2,1.84-.14,9.85-.13,19.69-.05,29.54,0,2-.47,2.75-2.59,2.68-4.47-.15-9-.15-13.44,0-2.12.08-2.9-.41-2.8-2.71.2-4.77.06-9.55.06-14.32Z"/><path class="cls-42" d="M448.25,389.63c18.94,0,37.88,0,56.82-.05,2.27,0,3,.55,3,2.9q-.12,33.82,0,67.65c0,2-.5,2.65-2.61,2.65q-57-.11-113.92,0c-1.85,0-2.53-.43-2.53-2.43q.11-34.12,0-68.24c0-2.23.89-2.5,2.76-2.5Q420,389.67,448.25,389.63Z"/><path class="cls-44" d="M141.26,322.24c-9-.47-17.5-5.75-23.25-15.39-7.72-12.92-5.64-30.82,4.72-41.4a28.56,28.56,0,0,1,44.07,3.3c11.67,16.15,7.39,39.33-9.13,49.45C153.37,320.83,148.45,322.24,141.26,322.24Z"/><path class="cls-45" d="M314.17,281.39c0,9-2.81,16.83-9.17,23.26a24.1,24.1,0,0,1-33.72.81c-12.73-11.5-14.27-33.93-3.23-47,11.65-13.79,30.28-12.41,40.45,3A35,35,0,0,1,314.17,281.39Z"/><path class="cls-1" d="M250.89,341.24c1.6,3.09,2.76,6.26,2.09,9.79-1.08,5.65-5.06,8.64-10,10.44-8.35,3-17.08,3.67-25.89,3.23A49.93,49.93,0,0,1,199.52,361c-12-5.17-16-15.94-14.7-26.55,2.37-19.7,19-37.22,38.59-41.25,19.76-4.07,40.52,12.88,40.54,33.09C264,335.73,260.26,340,250.89,341.24Z"/><path class="cls-46" d="M106.87,322.06c12.37-.09,20.88,4.1,25.7,14.31a21.4,21.4,0,0,1-4.92,24.81c-9.36,8.76-25.46,9.93-35.94,2.61-14.44-10.1-13.27-30,2.25-38.43C98.44,322.94,103.16,321.72,106.87,322.06Z"/><path class="cls-47" d="M156.51,229.52a7.86,7.86,0,0,1,5,1.4c2.65,4.41,1.87,8-2.61,11.69a44.63,44.63,0,0,1-16,8.11,55.42,55.42,0,0,1-16.39,2.37c-3.76,0-6.07-1.93-6.14-5.12-.06-2.9,2.6-5.38,6.08-5.44a49.48,49.48,0,0,0,14.64-2.25c4.64-1.5,8.75-3.69,11.43-8A6,6,0,0,1,156.51,229.52Z"/><path class="cls-47" d="M291.6,240c-7.12-.22-13.05-1.5-18.54-4.5a15.94,15.94,0,0,1-4.79-3.77c-2.07-2.5-2.2-5.66-.32-7.72s5.11-2.19,7.7-.28c2.89,2.15,5.67,4.3,9.44,4.87a27.42,27.42,0,0,0,13.22-1.18,26.36,26.36,0,0,1,2.8-.79,5,5,0,0,1,5.89,2.67c1.32,2.3.8,4.51-1,6.41-2.48,2.68-6,3.14-9.25,3.83A36.83,36.83,0,0,1,291.6,240Z"/><path class="cls-48" d="M440.72,144.1c-1.37,12.47-1.94,25-3,37.49a6,6,0,0,1-6.64,5.83c-3.07-.16-5.42-2.77-5.73-6.2q-1.63-18.43-3.34-36.87c-.42-4.5,1.79-9.06,5.39-10.76a9.31,9.31,0,0,1,11.18,2C441,138.08,440.78,141.07,440.72,144.1Z"/><path class="cls-49" d="M422.36,202.33a9.33,9.33,0,0,1,9-9,9.78,9.78,0,0,1,9.26,9.46,9,9,0,0,1-9.39,8.74A8.89,8.89,0,0,1,422.36,202.33Z"/><path class="cls-50" d="M166,531.27c-11.82-.46-23.28-1.09-34.49-3.92-1.22-.31-2.5-.07-3.75-.52-6-2.16-7.87-4.88-7.57-11.73.52-11.59,1.18-23.17,1.74-34.76.1-2,0-4.1.06-6.15.15-4.39,2.39-6.41,6.76-6,7.74.74,15.48,1.58,23.23,2.35,9.64,1,19.3.58,29,.23,5.08-.19,7.37,1.33,7.1,6.34-.79,14.9-.17,29.86-1.78,44.72a9.77,9.77,0,0,1-9.2,8.91C173.28,530.88,169.49,531.1,166,531.27Z"/><path class="cls-51" d="M448.82,455.74c-11.61,0-23.23,0-34.83.05-1.87,0-2.79-.31-3-2.39-.71-6.61-6.14-11.64-12.62-11.19-1.37.1-1.59-.63-1.59-1.78,0-9.47.06-18.93,0-28.4,0-1.94,1-1.89,2.38-1.95,6.34-.27,11.39-4.68,12-10.94.22-2.29,1-2.62,3-2.61,18.15.06,36.29,0,54.44,0,5.07,0,10.15.07,15.22,0,1.76,0,2.56.22,2.61,2.31.13,5.82,5.79,11.23,11.66,11.2,2.2,0,3,.42,2.94,2.87-.18,8.88-.11,17.76,0,26.64,0,1.87-.21,2.75-2.45,2.76a11.83,11.83,0,0,0-12.12,11.6c-.11,2.3-1.44,1.86-2.72,1.86H448.82Z"/><path class="cls-52" d="M153.63,271.26c3.87.05,6.8,3.44,6.8,7.89s-3.08,7.91-6.88,7.88-6.8-3.71-6.74-8C146.88,274.4,149.68,271.21,153.63,271.26Z"/><path class="cls-53" d="M299.49,271.86c-.05,4.31-2.82,7.55-6.43,7.55-4,0-7.17-3.66-7.05-8.1s3.23-7.77,7.09-7.66S299.56,267.17,299.49,271.86Z"/><path class="cls-54" d="M255.08,326.28c.12,5-1.87,6.88-7,5.1-15.95-5.56-28.3,1.65-40.21,10.71a74,74,0,0,0-7.13,6.48c-1.68,1.68-2.81,1.19-3.94-.53a19.84,19.84,0,0,1-1.91-18.47c4.84-13.19,13.69-22.82,27.44-26.84C240.1,297.53,254.65,312,255.08,326.28Z"/><path class="cls-55" d="M225.52,356.31c-6.65-.09-11.13.08-15.49-1.26-.88-.27-1.79-.46-2.12-1.28s.63-1.36,1.14-1.81a38.21,38.21,0,0,1,20.1-9.62A14.67,14.67,0,0,1,239.88,345c2,1.4,3.83,3.41,3.26,6.07s-3.31,3.26-5.63,3.89A42.07,42.07,0,0,1,225.52,356.31Z"/><path class="cls-15" d="M166.45,522.6c-10.12-.08-20.06-1.68-30.06-3.17-8.18-1.22-7.76-2.42-7-9.63.36-3.28.43-6.6.5-9.91,0-1.69,0-2.63,2.36-2.13a123,123,0,0,0,30.36,3.12c4.66-.17,9.31-.67,14-1.08,1.41-.12,2.25.06,2,1.82-.58,4.36-.32,8.75-.42,13.14,0,.48,0,1-.07,1.46-.53,5.74-1.27,6.42-7,6.38Z"/><path class="cls-40" d="M160.53,492a111.42,111.42,0,0,1-28.57-3.4c-1.34-.32-1.77-.9-1.64-2.21.24-2.33.4-4.67.54-7,.08-1.4.3-1.86,2.08-1.67,12.09,1.3,24.17,3,36.38,2.52q3.93-.13,7.88-.44c1.43-.12,2.3.21,2.06,1.87,0,.09,0,.19,0,.29-.3,3,1.19,7.14-1.68,8.67-2.44,1.31-6,1.09-9.14,1.33C165.81,492.19,163.17,492,160.53,492Z"/><path class="cls-42" d="M448.38,451.11a3,3,0,0,1-3.47-2.76,4.83,4.83,0,0,0-2.7-3.52,20,20,0,0,1-5-4.48c-1.33-1.58-2.19-3.33-.29-5.15s3.59-1.53,5.58.43c3.33,3.29,6.22,3.56,9.51.9,2.51-2,2.15-5.25-.86-6.44s-6-2.15-9.1-3.08c-7.12-2.15-7.55-11.06-4.36-15.78,2.11-3.13,5.11-5.56,6.87-9a3.56,3.56,0,0,1,4-1.89,3.49,3.49,0,0,1,2.86,3.27c.23,2.31,1.52,3.52,3.74,4.26a7,7,0,0,1,4.34,3.66,3.74,3.74,0,0,1-.94,4.76,3.05,3.05,0,0,1-4.26,0,9.6,9.6,0,0,0-4.52-1.87c-2.06-.31-4.58,1.24-5,3.18-.48,2.4,1.1,3.27,3.05,3.82,2.42.7,4.76,1.67,7.15,2.4,9.34,2.83,8,15,2.35,19.17-2.37,1.75-5.13,3-5.82,6.44C451.29,450.66,449.83,451.21,448.38,451.11Z"/></g></g></svg>