<svg xmlns="http://www.w3.org/2000/svg" viewBox="0 0 521.52 599.9"><defs><style>.cls-1{fill:#42201f;}.cls-2{fill:#6e2517;}.cls-3{fill:#792416;}.cls-4{fill:#361011;}.cls-5{fill:#db452a;}.cls-6{fill:#732517;}.cls-7{fill:#782416;}.cls-8{fill:#dc462a;}.cls-9{fill:#370f11;}.cls-10{fill:#260d0c;}.cls-11{fill:#772517;}.cls-12{fill:#742517;}.cls-13{fill:#330f11;}.cls-14{fill:#240e0d;}.cls-15{fill:#db462a;}.cls-16{fill:#55371e;}.cls-17{fill:#e45423;}.cls-18{fill:#c73c18;}.cls-19{fill:#fbc838;}.cls-20{fill:#fbc738;}.cls-21{fill:#f2a81d;}.cls-22{fill:#009640;}.cls-23{fill:#f3a91d;}.cls-24{fill:#54361d;}.cls-25{fill:#54371e;}.cls-26{fill:#fefdfc;}.cls-27{fill:#063;}.cls-28{fill:#e45623;}.cls-29{fill:#ed7128;}.cls-30{fill:#e45926;}.cls-31{fill:#f2a71b;}.cls-32{fill:#fac637;}.cls-33{fill:#e0ba66;}.cls-34{fill:#56381e;}.cls-35{fill:#54371d;}.cls-36{fill:#fefdfd;}.cls-37{fill:#e45822;}.cls-38{fill:#ed7228;}.cls-39{fill:#f1a61c;}.cls-40{fill:#f8bd2d;}.cls-41{fill:#f8bd2b;}.cls-42{fill:#f1a81f;}</style></defs><g id="Capa_2" data-name="Capa 2"><g id="Capa_1-2" data-name="Capa 1"><path class="cls-1" d="M521.52,249.53q0,51.68,0,103.35c0,3.08-1.64,4.84-4.42,5.66a12.2,12.2,0,0,1-3.45.5q-62.06,0-124.13,0c-2.6,0-5.28-.19-6.91-2.78a10.11,10.11,0,0,0,6.74,2.31q62.37,0,124.75,0c5,0,7.08-2.21,7.08-7.21,0-33.57-.06-67.15.08-100.73a6.24,6.24,0,0,0-6.69-6.62c-9.46.18-18.93.05-28.4.07-3.6,0-5,.85-6.29,4,0-.32,0-.64-.05-1a4.77,4.77,0,0,1,4.84-3.39c10.44-.05,20.88-.08,31.32,0C519.4,243.74,521.52,246.11,521.52,249.53Z"/><path class="cls-1" d="M514.55,244a6.24,6.24,0,0,1,6.69,6.62c-.14,33.58-.07,67.16-.08,100.73,0,5-2.08,7.21-7.08,7.21q-62.37,0-124.75,0a10.11,10.11,0,0,1-6.74-2.31c4.49,2.68,9.44,1.67,14.22,1.68q58.57.09,117.15,0c5,0,6.9-1.84,6.9-6.83q0-50.24,0-100.46c0-4.23-2-6.31-6.23-6.34-9.47-.05-18.94,0-28.41,0a6.2,6.2,0,0,0-6.34,4.13c0-.14,0-.27,0-.41,1.31-3.13,2.69-4,6.29-4C495.62,244,505.09,244.13,514.55,244Z"/><path class="cls-2" d="M520.86,250.65q0,50.22,0,100.46c0,5-1.87,6.83-6.9,6.83q-58.58,0-117.15,0c-4.78,0-9.73,1-14.22-1.68-1.15-1.13-1.16-2.57-1.16-4q0-20.74,0-41.51c0-4.79,2.4-7.22,7.1-7.23,8.77,0,17.54,0,26.31,0a5.35,5.35,0,0,1,4,1.19c2.17,3.19,1.84,6.81,1.83,10.4q0,15,0,30c0,1-.55,2.19.73,2.87l8.43,0c1.34-.8.73-2.12.73-3.18,0-19.78.07-39.56,0-59.34,0-1.81,1-3.56.24-5.37,1.15-2.31,3.32-2.9,5.55-2.92,9.14-.08,18.29-.1,27.43,0,2.16,0,4.48.28,5.59,2.73.78,4,.51,8.13.51,12.21,0,17.56,0,35.12,0,52.67,0,1.07-.64,2.38.72,3.18,2.88-.23,5.83.72,8.65-.5,1-1.09.52-2.43.52-3.64q0-47.68,0-95.36a6.2,6.2,0,0,1,6.34-4.13c9.47.05,18.94,0,28.41,0C518.87,244.34,520.86,246.42,520.86,250.65Zm-12.81,97.4c2.31.08,2.95-.58,2.93-2.91-.11-13.17-.05-26.33-.05-39.5,0-16.2-.05-32.39.05-48.58,0-2.34-.67-2.95-3-2.87-5.16.17-10.34.14-15.5,0-2.16-.06-2.78.55-2.76,2.77.11,14.73.06,29.46.06,44.19h0c0,14.63.07,29.26-.06,43.89,0,2.51.71,3.11,3.09,3C497.91,347.88,503,347.88,508.05,348.05Zm-50.67,0c2,.05,2.66-.46,2.63-2.58-.13-9.18-.05-18.35-.06-27.53s-.05-18.54,0-27.81c0-1.9-.52-2.56-2.47-2.51-4.88.12-9.77.12-14.64,0-1.84,0-2.3.61-2.29,2.36q.07,28,0,55.93c0,1.68.52,2.16,2.17,2.13C447.62,347.93,452.51,347.9,457.38,348Zm-46.45-32.21c0-1.77-.66-1.86-2-1.84-4.77,0-9.55.14-14.32,0-2.2-.08-2.56.79-2.51,2.72.12,4.77,0,9.55,0,14.32h0c0,4.78.14,9.56-.06,14.33-.1,2.29.68,2.78,2.8,2.71q6.72-.23,13.45,0c2.11.07,2.6-.7,2.58-2.68C410.8,335.51,410.8,325.66,410.93,315.82Z"/><path class="cls-3" d="M518,391.69q0,34.24,0,68.49c0,2.86-.41,5.59-2.36,7.85a.46.46,0,0,0-.74,0c-2.74,3-6.27,3.61-10.09,3.61-34.41,0-68.81,0-103.22,0-6.82,0-13.87,1.22-20.14-2.87-2.32-2.16-2.82-5-2.83-7.95q-.06-34.83,0-69.66c0-7,4.57-11.47,11.52-11.47q57.94,0,115.89,0C513.3,379.63,518,384.4,518,391.69Zm-9.92.79c0-2.35-.69-2.92-3-2.9-18.94.08-37.88.05-56.82.05s-37.68,0-56.52,0c-1.87,0-2.76.26-2.75,2.5q.12,34.13,0,68.24c0,2,.68,2.43,2.53,2.42q57-.06,113.92,0c2.11,0,2.61-.64,2.61-2.64Q507.92,426.3,508,392.48Z"/><path class="cls-4" d="M514.87,468a.46.46,0,0,1,.74,0c-3.06,3-6.72,3.91-10.93,3.9q-56.46-.12-112.92,0a16,16,0,0,1-10.34-3.23c6.27,4.09,13.32,2.86,20.14,2.87,34.41.06,68.81,0,103.22,0C508.6,471.6,512.13,471,514.87,468Z"/><path class="cls-4" d="M515.61,468c-2.23,3.33-5.57,4.21-9.31,4.21H440.78q-24.87,0-49.72,0c-3.68,0-7.16-.4-9.64-3.57a16,16,0,0,0,10.34,3.23q56.46-.12,112.92,0C508.89,471.94,512.55,471,515.61,468Z"/><path class="cls-5" d="M511,345.14c0,2.33-.62,3-2.93,2.91-5.06-.17-10.14-.17-15.21,0-2.38.08-3.11-.52-3.09-3,.13-14.63.06-29.26.06-43.89h0c0-14.73.05-29.46-.06-44.19,0-2.22.6-2.83,2.76-2.77,5.16.15,10.34.18,15.5,0,2.28-.08,3,.53,3,2.87-.1,16.19-.05,32.38-.05,48.58C510.93,318.81,510.87,332,511,345.14Z"/><path class="cls-6" d="M508.22,206.67c3.65,6.12,5,12.43.91,18.84-3.42,5.35-8.58,7.58-14.87,7.58q-57.24,0-114.48,0c-4.48,0-8.95.31-13.44-.3a14.41,14.41,0,0,1-9-4.81c4.21-.7,7.9-2.37,10.62-5.77a1.31,1.31,0,0,0,1.24.27c2.43-.6,4.85,0,7.27,0q58,0,116,0a13.23,13.23,0,0,0,4.33-.52c3.82-1.29,5-4.27,2.94-7.79q-11-18.69-22.06-37.35-9.19-15.53-18.41-31.05Q446.8,124.88,434.33,104c-1.88-3.14-4.73-3-6.57.09q-8,13.56-16,27.08c-9.15,15.45-18.19,31-27.46,46.34-4.5,7.43-8.5,15.18-13.53,22.29-.4-.36-1.1-.39-1.12-.64-.11-1.66-1.34-2.22-2.43-3-2.14-1.55-2.42-3-1.31-5.49.37-.83,1.43-1.81-.13-2.59q20.79-35.4,41.59-70.79C411,111,415,104.9,418.38,98.5a14.35,14.35,0,0,1,25.23-.34Q461.39,128.1,479.26,158,493.75,182.33,508.22,206.67Z"/><path class="cls-5" d="M505.07,389.58c2.27,0,3,.55,3,2.9q-.12,33.82,0,67.65c0,2-.5,2.65-2.61,2.64q-57-.09-113.92,0c-1.85,0-2.53-.42-2.53-2.42q.11-34.12,0-68.24c0-2.24.88-2.51,2.75-2.5q28.26.07,56.52,0C467.19,389.63,486.13,389.66,505.07,389.58ZM501,412.91c0-2.45-.75-2.88-2.94-2.87-5.88,0-11.54-5.38-11.67-11.2,0-2.09-.85-2.35-2.61-2.32-5.07.1-10.15,0-15.22,0-18.15,0-36.29,0-54.44,0-2,0-2.74.31-3,2.61-.62,6.26-5.66,10.66-12,10.94-1.37.06-2.4,0-2.38,1.95.09,9.46.06,18.93,0,28.39,0,1.16.22,1.89,1.59,1.79,6.48-.45,11.91,4.57,12.62,11.19.23,2.08,1.14,2.4,3,2.38,11.61-.08,23.22,0,34.83,0v0h34.83c1.28,0,2.61.44,2.72-1.86a11.82,11.82,0,0,1,12.12-11.6c2.24,0,2.47-.9,2.45-2.77C500.86,430.66,500.8,421.78,501,412.91Z"/><path class="cls-7" d="M498,410c2.19,0,3,.42,2.94,2.87-.18,8.87-.12,17.75,0,26.63,0,1.87-.21,2.76-2.45,2.77a11.82,11.82,0,0,0-12.12,11.6c-.11,2.3-1.44,1.86-2.72,1.86H448.82v0c-11.61,0-23.22,0-34.83,0-1.87,0-2.78-.3-3-2.38-.71-6.62-6.14-11.64-12.62-11.19-1.37.1-1.59-.63-1.59-1.79,0-9.46.06-18.93,0-28.39,0-1.94,1-1.89,2.38-1.95,6.35-.28,11.39-4.68,12-10.94.23-2.3,1-2.62,3-2.61,18.15.06,36.29,0,54.44,0,5.07,0,10.15.06,15.22,0,1.76,0,2.57.23,2.61,2.32C486.5,404.66,492.16,410.07,498,410Zm-39.48,6.23a3.74,3.74,0,0,0,.94-4.76,6.93,6.93,0,0,0-4.34-3.66c-2.22-.75-3.51-2-3.74-4.27a3.49,3.49,0,0,0-2.86-3.27,3.57,3.57,0,0,0-4,1.89c-1.75,3.47-4.75,5.89-6.87,9C434.53,416,435,424.85,442.08,427c3.06.93,6.13,1.9,9.1,3.07s3.37,4.43.87,6.45c-3.3,2.66-6.18,2.39-9.52-.9-2-2-3.81-2.11-5.57-.43s-1,3.57.28,5.15a20,20,0,0,0,5,4.47,4.86,4.86,0,0,1,2.7,3.53,3,3,0,0,0,3.47,2.76c1.45.1,2.91-.46,3.16-1.69.69-3.41,3.45-4.69,5.82-6.44,5.61-4.15,7-16.34-2.34-19.18-2.4-.72-4.74-1.69-7.16-2.39-1.94-.56-3.53-1.42-3.05-3.82.4-1.94,2.91-3.49,5-3.18a9.6,9.6,0,0,1,4.52,1.87A3.06,3.06,0,0,0,458.56,416.27Z"/><path class="cls-8" d="M499.71,214.19c2.07,3.52.88,6.5-2.94,7.79a13.23,13.23,0,0,1-4.33.52q-58,0-116,0c-2.42,0-4.84-.64-7.27,0a1.31,1.31,0,0,1-1.24-.27s.09-.1.13-.16a5.66,5.66,0,0,0,.42-.43c41.33.55,82.66.13,124,.25a11.42,11.42,0,0,0,3.19-.38c3.92-1.12,5.16-3.9,3.08-7.37-8.81-14.73-17.4-29.6-26.27-44.3q-12.62-20.92-24.85-42.09-6.5-11.3-13.43-22.32c-2.2-3.51-4.17-3.55-6.24,0-5.42,9.27-11,18.44-16.44,27.69Q399.36,153.74,387,174.34c-4.7,7.87-9.29,15.81-14.11,23.61-.53.86-.89,2-1.92,2.3a.7.7,0,0,0-.27-.47c5-7.11,9-14.86,13.53-22.29,9.27-15.38,18.31-30.89,27.46-46.34q8-13.55,16-27.08c1.84-3.11,4.69-3.23,6.57-.09q12.51,20.88,24.91,41.81,9.22,15.51,18.41,31.05Q488.69,195.52,499.71,214.19Z"/><path class="cls-8" d="M498.75,214.08c2.08,3.47.84,6.25-3.08,7.37a11.42,11.42,0,0,1-3.19.38c-41.32-.12-82.65.3-124-.25.68-.68,1.29-1.41,1.92-2.14,4.09-4.72,4.89-9.89,2.08-15.54a17.9,17.9,0,0,1-1.47-3.46.58.58,0,0,0,0-.19c1-.35,1.39-1.44,1.92-2.3,4.82-7.8,9.41-15.74,14.11-23.61q12.29-20.62,24.48-41.29c5.45-9.25,11-18.42,16.44-27.69,2.07-3.54,4-3.5,6.24,0q6.92,11,13.43,22.32,12.19,21.18,24.85,42.09C481.35,184.48,489.94,199.35,498.75,214.08Zm-58-70c.06-3,.26-6-2.15-8.48a9.29,9.29,0,0,0-11.18-2c-3.6,1.7-5.81,6.26-5.39,10.76q1.72,18.42,3.34,36.87c.31,3.42,2.66,6,5.73,6.2a6,6,0,0,0,6.64-5.84C438.78,169.1,439.35,156.57,440.72,144.1Zm-.13,58.71a9.78,9.78,0,0,0-9.26-9.46,9.33,9.33,0,0,0-9,9,8.89,8.89,0,0,0,8.84,9.22A9,9,0,0,0,440.59,202.81Z"/><path class="cls-9" d="M479.86,248c0,.14,0,.27,0,.41l-.12-.16A2.6,2.6,0,0,1,479.86,248Z"/><path class="cls-9" d="M479.76,248.25l.12.16q0,47.67,0,95.36c0,1.21.46,2.55-.52,3.64a8.26,8.26,0,0,0,.25-3.46c0-31.79,0-63.57,0-95.36A3.45,3.45,0,0,1,479.76,248.25Z"/><path class="cls-9" d="M479.81,247c0,.32,0,.64.05,1a2.6,2.6,0,0,0-.1.25A1.22,1.22,0,0,1,479.81,247Z"/><path class="cls-9" d="M479.76,248.25a3.45,3.45,0,0,0-.14.34c-.08,31.79,0,63.57,0,95.36a8.26,8.26,0,0,1-.25,3.46c-.07-1.94-.21-3.88-.21-5.82q0-44.91,0-89.8c0-1.6-.35-3.28.66-4.75A1.22,1.22,0,0,0,479.76,248.25Z"/><path class="cls-10" d="M470.62,285.33q.08,31.29.06,62.58c-1-.88-.45-2-.45-3q-.06-29.81,0-59.62a15.51,15.51,0,0,0-.82-5.42C471.07,281.39,470.62,283.44,470.62,285.33Z"/><path class="cls-10" d="M470.22,285.27q-.06,29.81,0,59.62c0,1-.53,2.14.45,3-1.36-.8-.72-2.11-.72-3.18,0-17.55,0-35.11,0-52.67,0-4.08.27-8.17-.51-12.21A15.51,15.51,0,0,1,470.22,285.27Z"/><path class="cls-5" d="M460,345.45c0,2.12-.62,2.63-2.63,2.58-4.87-.13-9.76-.1-14.63,0-1.65,0-2.18-.45-2.17-2.13q.07-28,0-55.93c0-1.75.45-2.4,2.29-2.36,4.87.11,9.76.11,14.64,0,2-.05,2.48.61,2.47,2.51-.09,9.27,0,18.54,0,27.81S459.88,336.27,460,345.45Z"/><path class="cls-5" d="M459.5,411.51a3.74,3.74,0,0,1-.94,4.76,3.06,3.06,0,0,1-4.26,0,9.6,9.6,0,0,0-4.52-1.87c-2.06-.31-4.57,1.24-5,3.18-.48,2.4,1.11,3.26,3.05,3.82,2.42.7,4.76,1.67,7.16,2.39,9.33,2.84,8,15,2.34,19.18-2.37,1.75-5.13,3-5.82,6.44-.25,1.23-1.71,1.79-3.16,1.69a3,3,0,0,1-3.47-2.76,4.86,4.86,0,0,0-2.7-3.53,20,20,0,0,1-5-4.47c-1.33-1.58-2.19-3.33-.28-5.15s3.58-1.54,5.57.43c3.34,3.29,6.22,3.56,9.52.9,2.5-2,2.14-5.25-.87-6.45s-6-2.14-9.1-3.07c-7.12-2.16-7.55-11.06-4.36-15.78,2.12-3.14,5.12-5.56,6.87-9a3.57,3.57,0,0,1,4-1.89,3.49,3.49,0,0,1,2.86,3.27c.23,2.32,1.52,3.52,3.74,4.27A6.93,6.93,0,0,1,459.5,411.51Z"/><path class="cls-11" d="M438.57,135.62c2.41,2.46,2.21,5.45,2.15,8.48-1.37,12.47-1.94,25-3,37.48a6,6,0,0,1-6.64,5.84c-3.07-.17-5.42-2.78-5.73-6.2q-1.63-18.45-3.34-36.87c-.42-4.5,1.79-9.06,5.39-10.76A9.29,9.29,0,0,1,438.57,135.62Z"/><path class="cls-12" d="M431.33,193.35a9.78,9.78,0,0,1,9.26,9.46,9,9,0,0,1-9.39,8.74,8.89,8.89,0,0,1-8.84-9.22A9.33,9.33,0,0,1,431.33,193.35Z"/><path class="cls-13" d="M430.83,280c.73,1.81-.25,3.56-.24,5.37.11,19.78.08,39.56,0,59.34,0,1.06.61,2.38-.73,3.18,1-.88.45-2,.45-3q.06-29.67,0-59.36A26.07,26.07,0,0,1,430.83,280Z"/><path class="cls-13" d="M430.83,280a26.07,26.07,0,0,0-.46,5.51q0,29.68,0,59.36c0,1,.53,2.14-.45,3q0-31.28.06-62.55C430,283.56,429.56,281.65,430.83,280Z"/><path class="cls-14" d="M421.42,310.61q0,18.64.05,37.28c-1-.76-.45-1.8-.46-2.7,0-11.39-.08-22.78,0-34.17a8.56,8.56,0,0,0-2.14-6.4C421.36,305.93,421.42,308.26,421.42,310.61Z"/><path class="cls-14" d="M418.9,304.62A8.56,8.56,0,0,1,421,311c-.11,11.39-.06,22.78,0,34.17,0,.9-.49,1.94.46,2.7-1.28-.68-.72-1.9-.73-2.87q-.06-15,0-30C420.74,311.43,421.07,307.81,418.9,304.62Z"/><path class="cls-15" d="M408.93,314c1.34,0,2,.07,2,1.84-.13,9.84-.13,19.69-.05,29.53,0,2-.47,2.75-2.58,2.68q-6.72-.21-13.45,0c-2.12.07-2.9-.42-2.8-2.71.2-4.77.06-9.55.06-14.33h0c0-4.77.08-9.55,0-14.32-.05-1.93.31-2.8,2.51-2.72C399.38,314.12,404.16,314,408.93,314Z"/><path class="cls-8" d="M372.5,203.9c2.81,5.65,2,10.82-2.08,15.54-.63.73-1.24,1.46-1.92,2.14h-1a19.69,19.69,0,0,0,5.21-7.44c1.61-4.14.21-7.77-1.57-11.37a4.09,4.09,0,0,1-.83-2.39,2.36,2.36,0,0,0,.69-.12.58.58,0,0,1,0,.19A17.9,17.9,0,0,0,372.5,203.9Z"/><path class="cls-16" d="M371.15,202.76c1.78,3.6,3.18,7.23,1.57,11.37a19.69,19.69,0,0,1-5.21,7.44,8.23,8.23,0,0,1-3,3c-2.41,1.12-4.81,2.27-7.22,3.41-1.42.58-2.82,1.23-4.27,1.71-4,1.29-4,1.26-3.11,5.16a284.25,284.25,0,0,1,6.93,50.12c.11,2.19,1.44,3.76,2.51,5.45a58.82,58.82,0,0,1,9.07,37.75c-1.18,13.53-6.47,25.55-14.42,36.5A105.25,105.25,0,0,1,327,390.11c-1.76,1.18-1.92,1.92-.66,3.69,6.65,9.29,13.41,18.54,17.84,29.17,5.48,13.14,7.05,26.48.36,39.62-6.42,12.62-16.63,19.77-31.22,19.57-4.84-.07-9.3-1.73-13.65-3.69-.77-.34-1.52-.71-2.48-1.16.28,4.6.5,8.95.8,13.31a202.74,202.74,0,0,1-1.48,39.4c-.62,4.93-3.85,8.27-8.66,9.53a15.13,15.13,0,0,0-7.73,5.1c-8.36,9.42-18.84,15.74-30.53,20.22-1.43.55-3.79.26-3.45,3.25.32,2.8,2.24,2.67,4.08,3,7.85,1.61,15.81,2.78,23.3,5.84a24.33,24.33,0,0,1,5.09,2.7,8.23,8.23,0,0,1,.12,13.44c-3.57,2.71-7.72,2.87-11.94,2.68-2-.08-3.68,0-5.17,1.76-1.36,1.61-3.52,1.93-5.63,1.78a241.32,241.32,0,0,1-24.84-3.2c-6.29-1.11-12.63-2-18.8-3.77a31.57,31.57,0,0,1-3.55-1.21c-5.39-2.28-6.57-7.11-2.91-11.72a17.21,17.21,0,0,1,7.13-4.81c.73-.31,1.94-.57,1.43-1.76s-1.34-.19-2-.07c-8.1,1.4-16.28,1.53-24.47,1.51a322.21,322.21,0,0,1-37.65-2c-1-.11-1.89-.31-2.83-.47-.88,2.24-.32,3.53,2.18,4.2a13.37,13.37,0,0,1,6.48,4.21c3.34,3.79,2.88,7.52-1.37,10.24-3.3,2.12-7,3.09-10.77,4.11a201.48,201.48,0,0,1-24.49,4.81,4.63,4.63,0,0,0-1,.42h-5.86c-3.15-3.19-6.87-3.87-11.22-3.1a18.84,18.84,0,0,1-9.21-.95c-3.58-1.19-6.06-3.49-6.53-7.41-.51-4.19,1-7.42,4.89-9.36a79,79,0,0,1,21.79-6.69c1.87-.33,2.48-.75,2.61-2.81.2-3.26-.79-4.81-4-6-12.63-4.69-24.38-11-34.21-20.43-2.1-2-3.67-5.22-6.11-6.08-2.24-.78-5.23,1.21-8,1.56-14.2,1.8-29.8-7-35.26-20.13A27.78,27.78,0,0,1,25,505.45c.28-3.16-1-4.71-3.36-6.33A52.22,52.22,0,0,1,4.37,480.06,26.81,26.81,0,0,1,1.9,463.65a7.63,7.63,0,0,1,5.24-6.12c1.84-.68,1.72-1.42.89-2.89-4.76-8.36-7.14-17.23-6.28-27,.7-7.89,5.43-14.53,12.36-16.15,4.37-1,8.28.58,11.91,2.7a83.93,83.93,0,0,1,8.9,6.05c2.85,2.2,5.46,4.71,8.38,7.25a102.25,102.25,0,0,1,22.8-23.72c-5.71-2.55-11.06-5-16.2-7.8C34.17,387.31,20.37,376.45,11,360.85A76.37,76.37,0,0,1,.17,315.72,50.81,50.81,0,0,1,4,298.2c2.53-5.72,3.24-11.69,3.62-17.8a208.25,208.25,0,0,1,4-28.22c-6.58-.75-8.07-2.49-9.22-11.24A164,164,0,0,1,1.9,203.3a137.68,137.68,0,0,1,22.34-63.13c21.63-32.71,51.29-54.94,88.6-67,.74-.24,1.48-.45,2.22-.64,3.23-.86,5.62-1.69,6.37-6.09,1.16-6.8,7-9.2,13.31-10.2.48-.07,1-.07,1.68-.12a57,57,0,0,1-6.6-18c-2.95-17.14,4.66-31.67,21-35.58,9.12-2.18,18-.45,26.52,2.84,10,3.81,18.54,9.93,27,16.8,0-10.36,3-18.65,13.59-22.23h10c30.43,13.9,46.37,39.07,54.54,70.25a66.6,66.6,0,0,1,1.87,10.58,5.48,5.48,0,0,0,2.76,4.37c18.38,12.28,33.7,27.46,44.18,47.15,7.56,14.21,12.66,29.24,14.19,45.27.36,3.73,1.69,5.3,4.87,6.27a23.08,23.08,0,0,1,10.41,7.18c1.36,1.53,2.33,2.26,3.23-.35a13.36,13.36,0,0,1,1.73-2.67c.87.95,0,1.71-.46,2.26-1.4,1.66-1.41,3.07,0,4.84,1.51,1.95,4,2.92,5.07,5.22A4.09,4.09,0,0,0,371.15,202.76Zm-14.22,4.1a3.82,3.82,0,0,0,4.18.16c-5.34-6.41-11.74-11.09-18.49-15.43a119.25,119.25,0,0,0-33-14.47,147.26,147.26,0,0,0-21.08-4.07,201.2,201.2,0,0,0-20.9-2c-12.47-.23-24.94-.27-37.41.93-9.7.94-19.34,2.14-28.85,4-7.18,1.42-14.29,3.33-21.37,5.34a311.84,311.84,0,0,0-31.85,11.29q-17.53,7.13-34.35,15.87c-7,3.67-14,7.4-21,11.1a36.7,36.7,0,0,0,9.33,1.12c11-.24,21.95-.68,32.85-2.54,7.08-1.2,14.15-2.46,21.12-4.11,7.79-1.85,15.48-4.11,23.07-6.69,8.86-3,17.68-6.12,26.58-9,7.9-2.57,15.8-5.19,23.84-7.27a197.87,197.87,0,0,1,25-5.1c7.06-.87,14.09-1.94,21.2-2a145.74,145.74,0,0,1,31,3.22,167.49,167.49,0,0,1,21,5.63C338,196.52,347.5,201.63,356.93,206.86Zm-5.29,11.88c.4-.17,1-.17,1-.85s-.49-.79-.91-1l-6-3.35c-.82-.46-1.49-.61-1.31,1.12.45,1.48,1,3.33,1.6,5.14.23.64,1,.62,1.55.45C349,219.8,350.3,219.28,351.64,218.74ZM350,351.68c10.8-19.43,12-38.92-1.12-58a12.83,12.83,0,0,1-2.51-6.74q-.58-12.85-2.43-25.58c-2.25-15.3-5.24-30.43-10-45.17-.83-2.38-1.67-4.76-2.48-7.14a6.39,6.39,0,0,0-4-3.9c-23.55-9.56-48-11.64-72.92-8.06-15.44,2.23-30.32,6.95-45,12.08-18.32,6.39-36.74,12.38-55.58,16.64a260.82,260.82,0,0,1-32.24,5.33c-15.13,1.48-30.19,1.25-45.13-1.8a6.07,6.07,0,0,0-3.7.14c-15.35,6.14-30.92,11.69-46.48,17.27a3.44,3.44,0,0,0-2.39,2.84,197.37,197.37,0,0,0-5.71,38.06,27,27,0,0,1-2.07,9.91C9,313.17,9.11,329.07,14.86,345c5.26,14.63,15.44,25.29,27.94,34,14,9.77,29.59,16.35,45.74,21.65,15.94,5.22,32.35,8.47,48.88,11.1a352.32,352.32,0,0,0,41.88,4.08,25.83,25.83,0,0,1,13.9,4.6c4.21,2.85,7.81,6.43,11.78,9.56,3.36,3.35,6.78,6.64,10,10.09,1.13,1.19,1.51.75,2.31-.27,2.92-3.73,5.94-7.37,8.92-11,2.81-2.7,5.52-5.51,8.44-8.09s5.57-5.2,9.34-6.37c4.45-1.37,8.88-2.81,13.47-3.74s4.48-1,4.21-5.79h0c1.25-7.87,4.56-14.06,13.15-15.91-.83-1.74-1.63-3.3-2.33-4.9-2.21-5-3.75-10.19-3.57-15.78.37-11.6,9.77-17.77,20.43-13.37,4.86,2,8.85,5.28,12.6,8.84a125.35,125.35,0,0,1,15.14,17.39c.73,1,1.22,2,2.92.89C332.09,373.89,342.86,364.48,350,351.68Zm-11.89,98.56c1.93-10-.82-19.17-5.51-27.78-7.66-14.06-17.35-26.77-27.08-39.43-5.06-6.58-10.57-12.79-17.63-17.34-2-1.29-4.26-2.91-6.73-1.29s-1.8,4.47-1.92,6.94c0,.1.06.19.07.29,1.19,8.53,5.89,15.09,11.8,21,1.24,1.24,2.54,2.43,3.67,3.76a3.6,3.6,0,0,1,.05,5c-1.36,1.56-2.92,1-4.48.1a25.13,25.13,0,0,0-8.61-3.41c-3.37-.52-6.23.39-8.28,3.12s-1.87,5.61-.48,8.55a9.11,9.11,0,0,0,2.55,3.16c2,1.67,4.11,3.28,6.1,5,1.36,1.17,2.13,2.73,1.22,4.42-1,1.85-2.74,1.51-4.38.92a21.27,21.27,0,0,1-2.4-1.05c-2-1-3.3-.31-4.21,1.64a5.81,5.81,0,0,0-.22,4c2.23,9.54,7.42,17.43,13.72,24.71,5.27,6.85,11.38,12.78,19.25,16.56,12,5.76,26.28.46,30.68-11.25A20.58,20.58,0,0,0,338.08,450.24ZM334,175.86a9.81,9.81,0,0,0,0-2c-2-8.25-3.62-16.57-6.76-24.56-8.23-20.95-21.81-37.5-40-50.47-1.39-1-2.31-1-2.29,1a55.48,55.48,0,0,1-1.2,10.42,83.15,83.15,0,0,1-11.17,29.05c-4.51,7.46-9.83,14.3-16.95,19.78C282.61,160.45,309,164.43,334,175.86ZM287.17,495.91c0-1.13-.56-1.89-1.53-1.34-1.94,1.09-4.18.64-6.15,1.41a3.74,3.74,0,0,0-.51.22c-5.4.55-10.74,1.73-16.21,1.72l-15.76,0c-1,0-2.17-.3-2.11,1.47.23,5.83-.14,11.68.71,17.49.36,2.53,1.47,3.51,4.22,3.52a133.76,133.76,0,0,0,30.22-3.74c2.27.36,4.09-1.57,6.4-1.24.66.1.69-.81.69-1.38C287.16,508,287.14,501.94,287.17,495.91Zm-.69,30.46c.11-.92-.44-1.78-1.3-1.39-2.94,1.35-6.42.38-9.18,2.3a26.46,26.46,0,0,0-4.37.1,141.52,141.52,0,0,1-23.53,1.78c-7.5.11-11.45-4.95-11.38-11.29.05-4.77-.19-9.54-.32-14.31-.25-10.12-.57-20.25-.74-30.38a4.29,4.29,0,0,1,4.62-4.49c11.38.25,22.73,0,33.9-2.53a19,19,0,0,1,4.43-1.07c3.05-.3,3.45-1.43,1.57-3.76s-4.5-4.5-6.28-7.17a2.32,2.32,0,0,0-1.22-.7c-3.51-1-7.14-1.49-10.7-2.25-6-1.28-12-2.89-18-4.37-.89-.23-1.66-.65-2.41.08-1.69,1.63-3.83,2.85-4.91,5.08-.48.32-.93.67-1.43.94-1.73.94-3.6,1.28-5.17,0s-1.59-3-.49-4.93c1.9-3.28,4.72-5.77,7.06-8.66,2.21-2.71,5.25-4.12,8.78-3.26,4.95,1.21,9.84,2.7,14.75,4.07l5.74,1.71c-3.15-6.49-5.41-12.73-4.63-19.64.13-1.15-.46-1.65-1.58-1.36a53.71,53.71,0,0,0-7.9,2.23c-2.79,1.22-6.12,1.56-8.11,4.32-1.36.14-2.26,1.07-3.22,1.88-6.49,5.44-11.3,12.33-16.42,19a2.67,2.67,0,0,0-.5,2.12c.77,7.75,1.49,15.5,1.53,23.32.06,16.39,0,32.77-1.86,49.07-.52,4.54-.47,9.14-1.6,13.61-.3,1.22-.6,2.78,1.72,2.79A241.82,241.82,0,0,0,260.3,536c4.71-.72,9.27-2,13.9-3,3.56-1.12,7.09-2.32,10.67-3.34C286.79,529.11,286.33,527.63,286.48,526.37Zm-.43-42.93a43.73,43.73,0,0,0-1.12-8.92c-.21-1.07-.93-1.51-1.58-1-2,1.49-4.79.53-6.71,2.19a25.63,25.63,0,0,0-3.51.11,129.65,129.65,0,0,1-26.75,2c-1.61-.06-1.79.61-1.74,1.86.09,2.34.23,4.68.17,7,0,1.52.51,1.89,2,2.07,7.61.93,15.2.26,22.78-.26a78,78,0,0,0,9.36-1.72c1.53-.18,3.07-.38,4.61-.54C285.26,486.07,286,485.36,286.05,483.44ZM272.88,109.36c2.87-13.27,2-26.62-1.28-39.68a95.17,95.17,0,0,0-17.71-36.21c-7.42-9.4-15.54-18.08-27.28-22.35-6.11-2.22-10.59.71-11,7.23-.49,8.52,2.52,16.18,5.3,23.94.74,2.06,2.43,4.74-.07,6.4s-4.32-.59-6-2.19c-11.12-10.49-22-21.33-35.6-28.64-8.21-4.41-16.89-6.94-26.33-4.94-5.46,1.15-12.26,7-12.24,14.08a7.21,7.21,0,0,0-1,5.58c1,5.68,2.35,11.28,5.22,16.4a63.92,63.92,0,0,0,12.2,16c1.11,1,1.69,2.29,1,3.63a2.37,2.37,0,0,1-2.88,1.45,59.45,59.45,0,0,0-7.64-1.65c-3.56-.76-7.09-2-10.87-1.68-2.82.24-5,1.71-5.42,3.88-.66,3.44,2.21,3.77,4.1,4.09,5.71,1,11.33,2.24,16.94,3.72A153.07,153.07,0,0,1,171.05,85a139.58,139.58,0,0,1,30.78,17.29A117,117,0,0,1,223.74,124c4.74,6,8.75,12.57,13,18.93,1.6,3.35,3.19,6.7,4.8,10,.61,1.27,1.31,1.71,2.62.56,2.11-1.84,4.49-3.37,6.57-5.23C262.44,137.79,269.58,124.57,272.88,109.36Zm-3.36,476.56c0-.27,0-.54,0-.81-7.63-1.7-15.28-3.34-22.89-5.15-5.93-1.4-8.76-1.38-10.29-8.68-.17-.8-.11-2.1-1.38-1.77-3.09.79-6.35.9-9.31,2.23-1,.44-.66,1.35-.59,2,.28,2.6-1,4.51-2.73,6.12-1.46,1.34-3.09,2.5-5.08,4.09l30.25,5.31c-.52-3.89.64-5.12,4.26-4.39C257.66,586.1,263.59,585.86,269.52,585.92ZM198.35,563.6c22.87-1.57,45.47-4.12,65-17.67-61.36,8.78-122,7-182.12-12.21a91.63,91.63,0,0,0,10.32,8.8c11.76,8.41,25,13.33,39,16.3,12.48,2.65,25.06,4.67,37.87,4.78,1,.66,2.06.45,3.11.46,6.9.05,13.81.1,20.71.06,2,0,4.08.3,6-.51h0ZM233,160.19a144.41,144.41,0,0,0-11.15-20.56,116.06,116.06,0,0,0-30.63-31.57,135.36,135.36,0,0,0-31.74-16.35,114.35,114.35,0,0,0-24.66-6.37c-3.11-1.39-7-.4-9.68-3.16-1-1-1.89-.89-3.3-.53-4,1-7.76,2.64-11.69,3.76a95.18,95.18,0,0,0-18.45,7.82A165.17,165.17,0,0,0,64.92,111a166.89,166.89,0,0,0-23.4,23.24,127,127,0,0,0-14.2,21.65,118.11,118.11,0,0,0-13.48,39.23c-.94,6.14-2.27,12.2-2.06,18.45.26,7.56-.63,15.16,1,22.7.75,3.44.45,3.58,3.75,2.39,9.43-3.43,18.91-6.72,28.3-10.25,5.82-2.19,11.76-4.1,17.34-6.9,6.12-1.87,11.7-5,17.42-7.76,19.73-9.55,38.65-20.71,58.88-29.26a332.61,332.61,0,0,1,33-12.3c7.59-2.3,15.2-4.46,23-6.15,6-1.3,11.94-2.46,18-3.21C219.3,162,226.09,161.1,233,160.19ZM216.16,484.41c.06-9.83,0-19.69-1.52-29.46a5.21,5.21,0,0,0-1.63-3.47c-4.27-4-8.38-8.07-12.71-12-2.92-2.62-6.12-4.95-9.19-7.41-3.67-4.43-8.57-6-14.12-6.17-8.24-.27-16.49-.29-24.66-1.66-3.13-.52-6.34-.27-9.5-1.09-2.5-.65-5.23-.35-8.74-.52a32,32,0,0,1,6.06,8.38c2.68,4.58,5.38,9.14,8,13.74.84,1.49,1.47,2,3.35,1.09a244.57,244.57,0,0,1,28.1-10.75,12.65,12.65,0,0,1,5-.69,10.77,10.77,0,0,1,5.67,2.27,86.23,86.23,0,0,1,8.12,6.5c4.16,4,8.57,8,8.91,14.47.29,5.64,1,11.26,1.19,16.91a393.43,393.43,0,0,1-2.92,62.7c-.21,1.7,0,2.94,1.86,2.67,1.68-.25,4.38,1.51,4.79-2,.49-4.15.89-8.32,1.4-12.45A351.12,351.12,0,0,0,216.16,484.41ZM201,492.75A298.91,298.91,0,0,0,199.32,458a5.72,5.72,0,0,0-1.82-3.51,35.61,35.61,0,0,0-8.78-6.9c-1.71-1.87-3.72-3-6.29-2.12-6.62,2.23-13.24,4.44-19.8,6.83-3.86,1.4-7.6,3.11-11.39,4.68-2.25-.13-4.69.72-6.59-1.29a35.64,35.64,0,0,1-5.16-6.18c-4.26-7.3-8.63-14.54-13-21.8-1.11-1.77-2.62-3.41-3.23-5.34a3.92,3.92,0,0,0-3.62-2.8c-3.82-.58-7.54-1.49-11.3-2.36-8.15-1.88-16.14-4.28-24.11-6.8-2.66-.84-5.46-2.91-8.41-.3-1.79,1.59-3.89,2.83-5.69,4.41-10.59,9.29-20.06,19.53-26.54,32.2-3.05,6-5.08,12.37-7.17,18.73-.66,2-.69,3.9,2.06,4.79a46.54,46.54,0,0,1,6.15,3,150.86,150.86,0,0,0,20.69,6.6c9.29,2.35,18.71,3.36,28.21,4.08,1.75.14,2.37-.37,2.88-2.23.58-2.15,1-4.34,1.53-6.49,1.51-5.89,2.6-11.9,4.17-17.78,1-3.79,1.34-7.8,3.37-11.32a3.89,3.89,0,0,1,4.66-2,4.18,4.18,0,0,1,3.44,3.46,13.35,13.35,0,0,1-.26,5.21,161.36,161.36,0,0,0-3.31,15.84c-1.41,2.86-1.57,6-2.37,9-2,7.68-3.18,15.58-5.73,23.12-1.56,4.6-2.33,9.83-8.08,11.62-.71.22-1.33,1.15-1.73,1.9-1.46,2.67-2.83,5.39-4.18,8.13-.46.93-.67,2.08.72,2.29,4.4.67,8.41,2.69,12.73,3.59,2.88.8,5.73,1.77,8.65,2.37,8.73,1.81,17.43,3.67,26.24,5.11,7.49,1.22,15,2.29,22.54,2.95,10.76.94,21.58,1.77,32.43,1.4,6.45-.21,6.46-.05,6.93-6.62,0-.29,0-.58.08-.87A353.6,353.6,0,0,0,201,492.75Zm-55.3,91.73-2.56-1.05c-5.25-2.29-7.69-5.41-6.88-10.14.44-2.56-.83-3.08-2.45-3.55-2.23-.63-4.59-.81-6.79-1.51-2.72-.86-2.9.15-2.46,2.46.85,4.5-1.24,8.17-5.62,9.54-3.13,1-6.43,1.39-9.65,2.11A40.43,40.43,0,0,0,96.63,587c1.69,0,2.65,0,3.61,0,5.47.22,10.8-1.47,16.29-1.23,1.79.08,3.13.51,3.09,2.57,0,1.51.85,1.14,1.71,1A148.08,148.08,0,0,0,145.68,584.48ZM93.11,494.87c.37-1.33.06-2-1.45-2.08-3.31-.19-6.61-.47-9.91-.74a128.35,128.35,0,0,1-27.38-5.37c-4.06-1.23-8.06-2.66-12.08-4-2-1.69-4.77-1.78-7-3s-3-.32-3.46,1.71c-1.2,5.82-.6,7,4.68,9.69,1.35.68,2.66,1.42,4,2.14.87.42,1.73.88,2.61,1.28a92.24,92.24,0,0,0,24.33,7.3,184.12,184.12,0,0,0,20.28,2.11,3.28,3.28,0,0,0,3.57-2.32C92.05,499.39,92.49,497.1,93.11,494.87ZM81.52,513.29a98.88,98.88,0,0,1-19.1-2A107.47,107.47,0,0,1,44,505.79l-8.49-4.22c-1,7,0,13,3.37,17,9.42,11.34,27.36,14.93,39.12-.2A15.69,15.69,0,0,0,81.52,513.29Zm-44-75.69c.34-.61.64-1.11-.09-1.73-5.78-4.89-11-10.47-18.16-13.54-2.86-1.23-4.85-.4-6.25,2.4a10.57,10.57,0,0,0-1.24,4.16c-.92,13.71,5.61,23.92,15.49,33.16A103,103,0,0,1,37.49,437.6ZM22.81,475.42a3.71,3.71,0,0,0-.7-3.18c-1.81-2.94-4.91-3.65-7.61-5.1-2-1.07-2.64-.19-2.72,1.68a11.45,11.45,0,0,0,.59,4.6A29.72,29.72,0,0,0,21,485.57,61.43,61.43,0,0,1,22.81,475.42Z"/><path class="cls-8" d="M370.74,199.78a.7.7,0,0,1,.27.47,2.36,2.36,0,0,1-.69.12Z"/><path class="cls-6" d="M370.74,199.78l-.42.59c-1.1-2.3-3.56-3.27-5.07-5.22-1.37-1.77-1.36-3.18,0-4.84.47-.55,1.33-1.31.46-2.26,1.56.78.5,1.76.13,2.59-1.11,2.51-.83,3.94,1.31,5.49,1.09.79,2.32,1.35,2.43,3C369.64,199.39,370.34,199.42,370.74,199.78Z"/><path class="cls-8" d="M368.5,221.58a5.66,5.66,0,0,1-.42.43c0,.06-.09.11-.13.16a1.64,1.64,0,0,1-.44-.6Z"/><path class="cls-6" d="M367.51,221.57a1.64,1.64,0,0,0,.44.6c-2.72,3.4-6.41,5.07-10.62,5.77,2.41-1.14,4.81-2.29,7.22-3.41A8.23,8.23,0,0,0,367.51,221.57Z"/><path class="cls-17" d="M361.11,207a3.82,3.82,0,0,1-4.18-.16c-9.43-5.23-18.95-10.34-29.16-13.94a167.49,167.49,0,0,0-21-5.63,145.74,145.74,0,0,0-31-3.22c-7.11,0-14.14,1.1-21.2,2a197.87,197.87,0,0,0-25,5.1c-8,2.08-15.94,4.7-23.84,7.27-8.9,2.89-17.72,6-26.58,9-7.59,2.58-15.28,4.84-23.07,6.69-7,1.65-14,2.91-21.12,4.11-10.9,1.86-21.86,2.3-32.85,2.54a36.7,36.7,0,0,1-9.33-1.12c7-3.7,14-7.43,21-11.1q16.78-8.78,34.35-15.87A311.84,311.84,0,0,1,180,181.38c7.08-2,14.19-3.92,21.37-5.34,9.51-1.88,19.15-3.08,28.85-4,12.47-1.2,24.94-1.16,37.41-.93a201.2,201.2,0,0,1,20.9,2,147.26,147.26,0,0,1,21.08,4.07,119.25,119.25,0,0,1,33,14.47C349.37,195.93,355.77,200.61,361.11,207Z"/><path class="cls-18" d="M352.65,217.89c0,.68-.61.68-1,.85-1.34.54-2.69,1.06-4.06,1.49-.54.17-1.32.19-1.55-.45-.64-1.81-1.15-3.66-1.6-5.14-.18-1.73.49-1.58,1.31-1.12l6,3.35C352.16,217.1,352.64,217.31,352.65,217.89Z"/><path class="cls-19" d="M348.85,293.68c13.15,19.08,11.92,38.57,1.12,58-7.11,12.8-17.88,22.21-29.93,30.27-1.7,1.14-2.19.1-2.92-.89A125.35,125.35,0,0,0,302,363.67c-3.75-3.56-7.74-6.83-12.6-8.84-10.66-4.4-20.06,1.77-20.43,13.37-.18,5.59,1.36,10.76,3.57,15.78.7,1.6,1.5,3.16,2.33,4.9-8.59,1.85-11.9,8-13.15,15.91a3.19,3.19,0,0,0-2.8-.51c-5.59,1.24-11.3,1.65-16.94,2.51a216.6,216.6,0,0,1-28.37,2.59c-19.73.38-39.47.28-59.09-2.71-8.7-1.33-17.44-2.44-26.09-4.12a270.63,270.63,0,0,1-33.66-9.21,142.48,142.48,0,0,1-31.17-14.27c-12.34-7.75-22.73-17.63-30.15-30.31-7.17-12.28-9.82-25.5-7.19-39.54,1.7-9,3.86-18,4.24-27.24.32-7.9,1.88-15.59,3.16-23.32.5-3,1.06-6.21,5-7.71,11-4.16,22-8.42,33.08-12.29,2.29-.79,4.61-1.94,7.08-1.31,3.44.89,7,.78,10.42.93a187.38,187.38,0,0,0,28.33-.54c2.71-.29,5.42-.28,8.12-.65,6.81-.94,13.62-1.82,20.43-2.77,2.3-.32,4.53-.67,6.07-2.9.9-1.3,2.12-2.81,4.19-1.95l-.08.1a6,6,0,0,0-3.8,2.69c-2.68,4.33-6.79,6.51-11.43,8a49.81,49.81,0,0,1-14.64,2.25c-3.48.05-6.14,2.53-6.07,5.44.06,3.18,2.37,5.1,6.13,5.12a55.17,55.17,0,0,0,16.4-2.38,44.51,44.51,0,0,0,16-8.11c4.46-3.7,5.25-7.24,2.65-11.61h0a.25.25,0,0,1,0-.07,21.28,21.28,0,0,0,3.4-.31c9.2-2.31,18.4-4.59,27.57-7,17.39-4.65,34.56-10.18,52.56-12.31,7.12-.85,14.23-1.79,21.38-2a200,200,0,0,1,29.63,1.57,171.92,171.92,0,0,1,33.68,7.4c3.62,1.17,3.61,1.22,4.07-2,4.78,14.74,7.77,29.87,10,45.17q1.86,12.72,2.43,25.58A12.83,12.83,0,0,0,348.85,293.68Zm-34.68-12.29a35,35,0,0,0-5.67-19.91c-10.17-15.45-28.8-16.83-40.45-3-11,13.07-9.5,35.51,3.23,47a24.09,24.09,0,0,0,33.72-.82C311.36,298.22,314.15,290.34,314.17,281.39ZM306,235.69c1.76-1.9,2.28-4.11,1-6.41a5,5,0,0,0-5.89-2.68c-.94.23-1.88.48-2.8.79a27.4,27.4,0,0,1-13.21,1.19c-3.78-.58-6.56-2.73-9.45-4.87-2.58-1.91-5.88-1.73-7.7.27s-1.74,5.23.32,7.72a16.13,16.13,0,0,0,4.79,3.78c5.49,3,11.42,4.28,18.54,4.5a35.4,35.4,0,0,0,5.19-.47C300.09,238.83,303.56,238.37,306,235.69ZM250.89,341.23c9.38-1.24,13.07-5.51,13.06-15,0-20.22-20.78-37.16-40.54-33.09-19.56,4-36.22,21.55-38.59,41.25-1.27,10.6,2.74,21.38,14.7,26.54a49.77,49.77,0,0,0,17.57,3.73c8.82.43,17.54-.2,25.89-3.23,5-1.8,8.92-4.8,10-10.44C253.65,347.49,252.49,344.33,250.89,341.23Zm-93.22-23c16.52-10.12,20.8-33.3,9.13-49.45a28.55,28.55,0,0,0-44.07-3.3c-10.36,10.58-12.44,28.47-4.72,41.4,5.76,9.64,14.22,14.91,23.25,15.39C148.46,322.24,153.37,320.83,157.67,318.2Zm-30,43a21.4,21.4,0,0,0,4.92-24.81c-4.81-10.21-13.33-14.4-25.7-14.31-3.71-.34-8.43.88-12.91,3.3-15.52,8.4-16.69,28.33-2.25,38.43C102.19,371.11,118.29,369.94,127.65,361.18Z"/><path class="cls-20" d="M332.57,422.46c4.69,8.61,7.44,17.79,5.51,27.78a20.58,20.58,0,0,1-2.82,7.59c-.15-.85.19-2.25-1.52-1.35a16.52,16.52,0,0,0-2.32,1.23c-4.49,3.37-9.78,4-15.1,4.5-6.76.62-12.83-1.77-18.67-4.74-3.78-1.92-8-3.18-11.1-6.28-.29-.29-.9-.79-1.21-.32s0,1.08,0,1.65c-6.3-7.28-11.49-15.17-13.72-24.71a5.81,5.81,0,0,1,.22-4c.91-1.95,2.2-2.62,4.21-1.64a21.27,21.27,0,0,0,2.4,1.05c1.64.59,3.39.93,4.38-.92.91-1.69.14-3.25-1.22-4.42-2-1.71-4.07-3.32-6.1-5a9.11,9.11,0,0,1-2.55-3.16c-1.39-2.94-1.54-5.88.48-8.55s4.91-3.64,8.28-3.12a25.13,25.13,0,0,1,8.61,3.41c1.56.9,3.12,1.46,4.48-.1a3.6,3.6,0,0,0-.05-5c-1.13-1.33-2.43-2.52-3.67-3.76-5.91-5.87-10.61-12.43-11.8-21,0-.1-.07-.19-.07-.29.12-2.47-.6-5.3,1.92-6.94s4.73,0,6.73,1.29c7.06,4.55,12.57,10.76,17.63,17.34C315.22,395.69,324.91,408.4,332.57,422.46Z"/><path class="cls-21" d="M333.74,456.48c1.71-.9,1.37.5,1.52,1.35-.94-1.39-1.82-.4-2.64.13-7.68,5-16.06,6-24.87,4.28-4.06-.77-7.66-2.8-11.33-4.55-3.4-1.61-7-2.91-9.91-5.46-.55-.49-.84,0-1.18.29,0-.57-.25-1.27,0-1.65s.92,0,1.21.32c3.13,3.1,7.32,4.36,11.1,6.28,5.84,3,11.91,5.36,18.67,4.74,5.32-.48,10.61-1.13,15.1-4.5A16.52,16.52,0,0,1,333.74,456.48Z"/><path class="cls-21" d="M332.62,458c.82-.53,1.7-1.52,2.64-.13-4.4,11.71-18.68,17-30.68,11.25-7.87-3.78-14-9.71-19.25-16.56.34-.32.63-.78,1.18-.29,2.9,2.55,6.51,3.85,9.91,5.46,3.67,1.75,7.27,3.78,11.33,4.55C316.56,463.93,324.94,462.94,332.62,458Z"/><path class="cls-22" d="M333.94,173.87a9.81,9.81,0,0,1,0,2c-25-11.43-51.35-15.41-78.4-16.76,7.12-5.48,12.44-12.32,16.95-19.78a83.15,83.15,0,0,0,11.17-29,55.48,55.48,0,0,0,1.2-10.42c0-2,.9-2,2.29-1,18.2,13,31.78,29.52,40,50.47C330.32,157.3,331.92,165.62,333.94,173.87Z"/><path class="cls-23" d="M333.89,216.19c-.46,3.22-.45,3.17-4.07,2a171.92,171.92,0,0,0-33.68-7.4,200,200,0,0,0-29.63-1.57c-7.15.24-14.26,1.18-21.38,2-18,2.13-35.17,7.66-52.56,12.31-9.17,2.45-18.37,4.73-27.57,7a21.28,21.28,0,0,1-3.4.31,1.31,1.31,0,0,1,.34-.41c3.35-1.06,6.8-1.75,10.21-2.55,15.78-3.68,31.25-8.51,46.93-12.52a235.08,235.08,0,0,1,41.55-6.62c21.15-1.52,41.84,1,62.28,6.26a36.12,36.12,0,0,1,6.12,2C330.89,217.9,332.58,218.24,333.89,216.19Z"/><path class="cls-23" d="M331.41,209.05c.81,2.38,1.65,4.76,2.48,7.14-1.31,2.05-3,1.71-4.86.86a36.12,36.12,0,0,0-6.12-2c-20.44-5.26-41.13-7.78-62.28-6.26a235.08,235.08,0,0,0-41.55,6.62c-15.68,4-31.15,8.84-46.93,12.52-3.41.8-6.86,1.49-10.21,2.55a1.31,1.31,0,0,0-.34.41h-.08a7.78,7.78,0,0,0-5-1.4l-.12-.05c.07-.08.14-.15.2-.23a2.59,2.59,0,0,0-2.09-.6l-.63-2.83c18.84-4.26,37.26-10.25,55.58-16.64,14.7-5.13,29.58-9.85,45-12.08,24.94-3.58,49.37-1.5,72.92,8.06A6.39,6.39,0,0,1,331.41,209.05Z"/><path class="cls-24" d="M308.5,261.48a35,35,0,0,1,5.67,19.91c0,8.95-2.81,16.83-9.17,23.25a24.09,24.09,0,0,1-33.72.82c-12.73-11.5-14.27-33.94-3.23-47C279.7,244.65,298.33,246,308.5,261.48Zm-9,10.38c.06-4.7-2.59-8.1-6.39-8.21s-7,3.25-7.1,7.65,3.06,8.11,7.05,8.1C296.68,279.4,299.44,276.16,299.5,271.86Z"/><path class="cls-25" d="M307,229.28c1.32,2.3.8,4.51-1,6.41-2.48,2.68-6,3.14-9.25,3.82a35.4,35.4,0,0,1-5.19.47c-7.12-.22-13.05-1.51-18.54-4.5a16.13,16.13,0,0,1-4.79-3.78c-2.06-2.49-2.2-5.66-.32-7.72s5.12-2.18,7.7-.27c2.89,2.14,5.67,4.29,9.45,4.87a27.4,27.4,0,0,0,13.21-1.19c.92-.31,1.86-.56,2.8-.79A5,5,0,0,1,307,229.28Z"/><path class="cls-26" d="M293.11,263.65c3.8.11,6.45,3.51,6.39,8.21-.06,4.3-2.82,7.54-6.44,7.54-4,0-7.17-3.65-7.05-8.1S289.24,263.53,293.11,263.65Z"/><path class="cls-27" d="M279.49,496c2-.77,4.21-.32,6.15-1.41,1-.55,1.54.21,1.53,1.34,0,6,0,12.06,0,18.09,0,.57,0,1.48-.69,1.38-2.31-.33-4.13,1.6-6.4,1.24-.63-.56-.5-1.14-.48-2,.16-5.74,1.7-11.42.78-17.24-.18-1.15-.56-1.2-1.37-1.21A3.74,3.74,0,0,1,279.49,496Z"/><path class="cls-27" d="M276,527.28c2.76-1.92,6.24-.95,9.18-2.3.86-.39,1.41.47,1.3,1.39-.15,1.26.31,2.74-1.61,3.28-3.58,1-7.11,2.22-10.67,3.34C271.77,531.16,272.35,529.3,276,527.28Z"/><path class="cls-27" d="M284.93,474.52a43.73,43.73,0,0,1,1.12,8.92c0,1.92-.79,2.63-2.5,2.8-1.54.16-3.08.36-4.61.54a57.71,57.71,0,0,0-2.3-11.11c1.92-1.66,4.68-.7,6.71-2.19C284,473,284.72,473.45,284.93,474.52Z"/><path class="cls-22" d="M280.35,497.41c.92,5.82-.62,11.5-.78,17.24,0,.83-.15,1.41.48,2a133.76,133.76,0,0,1-30.22,3.74c-2.75,0-3.86-1-4.22-3.52-.85-5.81-.48-11.66-.71-17.49-.06-1.77,1.06-1.47,2.11-1.47l15.76,0c5.47,0,10.81-1.17,16.21-1.72C279.79,496.21,280.17,496.26,280.35,497.41Z"/><path class="cls-27" d="M236.71,452c1.08-2.23,3.22-3.45,4.91-5.08.75-.73,1.52-.31,2.41-.08,6,1.48,11.92,3.09,18,4.37,3.56.76,7.19,1.24,10.7,2.25a2.32,2.32,0,0,1,1.22.7c1.78,2.67,4.29,4.69,6.28,7.17s1.48,3.46-1.57,3.76a19,19,0,0,0-4.43,1.07,17,17,0,0,0-7.66-8.27c-1.87-1-3.75-.75-5.57-1.35-5.53-1.81-11.17-3.24-16.71-5-1.72-.55-2.71.22-4,.95S237.55,454.69,236.71,452Z"/><path class="cls-22" d="M276.64,475.67a57.71,57.71,0,0,1,2.3,11.11,78,78,0,0,1-9.36,1.72c-7.58.52-15.17,1.19-22.78.26-1.48-.18-2-.55-2-2.07.06-2.34-.08-4.68-.17-7,0-1.25.13-1.92,1.74-1.86a129.65,129.65,0,0,0,26.75-2A25.63,25.63,0,0,1,276.64,475.67Z"/><path class="cls-22" d="M271.63,527.38a26.46,26.46,0,0,1,4.37-.1c-3.65,2-4.23,3.88-1.8,5.71-4.63,1-9.19,2.24-13.9,3a241.82,241.82,0,0,1-36.92,3.21c-2.32,0-2-1.57-1.72-2.79,1.13-4.47,1.08-9.07,1.6-13.61,1.89-16.3,1.92-32.68,1.86-49.07,0-7.82-.76-15.57-1.53-23.32a2.67,2.67,0,0,1,.5-2.12c5.12-6.63,9.93-13.52,16.42-19,1-.81,1.86-1.74,3.22-1.88.19.34.41.72.86.6,2.28-.64,4.61-.28,6.91-.33,3.95-.09,5.31,1,6.36,4.74.74,2.59,1.56,5.15,2.35,7.73-4.91-1.37-9.8-2.86-14.75-4.07-3.53-.86-6.57.55-8.78,3.26-2.34,2.89-5.16,5.38-7.06,8.66-1.1,1.9-1.15,3.59.49,4.93s3.44.95,5.17,0c.5-.27.95-.62,1.43-.94.84,2.69,2.38,1.12,3.54.46s2.27-1.5,4-.95c5.54,1.79,11.18,3.22,16.71,5,1.82.6,3.7.34,5.57,1.35a17,17,0,0,1,7.66,8.27c-11.17,2.56-22.52,2.78-33.9,2.53a4.29,4.29,0,0,0-4.62,4.49c.17,10.13.49,20.26.74,30.38.13,4.77.37,9.54.32,14.31-.07,6.34,3.88,11.4,11.38,11.29A141.52,141.52,0,0,0,271.63,527.38Z"/><path class="cls-17" d="M271.6,69.68c3.25,13.06,4.15,26.41,1.28,39.68-3.3,15.21-10.44,28.43-22.13,39-2.08,1.86-4.46,3.39-6.57,5.23-1.31,1.15-2,.71-2.62-.56-1.61-3.35-3.2-6.7-4.8-10,1.15-3-1.11-5.34-2-7.77-4.74-13.08-13.06-23.91-22.49-33.94a161.08,161.08,0,0,0-16-14.9c-10-8.1-20.16-16.09-30-24.39a92.82,92.82,0,0,1-16.4-17.26c-3.62-5.17-6.69-10.68-8.08-17-.13-.59-.58-.71-1.1-.72,0-7,6.78-12.93,12.24-14.08,9.44-2,18.12.53,26.33,4.94,13.64,7.31,24.48,18.15,35.6,28.64,1.7,1.6,3.64,3.78,6,2.19s.81-4.34.07-6.4c-2.78-7.76-5.79-15.42-5.3-23.94.38-6.52,4.86-9.45,11-7.23,11.74,4.27,19.86,13,27.28,22.35A95.17,95.17,0,0,1,271.6,69.68Z"/><path class="cls-28" d="M269.54,585.11c0,.27,0,.54,0,.81-5.93-.06-11.86.18-17.74-1-3.62-.73-4.78.5-4.26,4.39L217.27,584c2-1.59,3.62-2.75,5.08-4.09,1.77-1.61,3-3.52,2.73-6.12-.07-.69-.4-1.6.59-2,3-1.33,6.22-1.44,9.31-2.23,1.27-.33,1.21,1,1.38,1.77,1.53,7.3,4.36,7.28,10.29,8.68C254.26,581.77,261.91,583.41,269.54,585.11Z"/><path class="cls-16" d="M264,326.27c0,9.45-3.68,13.72-13.06,15,1.6,3.1,2.76,6.26,2.09,9.8-1.08,5.64-5,8.64-10,10.44-8.35,3-17.07,3.66-25.89,3.23A49.77,49.77,0,0,1,199.52,361c-12-5.16-16-15.94-14.7-26.54,2.37-19.7,19-37.22,38.59-41.25C243.17,289.11,263.93,306.05,264,326.27Zm-15.84,5.11c5.1,1.78,7.09-.1,7-5.11-.44-14.32-15-28.74-32.74-23.55-13.74,4-22.6,13.65-27.44,26.85A19.84,19.84,0,0,0,196.82,348c1.13,1.71,2.26,2.2,3.94.53a75.24,75.24,0,0,1,7.13-6.48C219.8,333,232.15,325.81,248.11,331.38Zm-5,19.71c.57-2.65-1.3-4.67-3.26-6.07a14.62,14.62,0,0,0-10.73-2.68A38.24,38.24,0,0,0,209.06,352c-.52.45-1.51.93-1.15,1.82s1.24,1,2.12,1.28c4.37,1.34,8.84,1.16,15.5,1.26a41.75,41.75,0,0,0,12-1.33C239.83,354.35,242.56,353.84,243.14,351.09Z"/><path class="cls-23" d="M261.7,404.8c.27,4.8.28,4.88-4.21,5.79s-9,2.37-13.47,3.74c-3.77,1.17-6.51,3.87-9.34,6.37s-5.63,5.39-8.44,8.09A50.2,50.2,0,0,1,205,430c-4-3.13-7.57-6.71-11.78-9.56a25.83,25.83,0,0,0-13.9-4.6,352.32,352.32,0,0,1-41.88-4.08c-16.53-2.63-32.94-5.88-48.88-11.1C72.39,395.38,56.83,388.8,42.8,379c-12.5-8.7-22.68-19.36-27.94-34-5.75-16-5.88-31.87,1.29-47.48a27,27,0,0,0,2.07-9.91,197.37,197.37,0,0,1,5.71-38.06,3.44,3.44,0,0,1,2.39-2.84c15.56-5.58,31.13-11.13,46.48-17.27a6.07,6.07,0,0,1,3.7-.14c14.94,3,30,3.28,45.13,1.8a260.82,260.82,0,0,0,32.24-5.33l.63,2.83a4.77,4.77,0,0,0-2.39,1.76c-1.9,2.19-4.3,2.71-7,3.17a322.87,322.87,0,0,1-33.41,3.69,223.39,223.39,0,0,1-24.55,0c-5.1-.23-10.14-1.54-15.33.38-11.25,4.17-22.57,8.15-33.68,12.71a6.67,6.67,0,0,0-4.37,4.68,151.85,151.85,0,0,0-4.06,24.79c-.67,6.79-.82,13.64-2.56,20.29-2.6,9.93-3.67,20-1.64,30.12,3.34,16.79,13.07,29.59,25.58,40.58,11.24,9.88,24.42,16.43,38.33,21.51a262.09,262.09,0,0,0,49.76,13c15.91,2.48,31.86,4.65,48,4.9,10.72.16,21.44.31,32.18-.38C233.58,409,247.65,407.07,261.7,404.8Z"/><path class="cls-23" d="M261.7,404.79h0c-14,2.27-28.12,4.15-42.35,5.06-10.74.69-21.46.54-32.18.38-16.11-.25-32.06-2.42-48-4.9a262.09,262.09,0,0,1-49.76-13c-13.91-5.08-27.09-11.63-38.33-21.51-12.51-11-22.24-23.79-25.58-40.58-2-10.17-1-20.19,1.64-30.12,1.74-6.65,1.89-13.5,2.56-20.29a151.85,151.85,0,0,1,4.06-24.79,6.67,6.67,0,0,1,4.37-4.68c11.11-4.56,22.43-8.54,33.68-12.71,5.19-1.92,10.23-.61,15.33-.38a223.39,223.39,0,0,0,24.55,0,322.87,322.87,0,0,0,33.41-3.69c2.68-.46,5.08-1,7-3.17a4.77,4.77,0,0,1,2.39-1.76,2.59,2.59,0,0,1,2.09.6c-.06.08-.13.15-.2.23-2.07-.86-3.29.65-4.19,1.95-1.54,2.23-3.77,2.58-6.07,2.9-6.81,1-13.62,1.83-20.43,2.77-2.7.37-5.41.36-8.12.65a187.38,187.38,0,0,1-28.33.54c-3.44-.15-7,0-10.42-.93-2.47-.63-4.79.52-7.08,1.31-11.11,3.87-22.08,8.13-33.08,12.29-4,1.5-4.53,4.68-5,7.71-1.28,7.73-2.84,15.42-3.16,23.32-.38,9.21-2.54,18.2-4.24,27.24-2.63,14,0,27.26,7.19,39.54,7.42,12.68,17.81,22.56,30.15,30.31a142.48,142.48,0,0,0,31.17,14.27,270.63,270.63,0,0,0,33.66,9.21c8.65,1.68,17.39,2.79,26.09,4.12,19.62,3,39.36,3.09,59.09,2.71A216.6,216.6,0,0,0,242,406.79c5.64-.86,11.35-1.27,16.94-2.51A3.19,3.19,0,0,1,261.7,404.79Z"/><path class="cls-27" d="M243.73,427.41c2-2.76,5.32-3.1,8.11-4.32a53.71,53.71,0,0,1,7.9-2.23c1.12-.29,1.71.21,1.58,1.36-.78,6.91,1.48,13.15,4.63,19.64l-5.74-1.71c-.79-2.58-1.61-5.14-2.35-7.73-1.05-3.74-2.41-4.83-6.36-4.74-2.3.05-4.63-.31-6.91.33C244.14,428.13,243.92,427.75,243.73,427.41Z"/><path class="cls-29" d="M255.09,326.27c.11,5-1.88,6.89-7,5.11-16-5.57-28.31,1.64-40.22,10.71a75.24,75.24,0,0,0-7.13,6.48c-1.68,1.67-2.81,1.18-3.94-.53a19.84,19.84,0,0,1-1.91-18.47c4.84-13.2,13.7-22.83,27.44-26.85C240.11,297.53,254.65,312,255.09,326.27Z"/><path class="cls-30" d="M239.88,345c2,1.4,3.83,3.42,3.26,6.07s-3.31,3.26-5.63,3.89a41.75,41.75,0,0,1-12,1.33c-6.66-.1-11.13.08-15.5-1.26-.88-.28-1.79-.46-2.12-1.28s.63-1.37,1.15-1.82a38.24,38.24,0,0,1,20.09-9.61A14.62,14.62,0,0,1,239.88,345Z"/><path class="cls-18" d="M234.77,135.16c.88,2.43,3.14,4.74,2,7.77a86.41,86.41,0,0,0-11.76-25,139.35,139.35,0,0,0-19.7-22.71Q195.57,86.16,185,78C175.71,70.79,166.4,63.53,158,55.25a67.82,67.82,0,0,1-15.74-23c-.7-1.73-.63-3.62-1.56-5.25.52,0,1,.13,1.1.72,1.39,6.27,4.46,11.78,8.08,17a92.82,92.82,0,0,0,16.4,17.26c9.86,8.3,20,16.29,30,24.39a161.08,161.08,0,0,1,16,14.9C221.71,111.25,230,122.08,234.77,135.16Z"/><path class="cls-31" d="M263.39,545.93c-19.57,13.55-42.17,16.1-65,17.67H168.49c-12.81-.11-25.39-2.13-37.87-4.78-14-3-27.27-7.89-39-16.3a91.63,91.63,0,0,1-10.32-8.8C141.42,552.94,202,554.71,263.39,545.93Z"/><path class="cls-18" d="M225,117.94a86.41,86.41,0,0,1,11.76,25c-4.27-6.36-8.28-12.9-13-18.93a117,117,0,0,0-21.91-21.76A139.58,139.58,0,0,0,171.05,85a153.07,153.07,0,0,0-18.73-6.52c-5.61-1.48-11.23-2.73-16.94-3.72-1.89-.32-4.76-.65-4.1-4.09.43-2.17,2.6-3.64,5.42-3.88,3.78-.32,7.31.92,10.87,1.68a59.45,59.45,0,0,1,7.64,1.65,2.37,2.37,0,0,0,2.88-1.45c.66-1.34.08-2.6-1-3.63a63.92,63.92,0,0,1-12.2-16c-2.87-5.12-4.18-10.72-5.22-16.4a7.21,7.21,0,0,1,1-5.58c.93,1.63.86,3.52,1.56,5.25a67.82,67.82,0,0,0,15.74,23C166.4,63.53,175.71,70.79,185,78q10.51,8.16,20.27,17.21A139.35,139.35,0,0,1,225,117.94Z"/><path class="cls-32" d="M226.24,428.79c-1.69,1.72-3.76,2.11-6.12,2.12-3.3,0-6.58.66-9.91.57A8.6,8.6,0,0,1,205,430,50.2,50.2,0,0,0,226.24,428.79Z"/><path class="cls-32" d="M220.12,430.91c2.36,0,4.43-.4,6.12-2.12-3,3.68-6,7.32-8.92,11-.8,1-1.18,1.46-2.31.27-3.25-3.45-6.67-6.74-10-10.09a8.6,8.6,0,0,0,5.23,1.46C213.54,431.57,216.82,430.93,220.12,430.91Z"/><path class="cls-22" d="M62.19,221.55c-1.56-.28-1.48-1.67-1.69-2.72-5.69-28.72-2.12-56,12.17-81.83a118.16,118.16,0,0,1,21.26-28.14c10.1-9.75,21.49-17.78,34.94-22.46a17.08,17.08,0,0,1,6-1.06,114.35,114.35,0,0,1,24.66,6.37,135.36,135.36,0,0,1,31.74,16.35,116.06,116.06,0,0,1,30.63,31.57A144.41,144.41,0,0,1,233,160.19c-6.95.91-13.74,1.85-20.55,2.68-6.06.75-12,1.91-18,3.21-7.76,1.69-15.37,3.85-23,6.15a332.61,332.61,0,0,0-33,12.3c-20.23,8.55-39.15,19.71-58.88,29.26C73.89,216.55,68.31,219.68,62.19,221.55Z"/><path class="cls-22" d="M214.64,455c1.51,9.77,1.58,19.63,1.52,29.46a351.12,351.12,0,0,1-2.56,41.1c-.51,4.13-.91,8.3-1.4,12.45-.41,3.51-3.11,1.75-4.79,2-1.85.27-2.07-1-1.86-2.67a393.43,393.43,0,0,0,2.92-62.7c-.2-5.65-.9-11.27-1.19-16.91-.34-6.48-4.75-10.5-8.91-14.47a86.23,86.23,0,0,0-8.12-6.5,10.77,10.77,0,0,0-5.67-2.27l.13-1.59a23.58,23.58,0,0,1,4.9.83c1.84.51,1.34-.74,1.5-1.57,3.07,2.46,6.27,4.79,9.19,7.41,4.33,3.89,8.44,8,12.71,12A5.21,5.21,0,0,1,214.64,455Z"/><path class="cls-22" d="M151.24,457c4.36,1.09,8.56-.31,12.68-1.2a188.94,188.94,0,0,0,22.4-6.59,6.83,6.83,0,0,0,2.4-1.6,35.61,35.61,0,0,1,8.78,6.9,5.72,5.72,0,0,1,1.82,3.51A298.91,298.91,0,0,1,201,492.75a353.6,353.6,0,0,1-2.7,40c0,.29-.06.58-.08.87-.47,6.57-.48,6.41-6.93,6.62-10.85.37-21.67-.46-32.43-1.4-7.52-.66-15.05-1.73-22.54-2.95-8.81-1.44-17.51-3.3-26.24-5.11-2.92-.6-5.77-1.57-8.65-2.37-1.24-.68-.86-1.85-.81-2.87.34-6.91,1.31-13.75,2.29-20.6,1.66-11.63,4.81-23,7-34.49a6,6,0,0,0,.17-1.74,161.36,161.36,0,0,1,3.31-15.84,13.35,13.35,0,0,0,.26-5.21,4.18,4.18,0,0,0-3.44-3.46,3.89,3.89,0,0,0-4.66,2c-2,3.52-2.36,7.53-3.37,11.32-1.57,5.88-2.66,11.89-4.17,17.78-.55,2.15-1,4.34-1.53,6.49-.51,1.86-1.13,2.37-2.88,2.23-9.5-.72-18.92-1.73-28.21-4.08a150.86,150.86,0,0,1-20.69-6.6,116.13,116.13,0,0,1,12.16-26.07c5.44-8.76,12.45-16.12,20.15-22.88,4.71-4.13,10-6.25,16.23-4.5,8.39,2.33,16.7,4.95,25.14,7.06,2.59.65,5.3,2.2,8.18.86,4.33,7.26,8.7,14.5,13,21.8a35.64,35.64,0,0,0,5.16,6.18C146.55,457.7,149,456.85,151.24,457Zm36.82,20.14c.27-5-2-6.54-7.1-6.35-9.65.36-19.31.73-29-.22-7.75-.77-15.48-1.61-23.23-2.35-4.37-.42-6.61,1.59-6.76,6-.07,2.05,0,4.1-.06,6.15-.56,11.58-1.22,23.17-1.74,34.76-.3,6.85,1.58,9.57,7.58,11.73,1.24.44,2.52.2,3.74.51,11.21,2.84,22.67,3.47,34.49,3.92,3.46-.16,7.25-.39,11.05-.52,5.43-.18,8.74-4.67,9.2-8.9C187.89,507,187.27,492,188.06,477.12Z"/><path class="cls-33" d="M198.22,563.61h.13c-2,.81-4,.5-6,.51-6.9,0-13.81,0-20.71-.06-1,0-2.15.2-3.11-.46,3.85.57,7.73.25,11.59.23C186.13,563.8,192.18,564.17,198.22,563.61Z"/><path class="cls-33" d="M168.49,563.6h29.73c-6,.56-12.09.19-18.14.22C176.22,563.85,172.34,564.17,168.49,563.6Z"/><path class="cls-22" d="M140.15,431.05c-.28-2.31,1.43-1.49,2.43-1.42,4.66.32,9.26,1.26,13.94,1.51,8.24.44,16.44,1.87,24.75.68,2.18-.31,4.46.25,6.69.5a6.46,6.46,0,0,0,3.15-.21c-.16.83.34,2.08-1.5,1.57a23.58,23.58,0,0,0-4.9-.83l-.13,1.59a12.65,12.65,0,0,0-5,.69,244.57,244.57,0,0,0-28.1,10.75c-1.88.88-2.51.4-3.35-1.09C145.53,440.19,142.83,435.63,140.15,431.05Z"/><path class="cls-27" d="M191.11,432.11a6.46,6.46,0,0,1-3.15.21c-2.23-.25-4.51-.81-6.69-.5-8.31,1.19-16.51-.24-24.75-.68-4.68-.25-9.28-1.19-13.94-1.51-1-.07-2.71-.89-2.43,1.42a32,32,0,0,0-6.06-8.38c3.51.17,6.24-.13,8.74.52,3.16.82,6.37.57,9.5,1.09,8.17,1.37,16.42,1.39,24.66,1.66C182.54,426.12,187.44,427.68,191.11,432.11Z"/><path class="cls-34" d="M181,470.77c5.08-.19,7.37,1.34,7.1,6.35-.79,14.9-.17,29.86-1.78,44.72-.46,4.23-3.77,8.72-9.2,8.9-3.8.13-7.59.36-11.05.52-11.82-.45-23.28-1.08-34.49-3.92-1.22-.31-2.5-.07-3.74-.51-6-2.16-7.88-4.88-7.58-11.73.52-11.59,1.18-23.18,1.74-34.76.1-2,0-4.1.06-6.15.15-4.4,2.39-6.41,6.76-6,7.75.74,15.48,1.58,23.23,2.35C161.65,471.5,171.31,471.13,181,470.77Zm-1.7,10.91c.24-1.65-.63-2-2.06-1.87-2.63.21-5.25.36-7.88.45-12.21.44-24.29-1.23-36.38-2.52-1.77-.19-2,.27-2.08,1.66-.14,2.34-.3,4.68-.54,7-.13,1.31.3,1.9,1.64,2.22a111.42,111.42,0,0,0,28.57,3.4c2.64,0,5.28.17,7.9,0,3.1-.25,6.7,0,9.14-1.33,2.87-1.53,1.38-5.66,1.68-8.68C179.26,481.88,179.25,481.78,179.26,481.68Zm-.63,19.93c.23-1.75-.6-1.93-2-1.81-4.65.41-9.3.91-14,1.08a123.08,123.08,0,0,1-30.36-3.12c-2.35-.5-2.32.44-2.36,2.13-.07,3.31-.14,6.63-.5,9.91-.79,7.2-1.22,8.41,7,9.63,10,1.49,19.94,3.09,30.06,3.17h4.68c5.74,0,6.48-.64,7-6.39,0-.48.06-1,.07-1.46C178.31,510.37,178.05,506,178.63,501.61Z"/><path class="cls-27" d="M188.72,447.59a6.83,6.83,0,0,1-2.4,1.6,188.94,188.94,0,0,1-22.4,6.59c-4.12.89-8.32,2.29-12.68,1.2,3.79-1.57,7.53-3.28,11.39-4.68,6.56-2.39,13.18-4.6,19.8-6.83C185,444.61,187,445.72,188.72,447.59Z"/><path class="cls-22" d="M177.2,479.81c1.43-.11,2.3.22,2.06,1.87,0,.1,0,.2,0,.29-.3,3,1.19,7.15-1.68,8.68-2.44,1.3-6,1.08-9.14,1.33-2.62.21-5.26,0-7.9,0a111.42,111.42,0,0,1-28.57-3.4c-1.34-.32-1.77-.91-1.64-2.22.24-2.32.4-4.66.54-7,.08-1.39.31-1.85,2.08-1.66,12.09,1.29,24.17,3,36.38,2.52C172,480.17,174.57,480,177.2,479.81Z"/><path class="cls-22" d="M176.61,499.8c1.42-.12,2.25.06,2,1.81-.58,4.36-.32,8.76-.42,13.14,0,.49,0,1-.07,1.46-.53,5.75-1.27,6.42-7,6.39h-4.68c-10.12-.08-20.06-1.68-30.06-3.17-8.18-1.22-7.75-2.43-7-9.63.36-3.28.43-6.6.5-9.91,0-1.69,0-2.63,2.36-2.13a123.08,123.08,0,0,0,30.36,3.12C167.31,500.71,172,500.21,176.61,499.8Z"/><path class="cls-35" d="M166.8,268.75c11.67,16.15,7.39,39.33-9.13,49.45-4.3,2.63-9.21,4-16.41,4-9-.48-17.49-5.75-23.25-15.39-7.72-12.93-5.64-30.82,4.72-41.4A28.55,28.55,0,0,1,166.8,268.75ZM153.55,287c3.8,0,6.89-3.5,6.88-7.87s-2.93-7.85-6.8-7.9-6.75,3.14-6.82,7.75C146.75,283.32,149.84,287,153.55,287Z"/><path class="cls-25" d="M161.56,231c2.6,4.37,1.81,7.91-2.65,11.61a44.51,44.51,0,0,1-16,8.11,55.17,55.17,0,0,1-16.4,2.38c-3.76,0-6.07-1.94-6.13-5.12-.07-2.91,2.59-5.39,6.07-5.44a49.81,49.81,0,0,0,14.64-2.25c4.64-1.51,8.75-3.69,11.43-8a6,6,0,0,1,3.8-2.69c-5.09,6.05-10.63,11.37-19,12.53-3.47.48-6.88,1.35-10.42,1.23a4.76,4.76,0,0,0-2.81.65c-1.7,1.11-3.2,2.44-2.73,4.72s2.08,3.42,4.39,3.57A44.44,44.44,0,0,0,138.47,251a48.43,48.43,0,0,0,18.66-8c3.71-2.75,6.23-5.94,4.41-10.92A1.4,1.4,0,0,1,161.56,231Z"/><path class="cls-25" d="M161.54,232.09c1.82,5-.7,8.17-4.41,10.92a48.43,48.43,0,0,1-18.66,8,44.44,44.44,0,0,1-12.75,1.26c-2.31-.15-3.91-1.28-4.39-3.57s1-3.61,2.73-4.72a4.76,4.76,0,0,1,2.81-.65c3.54.12,6.95-.75,10.42-1.23,8.39-1.16,13.93-6.48,19-12.53l.2,0a6.6,6.6,0,0,0,5,1.4.21.21,0,0,0,0,.06h0A1.4,1.4,0,0,0,161.54,232.09Z"/><path class="cls-16" d="M161.6,230.91a.25.25,0,0,0,0,.07.21.21,0,0,1,0-.06Z"/><path class="cls-25" d="M161.52,230.92a6.6,6.6,0,0,1-5-1.4A7.78,7.78,0,0,1,161.52,230.92Z"/><path class="cls-36" d="M160.43,279.15c0,4.37-3.08,7.9-6.88,7.87s-6.8-3.7-6.74-8c.07-4.61,2.87-7.8,6.82-7.75S160.43,274.7,160.43,279.15Z"/><path class="cls-16" d="M156.51,229.52l-.2,0,.08-.1Z"/><path class="cls-37" d="M143.12,583.43l2.56,1.05a148.08,148.08,0,0,1-24.35,4.92c-.86.1-1.75.47-1.71-1,0-2.06-1.3-2.49-3.09-2.57-5.49-.24-10.82,1.45-16.29,1.23-1,0-1.92,0-3.61,0a40.43,40.43,0,0,1,12.64-4.67c3.22-.72,6.52-1.13,9.65-2.11,4.38-1.37,6.47-5,5.62-9.54-.44-2.31-.26-3.32,2.46-2.46,2.2.7,4.56.88,6.79,1.51,1.62.47,2.89,1,2.45,3.55C135.43,578,137.87,581.14,143.12,583.43Z"/><path class="cls-27" d="M134.86,85.34a17.08,17.08,0,0,0-6,1.06C115.42,91.08,104,99.11,93.93,108.86A118.16,118.16,0,0,0,72.67,137c-14.29,25.82-17.86,53.11-12.17,81.83.21,1,.13,2.44,1.69,2.72-5.58,2.8-11.52,4.71-17.34,6.9C35.46,232,26,235.27,16.55,238.7c-3.3,1.19-3,1.05-3.75-2.39-1.65-7.54-.76-15.14-1-22.7-.21-6.25,1.12-12.31,2.06-18.45a118.11,118.11,0,0,1,13.48-39.23,127,127,0,0,1,14.2-21.65A166.89,166.89,0,0,1,64.92,111,165.17,165.17,0,0,1,91.74,93.23a95.18,95.18,0,0,1,18.45-7.82c3.93-1.12,7.7-2.74,11.69-3.76,1.41-.36,2.34-.46,3.3.53C127.86,84.94,131.75,84,134.86,85.34Z"/><path class="cls-38" d="M132.57,336.37a21.4,21.4,0,0,1-4.92,24.81c-9.36,8.76-25.46,9.93-35.94,2.61-14.44-10.1-13.27-30,2.25-38.43,4.48-2.42,9.2-3.64,12.91-3.3C119.24,322,127.76,326.16,132.57,336.37Z"/><path class="cls-27" d="M44.67,473.24a46.54,46.54,0,0,0-6.15-3c-2.75-.89-2.72-2.81-2.06-4.79,2.09-6.36,4.12-12.75,7.17-18.73,6.48-12.67,15.95-22.91,26.54-32.2,1.8-1.58,3.9-2.82,5.69-4.41,3-2.61,5.75-.54,8.41.3,8,2.52,16,4.92,24.11,6.8,3.76.87,7.48,1.78,11.3,2.36a3.92,3.92,0,0,1,3.62,2.8c.61,1.93,2.12,3.57,3.23,5.34-2.88,1.34-5.59-.21-8.18-.86-8.44-2.11-16.75-4.73-25.14-7.06-6.27-1.75-11.52.37-16.23,4.5-7.7,6.76-14.71,14.12-20.15,22.88A116.13,116.13,0,0,0,44.67,473.24Z"/><path class="cls-27" d="M110.05,468.66a6,6,0,0,1-.17,1.74c-2.18,11.53-5.33,22.86-7,34.49-1,6.85-2,13.69-2.29,20.6,0,1-.43,2.19.81,2.87-4.32-.9-8.33-2.92-12.73-3.59-1.39-.21-1.18-1.36-.72-2.29,1.35-2.74,2.72-5.46,4.18-8.13.4-.75,1-1.68,1.73-1.9,5.75-1.79,6.52-7,8.08-11.62,2.55-7.54,3.71-15.44,5.73-23.12C108.48,474.7,108.64,471.52,110.05,468.66Z"/><path class="cls-17" d="M91.66,492.79c1.51.08,1.82.75,1.45,2.08-.62,2.23-1.06,4.52-1.81,6.7a3.28,3.28,0,0,1-3.57,2.32,184.12,184.12,0,0,1-20.28-2.11,92.24,92.24,0,0,1-24.33-7.3c-.88-.4-1.74-.86-2.61-1.28a18.91,18.91,0,0,1,.57-9.21c.18-.56.16-1.47,1.21-1.31,4,1.34,8,2.77,12.08,4a128.35,128.35,0,0,0,27.38,5.37C85.05,492.32,88.35,492.6,91.66,492.79Z"/><path class="cls-39" d="M62.42,511.27a98.88,98.88,0,0,0,19.1,2,15.69,15.69,0,0,1-3.5,5.05c-1.52-1.29-2.6.75-4.12.5-12-2-24.32-2.85-32.67-12.8.69.17,1.75,1.42,2.79-.25A107.47,107.47,0,0,0,62.42,511.27Z"/><path class="cls-39" d="M73.9,518.84c1.52.25,2.6-1.79,4.12-.5-2.37,1.86-5,1.08-7.56.72-8.56-1.21-17.08-2.65-24.42-7.59-2.62-1.77-4.71-4.33-7.27-6.75,2.2-.25,3.33,2.15,5.25,1.07-1,1.67-2.1.42-2.79.25C49.58,516,61.93,516.89,73.9,518.84Z"/><path class="cls-40" d="M70.46,519.06c2.58.36,5.19,1.14,7.56-.72-11.76,15.13-29.7,11.54-39.12.2-3.32-4-4.36-10-3.37-17L44,505.79c-1.92,1.08-3.05-1.32-5.25-1.07,2.56,2.42,4.65,5,7.27,6.75C53.38,516.41,61.9,517.85,70.46,519.06Z"/><path class="cls-18" d="M42.29,482.68c-1-.16-1,.75-1.21,1.31a18.91,18.91,0,0,0-.57,9.21c-1.33-.72-2.64-1.46-4-2.14-5.28-2.66-5.88-3.87-4.68-9.69.41-2,1.34-2.88,3.46-1.71S40.24,481,42.29,482.68Z"/><path class="cls-41" d="M37.4,435.87c.73.62.43,1.12.09,1.73a103,103,0,0,0-10.25,24.45c-9.88-9.24-16.41-19.45-15.49-33.16A10.57,10.57,0,0,1,13,424.73c1.4-2.8,3.39-3.63,6.25-2.4C26.36,425.4,31.62,431,37.4,435.87Z"/><path class="cls-42" d="M22.11,472.24a3.71,3.71,0,0,1,.7,3.18A61.43,61.43,0,0,0,21,485.57a29.72,29.72,0,0,1-8.63-12.15,11.45,11.45,0,0,1-.59-4.6c.08-1.87.72-2.75,2.72-1.68C17.2,468.59,20.3,469.3,22.11,472.24Z"/></g></g></svg>