<svg xmlns="http://www.w3.org/2000/svg" viewBox="0 0 470.21 578.71"><defs><style>.cls-1{fill:none;}.cls-2{fill:#573f1e;}.cls-3{fill:#573e1f;}.cls-4{fill:#563e1f;}.cls-5{fill:#facb37;}.cls-6{fill:#009640;}.cls-7{fill:#e45423;}.cls-8{fill:#fbcc38;}.cls-9{fill:#f5b424;}.cls-10{fill:#063;}.cls-11{fill:#f5b222;}.cls-12{fill:#c73c18;}.cls-13{fill:#f9c937;}.cls-14{fill:#857a70;}.cls-15{fill:#e8752f;}.cls-16{fill:#ea7931;}.cls-17{fill:#f5b525;}.cls-18{fill:#f9ca37;}.cls-19{fill:#f7cb39;}.cls-20{fill:#da6329;}.cls-21{fill:#573e1e;}.cls-22{fill:#eb7731;}.cls-23{fill:#eb7831;}.cls-24{fill:#573f1f;}.cls-25{fill:#573f20;}.cls-26{fill:#f6f4f0;}.cls-27{fill:#ec812f;}.cls-28{fill:#e6722f;}.cls-29{fill:#f6f4f1;}</style></defs><g id="Capa_2" data-name="Capa 2"><g id="Capa_1-2" data-name="Capa 1"><path class="cls-1" d="M111.07,198.59c6.37-7.69,14.67-13,23.18-18a5,5,0,0,0,2.75-3.72c.44-2.36.93-4.72,1.44-7.25l-34.6,28.24,3.82,13.58.18-.18C106.48,206.45,108,202.24,111.07,198.59Z"/><path class="cls-2" d="M122.16,168.08a178,178,0,0,0,2.45-20.31,13.28,13.28,0,0,1,1.3-5.67,14,14,0,0,1,4.46-5c13.49-9.93,21.08-23.58,22.6-40.12,2.85-31.31-20.14-57.45-51.58-59.28C72.86,36,46.21,57.76,43.1,85.7c-2.31,20.78,5.76,37.32,22,50a9.12,9.12,0,0,1,3.74,8.52,155.23,155.23,0,0,0-.3,20,16.58,16.58,0,0,0,5.59,12c3.25,2.75,7,3.31,10.65,3.63a119.11,119.11,0,0,0,29.66-1.38,15.79,15.79,0,0,0,7.68-10.35Z"/><path class="cls-2" d="M460.88,448.35c2.78-6,5.12-12.16,5.85-18.75s1-13.41-2.49-19.6a11.74,11.74,0,0,0-12.53-6c-9.24,1.44-16,6.87-22.26,13.7a104.52,104.52,0,0,0-28.71-31.25c1.8-.8,3.31-1.46,4.81-2.14,15.2-6.92,29-15.75,39.72-28.87,9.34-11.46,15.35-24.42,17-39.17a68.68,68.68,0,0,0-4.47-33.45,12.49,12.49,0,0,1-.77-4.56c-.07-4.48.16-8.95-.29-13.44a159,159,0,0,0-3.14-20.13c-.16-.66-.89-1.72.63-2.08,4.64-1.1,5.36-4.91,5.68-8.76a153.21,153.21,0,0,0-.4-32.11,144.92,144.92,0,0,0-11-40.45c-11.1-25.2-28.41-45.4-50.54-61.48C380,86.74,360,78.14,337.9,75c-2.06-.3-1.67-1.15-1-2.49A44.46,44.46,0,0,0,341.7,44c-1.95-11.94-11.1-20-23.08-20-10.23,0-18.89,4.38-27.12,9.94-1.24.84-2.49,2.85-3.78,2.16s-1-2.88-1.13-4.51a20.66,20.66,0,0,0-19.66-19.39C255.48,11.49,246,16,237.84,23.31c-17.31,15.55-25.33,35.82-28.58,58.3-.49,3.35-1.39,5.62-4.69,7.37-19.57,10.38-35.94,24.49-48.44,42.9a138.14,138.14,0,0,0-10.79,19.3l-6.9,18.49h0c-.51,2.53-1,4.89-1.44,7.25a5,5,0,0,1-2.75,3.72c-8.51,5-16.81,10.26-23.18,18-3,3.65-4.59,7.86-3.23,12.72l-.18.18.18.64a18.94,18.94,0,0,0,2.81,5.27,19.15,19.15,0,0,0,4.24,4.07,34.08,34.08,0,0,0,15.82,4.88q-1.83,11.15-3.36,23.12t-2.47,23.09a67.08,67.08,0,0,0-10.56,55.54,71.83,71.83,0,0,0,6,14.44c8.44,15.42,20.65,24.12,28.91,29.87a120.25,120.25,0,0,0,15.57,9.18l-3.67,3.21c-10.38-8.69-18.11-15.25-22.44-18.95-11-9.37-17.31-14.9-27.26-16.85-7.13-1.4-10.78.09-12.66,1.15-6.14,3.49-7.38,10.52-7.48,11.16-.74,4.6.87,8.22,2.49,11.85a32.22,32.22,0,0,0,5.7,8.67,21,21,0,0,0-3.75,26.31,20.36,20.36,0,0,0-2.14,8.06C93,429.14,106,438.38,108.1,439.84c4.7,3.33,10.21,5.21,21.24,9,4,1.35,7.28,2.33,9.56,3a6.86,6.86,0,0,0,.14,3.06c1.44,4.91,9.08,8,19,7.93l12,.65c3.5-.15,7-.31,10.51-.59,1.54-.13,1.81.39,1.58,1.81-2.14,13.26-1.76,26.65-1.52,40A12.71,12.71,0,0,0,189.24,517c2.7,1,5.46,1.91,8.25,2.69a5.91,5.91,0,0,1,3.06,2,78.5,78.5,0,0,0,11.91,11.2,84.26,84.26,0,0,0,23.27,12.32c2.52.86,1.28,2.58,1.58,4,.36,1.67-.88,1.56-1.93,1.69-2.8.33-5.61.66-8.41,1-6.15.81-12.35,1.53-18.18,3.75-3.68,1.39-6.53,3.89-6.65,8.32-.15,5.34,3.61,9.26,9.84,10.26,5,.81,10.47-.1,14.88,3.42.13.11.38,0,.57.1,4.86,1.22,9.7.58,14.49-.29,7.53-1.37,15.05-2.85,22.51-4.53,4.22-1,8.7-1.18,12.44-3.73a6.22,6.22,0,0,0,1.16-9.79c-1.67-1.85-3.88-2.85-6-4-1.19-.65-2.74-.79-3.58-2.33,6.33.49,12.44,1,18.55,1.44a189,189,0,0,0,24.85,0c7.19-.47,14.37-.91,21.52-1.91.7-.1,2-.73,2.26.43.36,1.45-1.23,1.24-2,1.59-2.1,1-4.36,1.59-6.43,2.61-2.92,1.45-5.81,3.18-5.49,7.09.31,3.75,3.24,5.27,6.23,6.6a14.41,14.41,0,0,0,1.92.64c5.75,1.65,11.48,3.42,17.28,4.9,5.44,1.4,11,3.25,16.61,1.74,3.46-.92,6.76-2.15,10.4-1.38a22.45,22.45,0,0,0,8.13-.27c7.25-1.13,11.14-7.74,7.92-13.55a12.22,12.22,0,0,0-6.67-5.35,143.13,143.13,0,0,0-15.83-4.72c-.82-.22-2.22-.52-2.28-.94a30.25,30.25,0,0,1-.24-6.38c.11-1.41,1.72-1.39,2.72-1.79,12.73-5.06,24.17-12,33.14-22.55,1.06-1.26,1.85-.59,2.74-.34,16,4.51,31.85-2.2,38.07-17.51,2.66-6.54,6.61-11,11.69-15.42,7.73-6.71,13.63-14.88,16.13-25.11C471.56,455.11,468.48,449.91,460.88,448.35Z"/><path class="cls-3" d="M36,54.3a4.82,4.82,0,0,1-2.7-1.53c-4.51-4.51-9-9-13.47-13.57-2.45-2.52-2.55-5.88-.43-8s5.53-2.15,8.2.51c4.37,4.37,8.72,8.76,13,13.24,3.38,3.55,2.81,7.58-1.14,9.28A4.43,4.43,0,0,1,36,54.3Z"/><path class="cls-3" d="M186,46.53a4.89,4.89,0,0,1-2.3,3c-4.92,3.64-9.82,7.3-14.76,10.91a5.8,5.8,0,0,1-8-1.21c-1.71-2.28-1.17-5.44,1.43-7.39,5-3.8,10.11-7.57,15.24-11.26,2-1.46,4.21-1.91,6.42-.12A5.17,5.17,0,0,1,186,46.53Z"/><path class="cls-4" d="M146.46,14.25l-7.31,13.8c-.64,1.2-1.25,2.4-2,3.56a5.32,5.32,0,0,1-7.06,2.08,5.52,5.52,0,0,1-2.33-7.06q4.42-8.65,9.07-17.19a5.44,5.44,0,0,1,6.79-2.33C146.11,8.19,147.36,11,146.46,14.25Z"/><path class="cls-4" d="M82.38,24.26c-.93,2.62-2.6,4.22-5.36,4.32a4.56,4.56,0,0,1-4.89-3.71C70.46,18.91,68.76,13,67.2,7c-.88-3.4.65-6,3.72-6.78a5.51,5.51,0,0,1,6.76,4c1.63,5.76,3.07,11.58,4.65,17.36A9.54,9.54,0,0,1,82.38,24.26Z"/><path class="cls-3" d="M23.09,86.46C27,87.55,28.78,90,28.17,93c-.7,3.39-2.83,4.7-6.7,4.16-5.18-.73-10.37-1.43-15.55-2.18C3.3,94.55,1,93.61.21,90.75A5.39,5.39,0,0,1,2.1,85a4,4,0,0,1,3.18-1.17C11.42,84.68,17.55,85.63,23.09,86.46Z"/><path class="cls-5" d="M232.64,391.43c-13.78-2.87-27.62-5.53-41-10C172.5,375,154.84,366,140.47,351.49,128.05,339,121.66,324,123.17,306.12A52.9,52.9,0,0,1,133.64,279c1.76-2.41,2.09-5,2.27-7.67a341.26,341.26,0,0,1,4.22-35.94,187.32,187.32,0,0,1,5.35-23.28c.79,0,.92.63,1,1.21.06,1.19.66,1.21,1.56.86,2.54-1,5.27-1.48,7.8-2.5a80.77,80.77,0,0,1,15-4,114.81,114.81,0,0,1,22.63-2.56,192.91,192.91,0,0,1,55.88,8.62,283.28,283.28,0,0,0,35.27,8.48c12.49,2.15,25,4.09,37.53,6.08a200.32,200.32,0,0,0,34.9,2.89,160.49,160.49,0,0,0,25.31-2.47,18.57,18.57,0,0,1,8.39.36,250.6,250.6,0,0,1,26.74,9.51c3.25,1.32,6.48,2.72,9.66,4.22a8.27,8.27,0,0,1,5,6,109.76,109.76,0,0,1,2.41,17,115,115,0,0,0,3.68,23.09c4.37,17,1.48,32.72-7.68,47.64-7.24,11.77-17.15,20.56-28.52,28.08-14.43,9.55-30.34,15.43-46.95,19.84a277,277,0,0,1-45.82,7.68c-15.37,1.43-30.8,1.43-46.2,1.07a239.24,239.24,0,0,1-25.36-1.81,28,28,0,0,1-4.59-.89C231.47,390.06,233.46,391.42,232.64,391.43Z"/><path class="cls-6" d="M390.25,205.65c-5.53-2.15-10.36-5.58-15.53-8.38A368.79,368.79,0,0,0,339.8,181a293.8,293.8,0,0,0-29.57-10.15c-10.21-3-20.58-5.4-31-7.41-4.18-.8-8.27-2.06-12.55-2.38-1.12-.09-1.58-.42-1-1.85,3.88-9,9.22-17.21,15.05-25.05,12.47-16.73,28.12-30.06,45.36-41.61,3.11-2.1,6.32-4.07,9.52-6,2.61-1.59,5.28-.49,7.87.07a18.53,18.53,0,0,0,3.39.78,2.55,2.55,0,0,0,1.61,2c8.87,3.73,15.64,10.2,21.79,17.33,9.11,10.54,14.87,22.91,18.45,36.23a138.17,138.17,0,0,1,4.19,28.6,153.14,153.14,0,0,1-1.78,31.45C391,203.89,391.07,204.92,390.25,205.65Z"/><path class="cls-7" d="M254.49,155.3c-1.07,5.19-3.27,5.06-7,2.76-10.78-6.69-17.78-16.52-22.44-28.14a88.41,88.41,0,0,1-5.73-41.52c1.84-20,8-38.53,21.89-53.78,4.64-5.11,10.07-9.26,16.7-11.28,5.07-1.54,10.38-2,14.92,1.91a10.94,10.94,0,0,1,3.76,8.21c.28,7.29-1.34,14.29-3.3,21.23-.23.85-.48,1.69-.63,2.55a3.45,3.45,0,0,0,1.56,3.8,3.76,3.76,0,0,0,4.12-.08,12.91,12.91,0,0,0,3.05-3.12C289.18,48.75,298,41,309.19,36.34c4.29-1.77,8.84-2.7,13.39-1.33,6.46,2,8.28,7.39,9,13.32a45,45,0,0,1-.05,6.14c-1,.79-1.21-.39-1.73-.73a165.06,165.06,0,0,1-9.53,15.36c-3.74,5.25-7.51,10.52-12.25,14.84s-9.63,8.79-14.42,13.22c-11.91,11-23.28,22.57-31.09,37-2.52,4.65-5.24,9.31-6.65,14.58C255.3,150.91,253.5,152.78,254.49,155.3Z"/><path class="cls-6" d="M423,459.77a95.34,95.34,0,0,1-29.25,9.75c-5,.84-10,1.08-15,2-2.6.46-4.12-.3-4.9-3-2.65-9.2-6.43-18-9.69-27-.84-2.32-2.49-3.74-5.14-3.18s-3.22,2.7-2.82,5c.81,4.58,2.62,8.87,4.14,13.24,3.13,9,6.26,18,8.89,27.2a102,102,0,0,0,3.71,11.58c1,2.44,2.86,4.43,6.12,4.53,4.7.15,5.58,1.13,6.6,5.71.25,1.14.1,1.95-1.13,2.22-6.52,1.38-12.74,3.81-19.31,5.11-7.13,1.41-14.25,2.92-21.43,4-7,1.1-14.05,2-21.11,2.62a436.33,436.33,0,0,1-45.88,1.3c-1.17,0-2.34-.1-3.51-.1-1.85,0-2.51-.85-2.52-2.71-.13-17.27-.52-34.54.12-51.8.33-8.83,1.4-17.63,2.22-26.44a7,7,0,0,1,2.5-5.07c2.22-1.83,4.2-4,6.77-5.36,3.21-1.32,6.16.08,9,1.14,6.72,2.52,13.35,5.31,20,8.06,4.31,1.79,8.83,3.13,13.6,2.39,1.94-.3,3.85-.91,4.22-3.34,6.78-7.26,12.28-15.53,18.22-23.45,6.8-2.12,13.94-2.63,20.86-4.19,4.35-1,8.74-2.11,13.28-1.76a23.72,23.72,0,0,1,11.71,3.93c13.47,8.95,20.52,22.46,26.76,36.61A59.62,59.62,0,0,1,423,457.3C423.17,458.11,423.77,458.93,423,459.77Z"/><path class="cls-8" d="M55.13,81.16c7.7-26.28,35.9-39.84,60.74-29.53,19.71,8.19,30.7,30.54,25.27,51.2-2.77,10.55-8.24,19.3-17,25.77-5.74,4.23-9.56,9.38-9.48,16.8,0,1.42-.78,1.53-1.88,1.51-10.48-.16-21-.33-31.45-.41-1.66,0-2.19-.55-2.07-2.19.55-7.54-2.58-13.07-8.54-17.76-12.4-9.77-18.26-22.69-17-38.62C53.9,85.47,54.76,83.18,55.13,81.16Z"/><path class="cls-9" d="M232.64,391.43c-.42-1-1.64-.88-2.62-1.87,4.26.23,8.07,1.31,12,1.37,2.69,0,5.36.82,8.06,1,13.63.76,27.29,1,40.92.53a281.71,281.71,0,0,0,40.43-3.88c6.57-1.19,13.26-2,19.66-3.77,11.36-3.23,22.8-6.23,33.56-11.36a144.22,144.22,0,0,0,28.91-18.22,75.93,75.93,0,0,0,15.74-18.28,61.64,61.64,0,0,0,8.92-21.62,49.64,49.64,0,0,0,.37-19c-1.52-8.27-3.74-16.43-4.45-24.86-.64-7.62-.95-15.28-2.89-22.74-.54-2.08-1.43-3.75-3.51-4.71a267.63,267.63,0,0,0-38.08-14.39c-3.28-1-6.38-.28-9.51.22a153.13,153.13,0,0,1-32.21,2,189.76,189.76,0,0,1-20.66-1.76l-16.6-2.77c-5.62-.94-11.29-1.6-16.9-2.61q-12.13-2.19-24.2-4.75c-9.76-2.1-19.23-5.31-28.89-7.8a224,224,0,0,0-25.64-4.94c-7.07-1-14.15-1-21.19-1.3-6.16-.23-12.41.83-18.62,1.76-10.2,1.52-19.7,5.08-29.49,8.06-1.25-1.08,1.06-2.53-.27-3.64a5.61,5.61,0,0,1,0-.58c.52-5.44,3.7-7.66,8.86-9.32a142.6,142.6,0,0,1,49.58-6.49c15.79.63,31,4.36,45.87,9.43,12.13,4.13,24,9.12,36.59,11.84,19,4.12,38,8.48,57.58,9.25,15.64.61,30.93-1.23,45.7-6.61a3.83,3.83,0,0,1,3,.21c15.43,6.45,30.86,12.93,46.32,19.33a4.75,4.75,0,0,1,3.14,3.66c3,11.67,4.75,23.48,4.26,35.55a17.57,17.57,0,0,0,1.38,7.38c10.7,26.76.49,54.88-19.4,72.12-12.59,10.92-27.35,17.75-42.85,23.26-17.78,6.31-36.14,10-54.78,12.59-13.36,1.86-26.8,2.31-40.25,2.71a6.88,6.88,0,0,0-4.28,1.41c-9.83,7.52-19.94,14.67-29.35,23.2C249.81,410.34,240.93,401.14,232.64,391.43Z"/><path class="cls-10" d="M390.25,205.65c.84-8.18,2-16.34,2.17-24.56a107,107,0,0,0-.61-15.92,163,163,0,0,0-3.24-19.43C386,135.6,382.46,125.88,376.84,117a81.37,81.37,0,0,0-11.52-14.6c-5.15-5.07-10.58-9.7-17.33-12.51-1.31-.55-2.08-1.1-1.13-2.54a135.19,135.19,0,0,1,34.9,14.8,139.4,139.4,0,0,1,29.1,23.1c9.05,9.6,17.31,19.91,23.43,31.64a130.8,130.8,0,0,1,11.23,29.23A150.55,150.55,0,0,1,450,227.56c-.11,3.17-.7,3.7-3.63,2.47-15.19-6.38-30.66-12.09-45.5-19.31C397.31,209,393.5,207.92,390.25,205.65Z"/><path class="cls-7" d="M378.05,212.31a164,164,0,0,1-37.84,3,193.09,193.09,0,0,1-25.79-2.75c-7.24-1.26-14.36-3.21-21.47-5.05-10.59-2.75-20.88-6.44-31.22-10-6.94-2.37-13.91-4.73-21-6.65a238.44,238.44,0,0,0-25.31-5.32,133.64,133.64,0,0,0-18.05-1.24,92.28,92.28,0,0,0-15.75.65A165.68,165.68,0,0,0,153,191.54a168.47,168.47,0,0,0-28.43,12.22,48.06,48.06,0,0,1-6,3c2-3.36,5-5.79,8-8.12,12.78-9.78,27.39-15.95,42.55-20.73a186.13,186.13,0,0,1,42-7.69c12.92-1,25.73-.37,38.55.45a205.76,205.76,0,0,1,22.85,3c9.75,1.75,19.43,3.8,29,6.33a262.32,262.32,0,0,1,30.11,9.64,316.58,316.58,0,0,1,43,20.73C375.61,210.81,376.49,211.36,378.05,212.31Z"/><path class="cls-6" d="M148.52,173.34c10.42-32.85,29.6-57.77,60-74.35.27,5,.49,9.75,1.21,14.43a91.67,91.67,0,0,0,10.08,30.15,78,78,0,0,0,8.94,12.81c.45.54,1.53,1,1,1.85-.43.73-1.42.45-2.18.46-4.49.06-9,0-13.46.16a205.81,205.81,0,0,0-26.66,3,181.73,181.73,0,0,0-37.24,11A14.8,14.8,0,0,1,148.52,173.34Z"/><path class="cls-6" d="M237.31,411.29c4.74,4.59,8.36,10.06,12.08,15.44.94,1.36.42,3.29.1,4.88-1.33,6.52-1.52,13.16-2,19.75-1.07,16.33-1.88,32.7-1.21,49.09.21,5.16.59,10.31,1,15.45.2,2.27-.59,2.83-2.77,2.65a162.77,162.77,0,0,1-18.11-2.85q-10-1.92-19.87-4.29A86.83,86.83,0,0,1,192.22,507c-2.27-1-1.6-3.1-1.52-4.74.06-1.07,1.41-.3,1.92-.11a62.43,62.43,0,0,0,8.9,2.57,138.81,138.81,0,0,0,22.21,3c6,.31,8.79-2.38,9.71-8.27,1.67-10.77,2.4-21.63,3.43-32.46.41-4.26,1.26-8.47,1.14-12.78-.11-3.91-2-5.69-5.93-6-9.68-.84-19.39-1.47-29-3.27-2.19-.41-4.4-.57-6.59-1.09s-2.11-1.46-1.71-3a30.59,30.59,0,0,0,1-7.5c0-2.13-.72-3.71-2.85-4.14s-3.95.41-4.56,2.64c-.85,3.07-1.46,6.21-2.17,9.32-1.65.64-3.32,1.33-3.83-2-.09,1.86-.48,2.94-2,3.18-1.33.21-1.34,1.44-1.77,2.39-.8,1.77-1.57,1.86-2.88.47,1.09-5.56,3.69-10.63,5.15-16.07,1.34-5,2.29-10,3.16-15.05a123.19,123.19,0,0,0,1.77-16.8c0-1.22.56-1.69,1.82-1.68,2.62,0,5.25-.12,7.88-.1,3.26,0,4.41,1.18,3.61,4.3-1.25,4.89-1.93,9.88-3,14.81-.61,2.93-1,6,.06,8.88,1.93,5.12,5.95,6.73,11.16,5.85a75.19,75.19,0,0,0,19.24-3.85c2.5-.78,4.88-1.18,7.18.44.76.86,1.54,1.69,2.27,2.56,1.61,1.9,3.35,2.84,5.83,1.4s3-3.51,2.06-5.93c-2.18-5.64-5.63-10.06-11.92-11.47C233.35,410,233.93,409.83,237.31,411.29Z"/><path class="cls-5" d="M103.76,415.05c1.28,0,1.87.9,2.68,1.38,2.53,1.47,5.28.95,6.69-1.29s.65-5-2.06-6.4a14.17,14.17,0,0,1-6.83-6.87c-2.93-6.49.71-13.51,7.72-14.48,2-.27,3.71-.58,4.19-2.83s-.85-3.5-2.52-4.79c-4.93-3.83-9.75-7.82-11.69-14.16-.73-2.38-.79-4.63,1-6.55s3.93-.83,5.78-.3c6.31,1.82,11.33,5.91,16.45,9.79,9.64,7.3,18.8,15.16,27.8,23.24,3.57,3.2,5,5.89,4.2,10.72C155.37,413.26,153.5,424,149,434c-3.44,7.58-3.4,7.58-11.54,6.1-9.48-1.72-18.62-4.37-26.08-10.82C107.07,425.57,103.78,421.16,103.76,415.05Z"/><path class="cls-11" d="M390.85,517.32c-9.17,9-20.43,14.51-32.5,18.72-14.3,5-29.1,6.88-44.13,7.8a214.23,214.23,0,0,1-57.57-3.75c-10.19-2.15-20.19-5-29.38-10.09-2.44-1.36-4.75-3-7-4.36C277.69,534.72,334.6,534.08,390.85,517.32Z"/><path class="cls-10" d="M423,459.77a101.81,101.81,0,0,0-17-34.48c-2.77-3.62-5.48-7.58-9.08-10.18-6.08-4.37-12.8-7.61-20.91-5.86-9.11,2-18.32,3.51-27.49,5.21-.34.06-.74-.2-1.11-.31,2.63-4.24,5.17-8.55,7.94-12.7,1.51-2.27,4.4-1.85,6.63-2.36a206.55,206.55,0,0,0,23.3-6.69,6.07,6.07,0,0,1,6,.62,100.76,100.76,0,0,1,33.53,38.37c3.38,6.72,5.78,13.84,8.62,20.77.38.94-.1,1.47-1.07,2C429.2,455.92,426.13,457.88,423,459.77Z"/><path class="cls-6" d="M218.94,498.6c-9.09-.85-18.16-1.71-26.58-5.73a3.19,3.19,0,0,1-2-3.63q.54-7.87.68-15.77c0-1.91.82-2.22,2.32-1.65,10.25,3.95,21,4.48,31.81,5,1.8.08,2.63.46,2.19,2.26-1.35,5.51-.76,11.24-2,16.8-.53,2.45-1.32,3-3.5,2.77A23.84,23.84,0,0,0,218.94,498.6Z"/><path class="cls-6" d="M295.3,416.14c-7.84-2.39-13.94,1.27-19.76,5.73a70.44,70.44,0,0,0-7.14,6.79,12.65,12.65,0,0,0-3.41,8.09c-1.71,17.93-3.08,35.89-2.91,53.92q.14,13.45.66,26.91c.08,1.94-.49,2.28-2.21,2.17-5.54-.37-4.8,1-5-5-.41-10.91-.95-21.82-.68-32.75.39-15.58,1.18-31.14,2.94-46.63a4.37,4.37,0,0,1,1.16-2.57c6.5-7.52,14.32-13.48,22.43-19.11a41.37,41.37,0,0,0,10.07.12c1.52-.1,3.42-.43,4.23,1.63A1.1,1.1,0,0,1,295.3,416.14Z"/><path class="cls-12" d="M254.49,155.3c-2-1-1.4-2.63-.64-3.88,1.48-2.44,2-5.24,3.21-7.79A145.81,145.81,0,0,1,268.11,124a71.9,71.9,0,0,1,6.47-8.46c7.13-7.77,14.45-15.37,22.31-22.44,6.24-5.62,12.9-10.88,17.89-17.71,3.81-5.2,8-10.16,10.94-16,1.28-2.55,3.45-4.62,3.79-7.68,1.6.62.29,2.68,2,2.77,0,2.49-.95,4.75-1.6,7.09-1.08.92-1,2.26-1.25,3.47a44.44,44.44,0,0,1-8.51,14.11c-1.55,1.3-2.38,3.18-3.75,4.62a7.28,7.28,0,0,1-2.26,2.39c-1.94,1-1.94,1-3.59,3.6-10.11,9.93-21.53,18.44-31.22,28.86a164.83,164.83,0,0,0-12.58,15.61c-1.11.42-1.29,1.58-1.88,2.42l-4.7,7.48a9.05,9.05,0,0,0-2.31,4.29C256.69,150.67,256.06,153.21,254.49,155.3Z"/><path class="cls-7" d="M427.75,481c-4.12,2.83-8.81,4.41-13.51,5.79a87.71,87.71,0,0,1-30.48,3.65c-1.74-.11-2.7-.35-3.29-2.32a31.06,31.06,0,0,0-1.75-5.5c-.69-1.35-.54-2.67,1.81-2.78a111.86,111.86,0,0,0,44.92-11.51,4.06,4.06,0,0,1,1.12-.24C426.66,472.39,428.45,476.57,427.75,481Z"/><path class="cls-7" d="M155.75,443.45c1.69-4.59,4-8.94,5.37-13.66a162.6,162.6,0,0,0,4.19-16.28,129.85,129.85,0,0,0,2.58-19.34c.05-1.79.85-2.44,2.6-1.59a5,5,0,0,0,1.68.45c5.55.65,5.65.65,5.36,6.18a122.29,122.29,0,0,1-8.09,37.65c-1,2.61-2.05,5.2-3.08,7.81C162.66,445.73,159,446,155.75,443.45Z"/><path class="cls-13" d="M445.46,455.9A162.86,162.86,0,0,0,435,428.14a1.42,1.42,0,0,1,.2-1.84c4.58-4.68,9.14-9.37,15.58-11.54,3.55-1.2,4.74-.67,5.64,3.06,1.57,6.59.09,13-1.83,19.23A76.71,76.71,0,0,1,445.46,455.9Z"/><path class="cls-10" d="M295.36,415.35c-2.62-1.89-5.51-.66-8.25-.55-2.1.08-4,.06-5.76-1.16l7.22-6.11a3,3,0,0,1,2.25-.37c11.42.51,22.8-.52,34.16-1.37,4.29-.32,8.73-.5,12.94-1.89a19.5,19.5,0,0,1,3.69-.37,62.4,62.4,0,0,1-6.39,9.52c-2.24,1.2-4.76,1-7.14,1.17-8.33.61-16.66,1.41-25,1.26C300.49,415.43,297.9,416.84,295.36,415.35Z"/><path class="cls-14" d="M82.47,169.35a4.41,4.41,0,0,1-3.34-3.25c0-.19,0-.39-.09-.58-1.48-7.72-1.05-8.22,6.64-8.22,8.55,0,17.1,0,25.66-.12,2,0,2.26.41,2,2.26-1.33,9.63-1.83,10.19-11.62,10.3-5.92.07-11.84-.15-17.77-.25A14.35,14.35,0,0,1,82.47,169.35Z"/><path class="cls-6" d="M222.2,468.16c-9.57-.83-19.09-1.85-28.35-4.66-1.4-.42-1.67-1-1.49-2.23.35-2.4.8-4.79,1-7.2.1-1.47.71-1.45,1.84-1.29,5.18.75,10.28,1.9,15.46,2.66,5.4.79,10.83,1.2,16.22,1.93,1.57.22,2.27.43,1.94,2.23a21.61,21.61,0,0,0-.17,5c.14,2.75-1,4-3.78,3.62A19.21,19.21,0,0,0,222.2,468.16Z"/><path class="cls-10" d="M237.31,411.29c-1.79.22-3.91-1-5.25,1.18-7.2-.47-13.62,2.42-20.2,4.63-1.09.37-2.21.68-3.29,1.09-2.9,1.07-3.19.83-2.81-2.13.75-5.94,2.7-11.59,4.08-17.38.46-1.93,2.18-.92,3.15-.7,3.65.86,7.18,2.38,10.87,2.94C230.39,401.91,233.63,406.8,237.31,411.29Z"/><path class="cls-15" d="M263.55,562.81a178.59,178.59,0,0,1-22.75,4.87c-1,.14-1.94.16-2.89.35-1.44.29-2.48.32-3.13-1.48-.72-2-2.58-2.39-4.59-2.36-5.42.1-10.86,1.14-16.54-.3A86.42,86.42,0,0,1,230,561.26a88.21,88.21,0,0,0,10.41-1.2c5.58-1.15,7.12-3,7.38-8.74.09-2,.54-2.69,2.47-1.86a3.07,3.07,0,0,0,1.12.33c4.58,0,7,1.53,6.69,6.8C257.94,559.47,260.88,561.25,263.55,562.81Z"/><path class="cls-6" d="M295.36,415.35c8-.76,16.06-.76,24.08-1.22,5.26-.3,10.49-1.13,15.78-1.08a117.48,117.48,0,0,1-9.49,13c-2.89,3.58-4.23,3.93-8.18,1.68-6.21-3.53-12.19-7.45-18.77-10.28-1.14-.49-2.32-.9-3.48-1.34Z"/><path class="cls-16" d="M337.71,563.38l3.37-1.61a8.33,8.33,0,0,0,4.66-6.95c.2-1.5-.76-3.72.65-4.36,2.42-1.12,5.21-1.47,7.87-2,.82-.17.79.67.81,1.23,0,1,0,2,0,2.93.3,3.85,1.67,7,5.77,8.16q7.68,2.26,15.35,4.59a10.52,10.52,0,0,1,2.89,1.39,61.93,61.93,0,0,1-12.47-.82c-3-.57-6.47-2.17-8.05,2.39-.26.75-1,.41-1.52.3-5.4-1.18-10.94-1.84-16.07-4.07C340,564.08,338.63,564.44,337.71,563.38Z"/><path class="cls-17" d="M397.86,504.91a14.71,14.71,0,0,1-3-4.89,105.25,105.25,0,0,0,37.92-10.33.8.8,0,0,1,1.15.51c1.15,2.89-.65,7.43-3.55,8.6a112.54,112.54,0,0,1-20.83,6.43c-2.37.46-4.67,1.3-7.16,1.2A6.41,6.41,0,0,1,397.86,504.91Z"/><path class="cls-18" d="M397.86,504.91c4.4,1.77,8.7.29,12.89-.67A115.34,115.34,0,0,0,430,498.1c3.51-1.48,4.72-4.87,2.83-8.41,1.64-1.55,1.75-.44,1.82,1,.4,8.95-6.75,18.45-15.79,20.7C410.6,513.43,403.51,511.44,397.86,504.91Z"/><path class="cls-10" d="M329.19,437.6c1.75.89.73,1.8-.11,2.43a10.37,10.37,0,0,1-7.63,1.92c-8-.88-14.86-4.86-22.19-7.58-5.51-2.05-10.78-5-16.88-5,5.34-5.46,10.89-3.47,16.46-.46,4.72,2.56,9.56,4.94,14.08,7.82C318.3,440.15,323.59,440.49,329.19,437.6Z"/><path class="cls-12" d="M427.75,481c-.46-4.3-2.64-8.44-1.18-12.91,2.58-2.36,6-3.29,8.79-5.33.95-.71,1.54-.1,1.58.81a29.35,29.35,0,0,0,1.28,5.64,5.38,5.38,0,0,1-2.26,6.11C433.23,477.19,431,479.77,427.75,481Z"/><path class="cls-19" d="M443.85,482.64c4.4-4.12,5.6-9.15,4.57-14.87a3.34,3.34,0,0,1,1.82-3.81c2.56-1.57,5-3.41,7.46-5.09.45-.3,1.15-.67,1.53-.51.84.35.35,1.16.24,1.79a26.89,26.89,0,0,1-4.92,11.39A47.55,47.55,0,0,1,443.85,482.64Z"/><path class="cls-10" d="M175.75,445.18c1.69,1.33,2.36.23,2.36-1.23,0-1.76.72-2.56,2.36-2.44,1.23.09,1.13-.64,1.24-1.43s-.5-1.85.72-2.19a1.41,1.41,0,0,1,1,.41c1.05.93-.56,1.45-.36,2.38l3.12.43c-1.26,3.08-.75,6.51-2,9.64-.51,1.32-1.13,2-2.42,2-2.73.09-5.47.12-8.2.18-.72,0-1.63-.12-1.12-1.07C173.7,449.67,174.05,447.1,175.75,445.18Z"/><path class="cls-12" d="M155.75,443.45a31.19,31.19,0,0,0,10.61,1.22c-1.09,2.3-2.34,4.54-3.23,6.92-.45,1.22-1.11,1.27-2.13,1.36-3.15.28-6.12-.6-9.14-1.17-.78-.15-1.44-.42-.77-1.29C152.81,448.25,153.66,445.44,155.75,443.45Z"/><path class="cls-10" d="M233.82,425.91c-7.92-1.11-14.81,3.68-22.51,3.95-1.37,0-2.69.31-3.91-.54l12.66-4.59c2-.72,4-1.45,6-2.15C229.13,421.5,231.24,422.42,233.82,425.91Z"/><path class="cls-12" d="M128.55,214.63l5.79-2.14C133.56,215.82,133.56,215.82,128.55,214.63Z"/><path class="cls-20" d="M310.59,89.75c.38-2,.8-4,3.59-3.6A8,8,0,0,1,310.59,89.75Z"/><path class="cls-20" d="M316.44,83.76c.85-1.86,1.79-3.66,3.75-4.62C319.21,80.9,318.24,82.67,316.44,83.76Z"/><path class="cls-20" d="M257.9,148.41c-.45-2.09.49-3.43,2.31-4.29A9.19,9.19,0,0,1,257.9,148.41Z"/><path class="cls-20" d="M328.7,65c-.44-1.47-.25-2.71,1.25-3.47C329.4,62.67,329.64,64.06,328.7,65Z"/><path class="cls-20" d="M264.91,136.64c-.08-1.36-.17-2.72,1.88-2.42C266.25,135.09,266.17,136.32,264.91,136.64Z"/><path class="cls-21" d="M295.09,279.09c.05-12,3.25-20.42,10.62-26.92,11.12-9.81,26.8-8.12,35.75,3.68,8.81,11.61,9.07,28.66.53,40.43-5.88,8.1-13.78,12.48-23.87,11.19-9.62-1.23-15.8-7.43-19.82-15.92C296.11,286.92,295,282,295.09,279.09Z"/><path class="cls-3" d="M227.92,322.88c-10.92,0-12.46-7.16-10.71-15.85,3.65-18.18,23.42-26.09,38.88-15.58,11.82,8,17.79,19.74,19.38,33.79.77,6.76.34,13.4-2.31,19.77-4.29,10.27-12.35,14.57-23.33,13.73-14.84-1.14-22.18-9.52-23-25.29A28.59,28.59,0,0,1,227.92,322.88Z"/><path class="cls-21" d="M210.9,275.94c-.46,8.23-3.09,17.44-11.29,24.06-9.91,8-22.73,6-30.07-4.46-9-12.89-7.49-32.1,3.83-43,9.53-9.13,22.69-9.27,31.88,3.44C209,261.22,211,267.62,210.9,275.94Z"/><path class="cls-22" d="M377.38,329.4c.62,9.88-7.74,18.56-16.07,20.51-9.72,2.27-17.75-.42-23.68-7.93-9.69-12.28-2.38-28.42,11.7-31.9,12.24-3,23.06,3,27.5,14.44C377.57,326.43,377.26,328.37,377.38,329.4Z"/><path class="cls-23" d="M140.62,321.74c-.66-9.15,7.82-17.55,16.92-17.63,8.4-.08,16.19,7.81,15.85,16.55-.4,10.28-6.82,17.43-16.36,17.92C146.67,339.1,139.76,329.63,140.62,321.74Z"/><path class="cls-24" d="M205,223.1c.13,3.61-4.17,6.51-7.17,4.62-6.78-4.26-13.42-4.39-20.29-.3a4.1,4.1,0,0,1-5.71-1.25,5.12,5.12,0,0,1,.1-6.49c2.17-2.89,5.4-4,8.74-4.81a26.28,26.28,0,0,1,21,3.08A7.21,7.21,0,0,1,205,223.1Z"/><path class="cls-21" d="M348.14,487.31c0,5,0,9.95,0,14.92,0,3.95-2.44,6.42-5.68,7.73a41.24,41.24,0,0,1-12.5,2.51c-12.56.95-25.14.36-37.71.06-5.53-.14-9.57-4.57-9.7-10.35-.13-5.56,0-11.12-.12-16.68-.13-8.88-.34-17.75-.5-26.62A21.87,21.87,0,0,1,282,456c.46-4,2.06-5.57,6-5.5,7.8.15,15.59.52,23.39.72A204.5,204.5,0,0,0,338.9,450c5.79-.63,7.72,1,8.1,6.63C347.71,466.84,348.16,477.06,348.14,487.31Z"/><path class="cls-24" d="M85.76,97.08a4.1,4.1,0,0,1,3,3.23q3.51,11.91,6.9,23.85c.85,3-.32,5.33-2.88,6.09s-5.07-.55-6-3.58c-2.29-7.65-4.52-15.31-6.75-23-.6-2.06-.67-4.09,1-5.7A4.27,4.27,0,0,1,85.76,97.08Z"/><path class="cls-3" d="M99.84,123.49c2.74-7.3,5.42-14.61,8.24-21.88,1.24-3.22,3.39-4.18,6.17-3.13,2.5,1,3.6,3.26,2.5,6.25-2.86,7.77-5.85,15.49-8.9,23.19-1.17,3-3.06,3.76-5.74,2.81s-3.54-3-2.75-5.86c.12-.47.26-.94.4-1.41Z"/><path class="cls-25" d="M128.92,385.3c4.85.05,8,2.85,7.71,6.77a4.17,4.17,0,0,1-2.51,3.64,3.56,3.56,0,0,1-4-.68c-2.57-2-5.06-1.11-5.83,2.16a10.2,10.2,0,0,0,4.58,10.28A19.65,19.65,0,0,1,131.6,409c1.72,1.41,2.56,3.13,1.51,5.39s-3.06,2.38-5.19,2c-.1,0-.18-.09-.27-.12-9.7-3.11-14.61-16.88-9-25.38A12.07,12.07,0,0,1,128.92,385.3Z"/><path class="cls-26" d="M308.09,267.83c0-4.34,2.6-7.57,6.29-7.66,3.32-.08,6,3,6.1,6.82.08,4.33-2.59,7.68-6.17,7.75S308.14,271.9,308.09,267.83Z"/><path class="cls-27" d="M260.31,347.37c4.07-12.42.37-25-9.51-32.51-6.66-5.08-13.87-5.48-21.46-2.32-3.4,1.41-4.05.84-3.57-2.89,1.59-12.37,14.38-17.88,25.22-10.7,8.9,5.9,13.39,14.67,15,25,1,6.54.88,13-2.25,19.09A9.94,9.94,0,0,1,260.31,347.37Z"/><path class="cls-28" d="M252.09,340.06c0,4.54-2.3,6.78-6.8,6.7-4.14-.06-6.48-2.44-6.45-6.55,0-3.75,3-6.35,7.16-6.35C250.39,333.87,252.12,335.63,252.09,340.06Z"/><path class="cls-29" d="M200.42,266.92c0,4.48-2.66,7.67-6.28,7.63-3.17,0-6-3.38-5.95-7.08,0-4.29,2.6-7.29,6.26-7.31C198,260.14,200.44,263,200.42,266.92Z"/><path class="cls-6" d="M308.27,505.1a95.15,95.15,0,0,1-12.85-.68c-2.18-.25-3.69-1.22-4-3.76-.88-6.51-.7-13-.69-19.57,0-1.69,1-1.59,2.13-1.39,8.6,1.54,17.28,1.28,25.95,1.32a119.71,119.71,0,0,0,17.14-1.66c2.07-.28,3-.05,3,2.39-.07,4.87.91,9.69,1.12,14.57s-1.9,6.14-6.12,6.88A156.72,156.72,0,0,1,308.27,505.1Z"/><path class="cls-6" d="M312.21,472.74c-6.75.46-13.07-.72-19.4-1.83-1.52-.27-2.22-1-2.09-2.54.1-1.16,0-2.34,0-3.51,0-5.83-.91-5.59,5-4.85,13.17,1.65,26.27,1.05,39.38-.2,2.15-.2,3,.31,3.35,2.64,1,7.08.32,8.43-7,9C325,471.91,318.52,473.45,312.21,472.74Z"/></g></g></svg>