<svg xmlns="http://www.w3.org/2000/svg" viewBox="0 0 352.53 352.65"><defs><style>.cls-1{fill:#ffd44b;}.cls-2{fill:#ffd44a;}.cls-3{fill:#fbbd37;}</style></defs><g id="Capa_2" data-name="Capa 2"><g id="Capa_1-2" data-name="Capa 1"><path class="cls-1" d="M178.33,0c2.72,2.17,3.47,5,3.4,8.43-.15,7.67-.06,15.33,0,23a10.82,10.82,0,0,1-.63,4.38,5.15,5.15,0,0,1-9.6,0,11,11,0,0,1-.63-4.38c0-7.67.12-15.33,0-23-.06-3.4.68-6.26,3.41-8.43Z"/><path class="cls-1" d="M352.53,178.4c-2.17,2.72-5,3.48-8.43,3.41-7.66-.16-15.33-.06-23,0a10.82,10.82,0,0,1-4.38-.63,5.15,5.15,0,0,1,0-9.6,10.65,10.65,0,0,1,4.38-.63c7.66,0,15.33.11,23,0,3.4-.07,6.26.68,8.43,3.4Z"/><path class="cls-2" d="M168.56,275.73c-42.84-3-78.84-33.61-89.25-76.51A99.14,99.14,0,0,1,115.62,97.28,100.79,100.79,0,0,1,165,77.22a29.31,29.31,0,0,1,3.75,0c17.79,1.58,33.38,8.76,47.38,19.37a99.8,99.8,0,0,1,39,74c1.6,33.15-10.28,60.47-35.11,82.26-12.88,11.3-27.91,18.3-44.58,21.93C173.11,275.27,170.83,275.46,168.56,275.73Z"/><path class="cls-3" d="M168.56,275.73c4.24-2,9-2.23,13.41-3.52a101.12,101.12,0,0,0,36.93-19.59,100,100,0,0,0,24.56-30.5,88.65,88.65,0,0,0,9.9-31.54c.59-5.09,1.53-10.23,1.26-15.3a119.65,119.65,0,0,0-3.76-25.64,99.59,99.59,0,0,0-81-71.85,4.13,4.13,0,0,1-1.19-.59c42-4.42,82.92,21.18,99.36,60A99.72,99.72,0,0,1,245,248.62a98.53,98.53,0,0,1-56.31,26.74C182,276.22,175.28,277,168.56,275.73Z"/><path class="cls-1" d="M19.47,170.92c4.24,0,8.47,0,12.71,0s7,2.26,6.94,5.49-2.69,5.29-6.77,5.32c-8.59.06-17.17,0-25.75,0-2.66,0-5-.8-6.16-3.49a4.78,4.78,0,0,1,1-5.4c1.39-1.59,3.32-1.91,5.31-1.92C11,170.9,15.24,170.92,19.47,170.92Z"/><path class="cls-1" d="M170.85,332.83c0-4.24-.07-8.48,0-12.71.08-4,2.36-6.66,5.5-6.59s5.24,2.61,5.28,6.45q.12,13,0,26.11c0,4.12-2.28,6.63-5.49,6.56s-5.23-2.61-5.3-6.77C170.79,341.53,170.85,337.18,170.85,332.83Z"/><path class="cls-2" d="M105,58.06a5.08,5.08,0,0,1-4.75-2.83C95.65,47.3,91,39.4,86.54,31.42c-1.78-3.18-1-6.17,1.67-7.76s5.59-.7,7.51,2.55c4.6,7.78,9.16,15.6,13.55,23.49C111.64,54,109.38,58.11,105,58.06Z"/><path class="cls-2" d="M267,27.74a8.1,8.1,0,0,1-1.3,4.21c-4.39,7.64-8.77,15.28-13.22,22.88-1.8,3.09-4.84,4.12-7.52,2.72s-3.58-4.57-1.79-7.75c4.47-8,9.06-15.9,13.7-23.8,1.29-2.21,3.24-3.6,6-2.86A5.53,5.53,0,0,1,267,27.74Z"/><path class="cls-2" d="M58,247.84c.12,2-1.08,3.53-2.85,4.56-8,4.67-16,9.34-24.08,13.89a5.26,5.26,0,0,1-7.42-1.84,5,5,0,0,1,2-7.15c8.15-4.86,16.36-9.65,24.69-14.18C54.19,241,58,243.47,58,247.84Z"/><path class="cls-2" d="M300.3,242.41a6.81,6.81,0,0,1,3,1.18c7.53,4.33,15.09,8.63,22.59,13,3.66,2.15,4.65,5,2.94,7.94-1.6,2.71-4.65,3.31-8.08,1.36-7.75-4.4-15.46-8.9-23.18-13.38-2.62-1.51-3.65-3.79-2.78-6.69C295.48,243.48,297.3,242.43,300.3,242.41Z"/><path class="cls-2" d="M58,104.76c0,4.29-3.68,7-7.33,5-8.54-4.62-16.94-9.54-25.27-14.53-2.55-1.53-3.24-4.12-1.76-6.9a5,5,0,0,1,7.09-2c8.38,4.68,16.66,9.55,25,14.41A4.4,4.4,0,0,1,58,104.76Z"/><path class="cls-2" d="M329.62,91a5.75,5.75,0,0,1-3.15,4.74c-7.91,4.59-15.82,9.19-23.79,13.69-3,1.7-6.07.93-7.51-1.58a5.32,5.32,0,0,1,2.07-7.43c8.06-4.8,16.15-9.54,24.36-14.06A5.34,5.34,0,0,1,329.62,91Z"/><path class="cls-2" d="M110.22,300.2a5.6,5.6,0,0,1-1,2.87c-4.5,7.84-9,15.7-13.57,23.46-2.38,4-6.43,4.34-9,1.08a4.85,4.85,0,0,1-.45-5.78q7.07-12.37,14.25-24.66c1.41-2.41,3.7-3,6.26-2.29C109.1,295.56,110.17,297.37,110.22,300.2Z"/><path class="cls-2" d="M247.6,294.64c2.13-.19,3.68,1.1,4.78,3,4.6,7.91,9.21,15.81,13.69,23.8,1.74,3.1.83,6.13-1.91,7.69-2.57,1.47-5.41.65-7.26-2.46-4.65-7.88-9.26-15.79-13.69-23.79C240.92,298.73,243.07,294.76,247.6,294.64Z"/></g></g></svg>