<svg xmlns="http://www.w3.org/2000/svg" viewBox="0 0 383.05 372.87"><defs><style>.cls-1{fill:#9dc86c;}.cls-2{fill:#b5d2d8;}.cls-3{fill:#acd081;}.cls-4{fill:#9cb9c3;}.cls-5{fill:#d4edfb;}.cls-6{fill:#e6f4fc;}.cls-7{fill:#88a1b0;}.cls-8{fill:#b4e0f7;}.cls-9{fill:#c7d976;}.cls-10{fill:#9bb9c3;}</style></defs><g id="Capa_2" data-name="Capa 2"><g id="Capa_1-2" data-name="Capa 1"><path class="cls-1" d="M365.84,209.65a47.3,47.3,0,0,1,17.21,6v3.74A142.73,142.73,0,0,1,359.54,264c-6.7,8.55-14.37,15.85-25.16,19.08s-20.17,1.14-28.54-6.1a36.49,36.49,0,0,1-8.12-9.67c.27-2.07,1.74-.93,2.47-.72,16.12,4.63,28.43-2.08,38.85-13.44,10.78-11.76,18.37-25.59,24.51-40.24C364.07,211.65,364.45,210.29,365.84,209.65Z"/><path class="cls-2" d="M127.84,307.72a41,41,0,0,1-7.48-20.35,14.11,14.11,0,0,0-1.41-5.73c-.32-4.28-1.35-8.59.69-12.74,0-5.8.06-11.6.07-17.41a14.19,14.19,0,0,1,1.37-6.75,21.49,21.49,0,0,0,8.08,1.14q55.71,0,111.42,0c2.22,0,4.5-.31,6.63.7,1.63,1.23,1.47,3.07,1.48,4.78.05,9.35.22,18.69,0,28A35.85,35.85,0,0,1,213.34,314q-32,.13-63.92,0A39.08,39.08,0,0,1,127.84,307.72Z"/><path class="cls-3" d="M119.64,268.9c-.24,4.25,1,8.58-.69,12.74q-14.52-7.26-29-14.5c-1.19-.6-2.29-1.58-3.8-1.21-6.43-3.05-12.94-5.92-18.95-9.77-.1-2.77,2-4.45,3.32-6.48,1.53-2.37,1.16-3.65-1.4-4.89-9.52-4.6-18.94-9.43-28.42-14.11-3.79-1.87-6.32-1.35-7.7,1.44s-.19,5.58,3.51,7.47c8.88,4.52,17.82,8.89,26.7,13.4,1.47.75,3.43,1.09,3.73,3.26-2.77,6.66-8.63,9.83-14.78,12.08-8.15,3-16.36,2.11-24.21-1.69-1.1-.53-2-1.47-3.36-1.48-8.21-9.5-14.13-20.4-19.3-31.74A110.93,110.93,0,0,1,.38,220.14c-1.11-3.61.26-5.37,3.33-6.64,7.05-2.9,14.46-4.49,21.92-5.78a122.66,122.66,0,0,1,38.62-1,35.09,35.09,0,0,1,14.31,4.95c3.19,6.89,2.92,14,1,21.08a85.16,85.16,0,0,1-2.9,8.83c-1.6,4.08-1.53,4.09,2.43,6.24,4.24,2.29,8.85,3.88,12.78,6.75.4.44.73,1.05,1.23,1.3Q106.35,262.4,119.64,268.9Z"/><path class="cls-4" d="M247.58,247.09q-60.92,0-121.83-.05c-1.86,0-4.23.72-4.67-2.3,1.64-6.37,3.09-12.79,5-19.09,1.6-5.4,6.16-8.36,12.33-8.41,10.22-.09,20.45-.08,30.67-.11a5.87,5.87,0,0,1,4.22-1.16c8.72,0,17.45-.15,26.17.07,4.94.07,9.89-.43,14.81.33a4.66,4.66,0,0,1,1.2.75c9.55,0,19.1,0,28.64.09,1.44,0,3-.46,4.28.66-2.79,1.08-3.19,3-2.2,5.64a46.58,46.58,0,0,1,2.5,19.14c-.07,1.36.07,2.76-.63,4Z"/><path class="cls-5" d="M135.43,69.69c-7.68-1.36-14.14-4.51-17.65-12a8,8,0,0,1-.39-1.42c-.81-2.71,1.5-2.8,3-3.24,7.87-2.37,15.84-4.4,23.77-6.55q49-13.31,98.06-26.62c7-1.9,9.8-6.91,8.57-14.3-.24-1.49-2.07-3.46.61-4.68,6.88,1.3,11.2,5.67,13.49,12,2.45,6.75,1.26,13-3.33,18.72-5,6.19-12.29,7-19.13,8.93-11.56,3.2-23.18,6.15-34.76,9.28-.89.24-2,.27-2.63,1.21-2.81,2-6.25,2.32-9.44,3.18-17.74,4.8-35.46,9.69-53.22,14.46C140.06,69.25,137.73,69.31,135.43,69.69Z"/><path class="cls-5" d="M251.36,63.74c10.69,3.46,13.72,9.57,14.79,18.43.94,7.88-6.31,16.78-14.58,19-14.24,3.78-28.5,7.53-42.72,11.38-1.15.31-2.93.12-3.1,2.08q-32.08,8.57-64.13,17.32c-2.06.57-4.14.32-6.19.62-7.25-1.1-13.5-3.76-17.2-10.64a5.5,5.5,0,0,1-.84-2.77c-.76-2.79,1.68-2.66,3.08-3.07,8.84-2.6,17.77-4.85,26.65-7.29,31.32-8.58,62.71-16.94,94-25.56,2.65-.73,5.27-1.58,7.23-3.65,3.2-3.38,3-7.39,2.2-11.58C250.29,66.56,248.79,64.71,251.36,63.74Z"/><path class="cls-5" d="M251.36,126.61a19,19,0,0,1,15.69,16.62c.88,8.65-4.33,17.54-12.42,20-11.75,3.52-23.65,6.54-35.48,9.78-1.3.35-2.68.49-3.72,1.49-.31.26-.63.5-1,.73-14.61,4.18-29.29,8.07-44,12a3.74,3.74,0,0,1-1.49.06c-7,.32-13.37,3.32-20.09,4.83-3.13.7-6.21,1.6-9.33,2.35-10.2,2.45-21.05-6.32-21.43-13.19.53-2.42,2.81-2.15,4.39-2.58,13.24-3.53,26.42-7.24,39.64-10.79q40.59-10.89,81.11-22c7.32-2,10.12-7,8.39-14.53C251.33,129.79,250.6,128.24,251.36,126.61Z"/><path class="cls-4" d="M127.84,307.72c4.41.47,8,3.33,12.44,4a63.28,63.28,0,0,0,9.91,1.21c20.91-.06,41.82,0,62.73,0a34.79,34.79,0,0,0,34.69-34.82q0-15.49,0-31l.07-.07a21.32,21.32,0,0,1,14.83,0c1.48,3.61.54,7.39.72,11.09s.09,7.23.11,10.84a15.83,15.83,0,0,1,0,12.93c-1,17.91-8.75,31.78-24.49,40.85-6.72,3.87-14.1,5.42-21.73,5.71-2.65.1-3.39.93-3.31,3.47.16,5.34.07,10.69,0,16,0,1.34.33,2.76-.53,4-1.4-1.22-1.22-2.92-1.26-4.5-.07-3.48,0-7,0-10.45,0-7.41.67-7.18-7-7.18-10.19,0-20.39,0-30.58,0-1.85,0-3.77.21-5.33-1.18-13-.11-24.69-3.55-34.39-12.64A38.66,38.66,0,0,1,127.84,307.72Z"/><path class="cls-6" d="M251.36,63.74c-1.44,1.12-.3,2.29,0,3.37C254,75.85,250.73,81.64,242,84q-54.12,14.71-108.21,29.52c-4.3,1.17-8.64,2.19-12.93,3.41-1.3.37-3.14.17-3.47,2.19-4.3-10.53,1.27-21.77,12.72-25,13.44-3.81,27-7.24,40.44-11,2.1-.58,4.76-.36,5.95-2.92,12.1-2.86,24.07-6.18,36-9.67,8-1.76,15.85-4.22,23.78-6.33a44.77,44.77,0,0,1,10.52-1.94C248.33,62.74,250,62.68,251.36,63.74Z"/><path class="cls-6" d="M251.36,126.61c.79,3.67,2.73,7,1.73,11.14a11.51,11.51,0,0,1-8.6,8.9c-25.19,6.9-50.44,13.58-75.65,20.38q-25.09,6.78-50.15,13.71c-.21,0-.36.32-.54.48-3.87-9.93,2.57-20.77,11.1-23.42,10.4-3.23,21-5.71,31.48-8.81,5.53-1.63,11.37-2.36,16.53-5.17,4.24-2.16,9-2.68,13.44-4,7.13-2.07,14.3-4,21.51-5.83,11.32-2.84,22.43-6.5,33.87-8.88A11,11,0,0,1,251.36,126.61Z"/><path class="cls-6" d="M251.36.89c-1.18,2.63.87,4.88.82,7.45-.11,6.3-3.08,10.72-9.16,12.4-12.17,3.38-24.37,6.67-36.57,10L120,54.07c-1.21.33-2.46.63-2.63,2.21a18.83,18.83,0,0,1,12.24-25.14C144.79,26.94,160,23,175.2,18.83Q208.59,9.8,242,.72C245.09-.13,248.25-.41,251.36.89Z"/><path class="cls-3" d="M365.84,209.65C360.32,223.72,353.33,237,344,248.9c-7.13,9.07-15.4,16.57-27,19.28a29.19,29.19,0,0,1-16.07-.48c-1-.32-2-1.18-3.12-.4a1.51,1.51,0,0,1-.84-1.35c-.09-2.41,2.11-2.52,3.49-3.21q22.17-11.16,44.37-22.24a16.91,16.91,0,0,0,3.88-2.22c2-1.77,2.69-4,1.38-6.36s-3.55-3-6.11-1.94c-1.16.46-2.26,1.05-3.37,1.61q-21.69,10.85-43.41,21.66c-1.48.74-2.89,2.11-4.82,1.24-.71-2.69-.25-5.5-1.06-8.23-.68-2.29-1.4-4.38-3.26-5.93,0-1.5,0-3,0-4.49,2.9-2.06,3.08-5.59,4.49-8.43,5-10.19,13.71-15.37,24.32-17.87a21.51,21.51,0,0,1,6.24-1c1.88.11,2.77-1.45,3.89-2.58a83,83,0,0,1,13.47,0c1.5,1.92,3.18,3,5.79,2,2.07-.78,3.67,1.15,5.61,1.55a39.72,39.72,0,0,0,13.54.08A.4.4,0,0,1,365.84,209.65Z"/><path class="cls-7" d="M169.08,328.61c13.3,0,26.59.13,39.88-.09,3.56,0,4.38,1.11,4.27,4.43-.2,6.32,0,12.66.06,19a21.84,21.84,0,0,1-19,20.77c-10.77,1.29-21-5.13-23.78-14.91,1.55-1.46,3.5-1,5.32-1.08,4.21-.15,8.45.31,12.62-.73,4.75-1.18,7.46-4.23,8.36-8.95.67-3.56-.09-4.54-3.73-4.58-6.34-.09-12.67,0-19,0-1.72,0-3.52.25-5-1.1Q169.12,335,169.08,328.61Z"/><path class="cls-8" d="M246.8,62.29c-8.91,2.47-17.81,5-26.75,7.4-2.49.67-4.89,1.93-7.6,1.56-2.79,1-5.51.15-8-.86-9.38-3.85-18.49-3-27.93.15C170.26,72.65,163.89,75.09,157,75c-7.38-1.06-14.37-3.74-21.61-5.34,7.16-2.78,14.74-4.12,22.11-6.17,14.69-4.1,29.43-8,44.16-12A32.85,32.85,0,0,1,205,51Z"/><path class="cls-8" d="M246.08,125.12c-1.07,2.36-3.52,1.55-5.27,2-9.4,2.72-18.89,5.12-28.35,7.64-5.62-.45-11-2.17-16.31-3.73a17.21,17.21,0,0,0-9.52-.21c-7.95,2-15.84,4.32-23.79,6.38a15,15,0,0,1-6.54.61l-20.87-5.32,35.67-9.66c10.26-2.78,20.53-5.51,30.77-8.36,1.38-.39,2.6-.7,3.88.08,7.43,1.22,14.53,3.72,21.82,5.48C233.78,121.58,239.91,123.43,246.08,125.12Z"/><path class="cls-9" d="M292.51,254.53q24.9-12.43,49.81-24.87c3.85-1.93,7.53-1.09,9,2s-.17,6.67-3.92,8.55Q324,251.92,300.61,263.6c-1.3.66-2.85,1-3.73,2.35-1.52-.34-2.59.7-3.78,1.29q-14.91,7.29-29.78,14.64,0-6.45,0-12.92,13.29-6.56,26.55-13.13c.51-.25.85-.84,1.27-1.27A.89.89,0,0,1,292.51,254.53Z"/><path class="cls-8" d="M169,187.23c4.79-2.81,10.33-3.23,15.52-4.72,10-2.87,20.1-5.37,30.17-8,.74,1.66.33,3.42.34,5.13q.06,16.94,0,33.86c0,1.22.32,2.49-.34,3.65h-15c-1.2-1.35-1-3-1.05-4.63,0-4.48,0-9,0-13.46-.06-3.59-.57-4-4-3.06-6.6,1.85-13.25,3.54-19.84,5.42-1.85.53-3.81,1.51-5.7,0Z"/><path class="cls-1" d="M67.26,256c6.48,2.92,13.18,5.42,18.84,9.9C79.24,277.25,70.15,285.12,56,284.42c-8.51-.42-15.84-4.09-22.27-9.52a48.92,48.92,0,0,1-9.21-9.74c1.24-1.58,2.27-.11,3.22.35,12.62,6.14,25.26,4.39,35.66-5.32A27.9,27.9,0,0,0,66.53,256C66.77,255.74,67,255.72,67.26,256Z"/><path class="cls-5" d="M169.09,201.39c8-1.12,15.53-3.84,23.24-5.95,7.45-2,7.39-2.25,7.39,5.34v16.36H169Q169.07,209.27,169.09,201.39Z"/><path class="cls-1" d="M91.88,254.53c-6.1-1.48-11.2-5.12-16.75-7.76-1.95-.93-.75-2.53-.18-3.86,3-6.85,5.2-13.85,5.06-21.44-.07-3.35-1.69-6.45-1.45-9.83C96.17,220.71,98.48,238.12,91.88,254.53Z"/><path class="cls-10" d="M169.16,341.31c8.58,0,17.16.11,25.73,0,2.63,0,3.41.81,3.39,3.4-.06,7.86-5.2,12.85-13.93,13.08-4.6.12-9.2,0-13.8,0C168,352.48,169.35,346.83,169.16,341.31Z"/><path class="cls-5" d="M156.3,137.86c10.52-2.76,21.06-5.48,31.56-8.32a10.45,10.45,0,0,1,6.52,0c5.92,2.09,12.31,2.6,18.08,5.24-10.74,3-21.47,5.94-32.22,8.85a14,14,0,0,1-3,.16Z"/><path class="cls-5" d="M157,75c10.75-3,21.43-6.23,32.28-8.78,4.38-1,8.69,1.56,13,2.54,3.38.76,6.74,1.63,10.11,2.46-5.94,2.94-12.56,3.6-18.79,5.59-4.37,1.38-8.85,2.38-13.23,3.73a4.91,4.91,0,0,1-3.93-.34A110,110,0,0,1,157,75Z"/><path class="cls-7" d="M262.48,247H247.65c.09-8.28.17-16.52-2.8-24.52-1.63-4.4-1.25-4.55,3.51-4.63a9.72,9.72,0,0,1,8.25,7.08C258.81,232.24,260.55,239.66,262.48,247Z"/><path class="cls-3" d="M326.93,205.94c0,2.67-1.37,3.69-4,3.71-6.94,0-13.18,2.48-19,6.13a28.86,28.86,0,0,0-12.61,17c-.5,1.77-1.09,3.36-3.42,3,.2-10.47,5.81-17.69,14.18-23A45,45,0,0,1,326.93,205.94Z"/><path class="cls-3" d="M365.34,209.57c-4.28,2.62-8.76,1.67-13.29.88-1.35-.23-2.79-.15-3.79-1.19s-1.47-.68-2.53-.23c-3.24,1.37-4.51.54-5.33-3.07A98.81,98.81,0,0,1,365.34,209.57Z"/><path class="cls-3" d="M292.51,254.53l-1.38,0A35,35,0,0,1,288,240.33c2.49.27,3.48,1.74,3.85,4.15C292.32,247.83,293.77,251.07,292.51,254.53Z"/><path class="cls-6" d="M214.69,217.13V174.49h.74q0,21.32,0,42.64Z"/><path class="cls-9" d="M67.26,256h-.73c-6.1-3.88-12.8-6.61-19.19-9.94-4.31-2.25-8.73-4.27-13-6.59a5.82,5.82,0,0,1-2.27-8.07c1.56-2.89,4.46-3.84,7.63-2.27,10.5,5.2,20.93,10.51,31.45,15.66,2.06,1,2.09,2.07,1,3.71C70.51,251,68.89,253.53,67.26,256Z"/></g></g></svg>