<svg xmlns="http://www.w3.org/2000/svg" viewBox="0 0 368.98 383.88"><defs><style>.cls-1{fill:#f7c814;}.cls-2{fill:#cdcbc5;}.cls-3{fill:#b7b6ad;}.cls-4{fill:#fef4d0;}.cls-5{fill:#faccc0;}.cls-6{fill:#f5e298;}.cls-7{fill:#9d601b;}.cls-8{fill:#f6afa0;}.cls-9{fill:#fff;}.cls-10{fill:#9d4c1b;}.cls-11{fill:#f29481;}.cls-12{fill:#f29482;}.cls-13{fill:#ec9704;}.cls-14{fill:#f4f6df;}.cls-15{fill:#f6af9f;}.cls-16{fill:#f6f3db;}.cls-17{fill:#f6f2db;}.cls-18{fill:#fef4d1;}</style></defs><g id="Capa_2" data-name="Capa 2"><g id="Capa_1-2" data-name="Capa 1"><path class="cls-1" d="M194.86,383.88H172.37c-6.54-.66-13.13-.52-19.65-1.26-12.09-1.37-23.59-5-34.95-9.19C98.38,366.3,81.05,355.62,65,342.72c-1.92-1.54-3.91-3.13-4.86-5.57-.38-2.14.93-3.52,2.25-4.84q14-14.18,28.2-28.22c2.74-2.72,6.33-3.78,9.88-4.93,3.89-.1,7.79-.57,11.62.53a3.25,3.25,0,0,1,2.21,2.9c-.41,2.37-2.63,2.8-4.24,3.85-12.44,8.13-13,25.87-1.13,34.1,7.64,5.28,18.63,4.65,25.28-1.47a20.93,20.93,0,0,0,3.89-25.67c-1-1.74-2.94-3.26-1.72-5.71,1.41-1.39,3.23-1.12,4.94-1.13,7.47-.07,14.94,0,22.4-.06,5.45-.07,9.94-2,12.77-7,3.52-6.18,1-15.29-5.19-18.4-1.72-.5-3.45-1-4.4-2.72-.26-1.41.68-2.06,1.72-2.51a16.41,16.41,0,0,0,9.46-10.37,3.4,3.4,0,0,1,1.66-1.94c2.25-.5,3.75,1,5.35,2.11A81.22,81.22,0,0,0,218.42,279c10.15,3.24,20.29,1.47,30.28-.54,21.56-4.35,38.49-16.11,51.12-33.9A78.66,78.66,0,0,0,314,205.66c2.25-24.46-5-45.7-21.31-64a82.36,82.36,0,0,0-12.16-11c-7.28-5.45-11.48-12.36-10.84-21.72.26-3.69-.78-7.5,1-11.07a6.47,6.47,0,0,1,2.68-2c5.17-2.29,7.3-6.57,7.55-11.93.35-7.25.46-14.49-3.51-21,1.21-4.34,3.75-8.31,3.58-13.05-.05-1.46-.05-3,1.12-4.17,1.82-1.17,3.38-.21,4.84.74a173.5,173.5,0,0,1,34.9,30.34,183.46,183.46,0,0,1,45.63,100.64A182.67,182.67,0,0,1,353.62,274,185.13,185.13,0,0,1,219,382.09c-6.32,1.23-12.88,1.22-19.36,1.44C198,383.58,196.4,383.08,194.86,383.88Z"/><path class="cls-2" d="M203.37,17.41c2.36-.1,2.34-2,2.38-3.51.19-7.37,4.41-11.48,10.85-13.9h12c6.15,1,10.1,4.4,11.18,10.62.49,2.8.19,5.68.2,8.53,0,1.61,0,3.22-.08,4.83a4.66,4.66,0,0,1-1.55,3.63c-2.91,1-5.91.44-8.87.48-6.45.09-12.91.05-19.36,0-4.56,0-5.31-.56-5.6-5C204.38,21.14,203,19.46,203.37,17.41Z"/><path class="cls-3" d="M238.24,27c0-4-.07-7.95.14-11.9.35-6.58-2.34-11.23-8.29-14A8.55,8.55,0,0,1,228.6,0h18.74c7.82,3.13,11.09,9,10.5,17.26-.22,3.21-.07,6.45-.08,9.67-.91,1.55-2.33,1.73-3.88,1.4a9.73,9.73,0,0,0-4.76.41c-1.41,0-2.84,0-4.25.12C242.63,28.33,240.16,28.64,238.24,27Z"/><path class="cls-4" d="M218,280.5c-14.19-2-26.64-8-38.06-16.37-1.53-.68-1.37-2.19-1.77-3.46-1.3-4.06-3-7.83-7.11-9.91-1.64-.78-3.77-.91-4.21-3.24.67-1.72,2.39-2,3.77-2.75,9.71-5.34,10.26-17.89,1.07-24-1.78-.6-3.73-1-4.3-3.18.12-1.87,1.73-2.24,3-2.95,9.18-5.18,10.58-15.67,3.11-23.07-1-1-2.21-1-3.37-1.38-5.3-1.85-10.8-.75-16.2-1.08-2.06-.12-4.27.35-6-1.38-1.34-1.74-1.26-3.72-.86-5.72,4.28-21.67,14.88-39.56,32.63-52.81,7.89-5.89,11.75-13.16,11.35-23-.12-3.06-1.19-6.6,2-9a64.45,64.45,0,0,1,20.23.12c1.88,1.37,1.86,3.41,1.87,5.41q.07,31.86,0,63.7c0,5-1.22,5.9-6.18,5-11-1.91-19.5,3.35-22.4,13.79-2.1,7.59,1.58,15.92,9,20.4a17.93,17.93,0,0,0,21.14-2.37,21.35,21.35,0,0,0,4.76-6.2,6.1,6.1,0,0,1,6-3.7,41.57,41.57,0,0,0,4.87-.06c4.89-.5,8.05,1.25,10.55,5.79a17.82,17.82,0,0,0,20.28,8.3,18.55,18.55,0,0,0,1.37-35.53c-3.51-1.24-7.14-.92-10.73-.33-4.46.72-5.83-.23-5.87-4.72-.13-14.24-.08-28.48,0-42.72,0-1.36-.05-2.78,1-3.9,1.57-1.14,2.76-.07,3.49,1,3.27,4.74,8.16,7.68,12.42,11.29a81.85,81.85,0,0,1,26.51,41.7c7.53,27.67,2.59,53.27-14.79,76a81.85,81.85,0,0,1-43.42,29.74C228.22,281.36,223.11,281.21,218,280.5Z"/><path class="cls-5" d="M52.42,328.4c-6.82-6.09-12.3-13.35-17.67-20.67a175.61,175.61,0,0,1-16-26.5c.22-2.61,2.07-4.17,3.75-5.84,18.65-18.63,37.21-37.35,56-55.86a16.73,16.73,0,0,0,5.41-12.94c-.17-17.87-.07-35.74-.07-53.61,0-1.62,0-3.25.08-4.87.34-4,3.07-6.57,7-6.18,9.78,1,17.68,5.28,22.43,14.13,1.44,2.69,2.1,5.83,3.22,8.73-.52,8.53.09,17.07-.4,25.59a3.55,3.55,0,0,1-.7,3.16c-3.78,4.64-4,9.7-1.89,15.05,0,2.22,2.94,3,2.66,5.32a62.28,62.28,0,0,0,0,7.23,3.41,3.41,0,0,1-.64,2.12c-3.89,5-4.2,10.43-2,16.17.83,1.53,2.49,2.66,2.24,4.7a20,20,0,0,1,0,7.28,4.73,4.73,0,0,1-1,3.1c-3.09,4.72-3.24,9.65-1.15,14.76.28,1.75,2.28,2.74,2.11,4.68a53,53,0,0,1,.44,7.65,3.47,3.47,0,0,1-.69,2.46c-3.52,4.33-4.11,9.13-2.46,14.34a3.72,3.72,0,0,1,0,1.48,1.66,1.66,0,0,1-.65.91H99.74c-4.61.93-9.27,1.47-13.93,2a17.7,17.7,0,0,0-10.68,5.54c-6,6-11.91,12-17.95,17.9C55.88,327.53,54.66,329.14,52.42,328.4Z"/><path class="cls-6" d="M218,280.5c17.83-.46,32.71-8,45.91-19.35a80.79,80.79,0,0,0,27.95-49.84c4.07-25.57-2.48-48.37-18.9-68.42a87.33,87.33,0,0,0-15.69-14.32,31.74,31.74,0,0,1-7.55-8.72,2.85,2.85,0,0,1-1.65-2.68,147.64,147.64,0,0,1,0-17,4.67,4.67,0,0,1,.82-2,3.24,3.24,0,0,1,1.22-.88,86.26,86.26,0,0,1,16.77-.69c1.6,0,3.32,0,4.23,1.73,0,4,.14,8,.05,12-.16,7.94,3.5,13.91,9.64,18.45,19.3,14.26,31.19,33.2,34.46,56.91,3.6,26.13-3.61,49.4-21.56,68.92-18.18,19.76-41.06,28.34-67.7,27.24A23.14,23.14,0,0,1,218,280.5Z"/><path class="cls-7" d="M250.36,98.1l-.79.24c-3.45,2.77-7.42,1.14-11.18,1.34a102.11,102.11,0,0,1-13.55,0c-3.77-.2-7.76,1.44-11.21-1.34h-21c-1.57,1.36-3.31,1-4.88.22-4.71-2.44-7.77-6.1-7.92-11.66-.15-5.2-.09-10.41,0-15.62,0-4,1.55-7.21,5.13-9.26,2.12-1,4.4-.66,6.62-.66,18.55-.05,37.11,0,55.66,0,7.35,0,9.54-2.15,9.71-9.51.09-3.61,0-7.22,0-10.83a11.43,11.43,0,0,0-5.53-10.37c-1.26-.79-2.64-1.52-2.62-3.33l9-.34c3.59.06,7.18.24,10.77.16,8-.15,14.8,6.45,13.37,13.76-.29,1.44-.63,3.22.6,4.62-.06,2.35-.16,4.69-.19,7a15.74,15.74,0,0,1-4.15,10.43c-1,1.77-2.68,1.59-4.27,1.64-3.86.1-7.72.08-11.58,0-2.43,0-3.44.73-2.85,3.32,1.46,6.4,1,12.92.52,19.35C259.59,93,256.27,96.89,250.36,98.1Z"/><path class="cls-8" d="M112.38,299.91c-3.82-6.82-1.81-12.68,3-18.08a3.6,3.6,0,0,1,2.71-3.56c2-.55,3.75-1.84,5.83-2.24,12.52,1,25.06.18,37.58.48,2.05.05,4.31-.43,5.86,1.57l4.28,1.64c3,3.09,2.85,6.71,1.65,10.43a16.88,16.88,0,0,1-15.9,12.06c-13,.27-25.93.09-38.89.09A9.34,9.34,0,0,1,112.38,299.91Z"/><path class="cls-9" d="M136.42,308.25c10.76,12.27,6.26,27.54-3.49,34a22,22,0,1,1-21.77-38.16c.9-.44,1.81-.83,2.72-1.23a2.27,2.27,0,0,1,2.47.17c4.52,3.48,9.78,3.64,15.14,3.58C133.27,306.55,135.29,306.19,136.42,308.25Z"/><path class="cls-10" d="M250.36,98.1A24.62,24.62,0,0,1,253,96a10.45,10.45,0,0,0,5.22-7.86c.66-6.68,1-13.42-.34-20.12-.32-1.6-2.39-3.07-1.46-4.35,1.14-1.58,3.49-.62,5.3-.66,5.49-.1,11-.06,16.48-.07,5.57,5.79,6.31,24.53,1.26,30.65a13.83,13.83,0,0,1-8.25,4.75Z"/><path class="cls-11" d="M136.42,308.25c-2.59,0-5.18-.26-7.76-.1a18.27,18.27,0,0,1-14.78-5.33c-.5-.68-1-1.36-1.52-2,0-.3,0-.59,0-.88,14.9,1.59,29.84.54,44.77.67,8.8.07,18-8.56,14.46-20.86a14.85,14.85,0,0,1,8,16.45,15.23,15.23,0,0,1-14.44,11.95C155.62,308.25,146,308.22,136.42,308.25Z"/><path class="cls-12" d="M167.33,278.08c-14.87-.18-29.76.76-44.63-.55-4.73.78-5.81.27-8-3.81l-2.33-3.79c.71-2.58,2.86-1.62,4.32-1.48,12.68,1.24,25.39.48,38.08.45,8.08,0,13.16-3.64,15.24-9.77a13.74,13.74,0,0,0,.6-5.9c-.15-1.39-.27-2.76,1.05-3.72,6,3,8.45,8.1,8.34,14.62C178.9,271.63,174.15,275.8,167.33,278.08Z"/><path class="cls-8" d="M52.42,328.4c6.65-6.53,13.56-12.83,19.89-19.67a24,24,0,0,1,19.59-8.07c2.61.1,5.23.08,7.84.12a20.19,20.19,0,0,0-9.66,6c-9.75,10-19.66,19.84-29.51,29.75A51.85,51.85,0,0,1,52.42,328.4Z"/><path class="cls-1" d="M115.11,164.35c-3.08-9.74-8.75-17-19-19.9-.24-.06-.47-.18-.71-.24-8.28-2.1-10.07-.73-10.07,7.69,0,19,0,38,0,56.94A13.48,13.48,0,0,1,81.42,219L20.23,280.15a12.61,12.61,0,0,1-1.49,1.08A185.37,185.37,0,0,1,3.18,234.66a21.51,21.51,0,0,1,4.45-5.94C18.5,217.9,29.31,207,40.2,196.21a88.4,88.4,0,0,0,6.88-7.88c2.79-3.53,3.76-7.7,3.75-12.26-.08-32.18,0-64.36-.06-96.54,0-2.66.14-5.24,1.59-7.57a176.25,176.25,0,0,1,52.07-37.49c3.36-1.62,6.8-3,10.21-4.55,1.58.11,2,1.25,2.23,2.55a21,21,0,0,1,.2,3.36q0,61.26,0,122.51C117,160.46,117.69,163,115.11,164.35Z"/><path class="cls-1" d="M185.11,62.94a13.4,13.4,0,0,0-3.92,10.46c.16,3.59,0,7.2,0,10.8.06,8.16,3.27,12.13,11.37,14.13,0,3.75,0,7.5,0,11.25-.09,7.87-3.17,14.31-9.54,19-16.28,11.93-27.37,27.46-32.73,47a52.49,52.49,0,0,0-2.11,11.38c-.63,1.72-2.07,2-3.63,2.09q-7.68.26-15.37,0a4.77,4.77,0,0,1-4.13-2.16c-1.07-1.69-.83-3.61-.83-5.46q-.08-74.62,0-149.25c0-2.36-.2-4.81,2-6.52a190.12,190.12,0,0,1,77.17-8.2c3.26.55,2.71,3.1,2.48,5.18-.38,3.52.74,4.77,4.46,4.64,9.3-.31,18.63-.18,27.94-.23l6.48.35c-.48,1.94-2.11,2-3.57,1.95-12.68-.15-25.38.77-38.05-.54a37,37,0,0,0-12.23.94,10.37,10.37,0,0,0-7.75,9.46c-.24,5-.17,10,0,14.94a11.06,11.06,0,0,0,1.49,5C185.25,60.28,185.86,61.53,185.11,62.94Z"/><path class="cls-13" d="M52.36,72l.06,106.83c0,6.58-3.94,11.22-8.14,15.49-12.79,13-25.75,25.84-38.65,38.74a4.88,4.88,0,0,1-2.45,1.64q-15.81-91.86,47-160.73C50.82,73.21,51.62,72.62,52.36,72Z"/><path class="cls-14" d="M126.19,25.61,126.13,187c-3,2.8-6.78,3.75-10.74,4.13-1.24-2.06-.67-4.35-.64-6.51.1-6.78-.5-13.56.36-20.32q0-65.58,0-131.16c0-1.1.24-2.26-.5-3.26Z"/><path class="cls-13" d="M185.11,62.94a15.78,15.78,0,0,1-3.79-12.14,42.47,42.47,0,0,0,0-7.48c-1-11.27,5.42-16.61,16.31-16.18,14.34.56,28.68.57,43,.53,1.36,0,2.71-.21,4.07-.32l4.05-.08c7.34,2.88,10.51,8.23,9.86,16.09-.28,3.34,0,6.73-.07,10.09-.17,6.63-3.06,9.45-9.57,9.45Z"/><path class="cls-9" d="M213.63,98.34h11.2c2.27,1.76,1.66,4.31,1.67,6.6.06,22.72,0,45.45,0,68.17,0,1.5-.05,3,.05,4.49.21,3.58,1.14,4.38,5,4.38s4.93-.8,5-4.38c.17-8.61.06-17.23.06-25.84,0-15.86,0-31.71,0-47.57,0-2.07-.39-4.33,1.67-5.85h11.21q.09,10.75.17,21.51c-.05,16-.05,32-.19,48,0,3,1.21,2.77,3.44,2.17,10.4-2.8,20.06,1.85,24.39,11.58,3.86,8.69.75,19-7.47,24.8a19.76,19.76,0,0,1-24.81-2.06c-1.33-1.3-3.09-2.57-3.63-4.2-1.58-4.75-4.83-5.78-9.25-5.19a14.63,14.63,0,0,1-3.74,0c-2.88-.38-4.48.73-5.78,3.43-3.56,7.42-12.13,12.31-19.45,11.51A21,21,0,0,1,184.92,194c-3.66-14.83,10-28.11,25-24.09,3.42.91,3.71-.16,3.7-3C213.58,144.07,213.62,121.21,213.63,98.34Z"/><path class="cls-15" d="M171.62,249.51c1.83,7.65.34,14.12-6.67,18.58-3.18,2-6.79,2.48-10.41,2.52-11.11.09-22.23,0-33.34.06-3,0-5.84-1.37-8.87-.74-3.41-6.57-1.81-12.5,2.33-18.11,1.69-4.19,5.86-4.48,9.31-5.92,12.9-.33,25.81-.14,38.71-.1,1.69,0,3.57-.19,4.58,1.73Z"/><path class="cls-8" d="M112.34,240c-3.41-7-2.16-13.17,3.08-18.71.8-4.08,4.86-3.88,7.43-5.65,13.06.35,26.12,0,39.17.19,2,0,4.33-.52,5.81,1.62l4.6,2.2c5.39,10.58-4.69,22.3-14.86,22-12.94-.34-25.89-.11-38.83,0A15.52,15.52,0,0,1,112.34,240Z"/><path class="cls-8" d="M115.39,191.17c3-2.8,6.78-3.73,10.74-4.13a121.31,121.31,0,0,0,22.06-.12c5.41,1,10.87.26,16.31.45a14.89,14.89,0,0,1,7.16,1.64c3.88,5.37,2.41,13.58-3.3,18.34A17.32,17.32,0,0,1,157,211.57c-12.74.05-25.48,0-38.22,0a8.34,8.34,0,0,1-6.43-2.42C108.62,202.39,110.48,196.53,115.39,191.17Z"/><path class="cls-11" d="M112.34,240l13.68,0c10.35,0,20.69,0,31,0,9.86,0,16.5-7.78,15-17.53-.15-1-.54-1.94.33-2.78,5.68,3.58,8.38,9.3,7.34,15.57-1,6.07-5.74,10.76-12.51,12.35l-44.42-.07c-4.91.73-5.66.37-8.17-3.87Z"/><path class="cls-11" d="M112.39,209.18c10.17,1.57,20.41.43,30.62.73,4.36.13,8.73,0,13.1,0,11.13-.05,17.95-8.51,15.69-19.43a12.32,12.32,0,0,1-.14-1.49c6.16,3.17,8.8,8.42,8.11,15.09-.64,6.24-4.26,10.48-10.24,12.61-.58.2-1.13.46-1.7.7-13.53,0-27.06,0-40.59,0a24.3,24.3,0,0,1-5.89-.73c-3.41,1-4.48.43-6-3C114.6,212.05,112.56,211.24,112.39,209.18Z"/><path class="cls-16" d="M114.67,243.59c2.65,1.45,5,3.55,8.17,3.87l-8.18,4.37C114.67,249.08,114.67,246.34,114.67,243.59Z"/><path class="cls-17" d="M114.66,273.72c2.56,1.53,4.87,3.59,8,3.81-2.26,1.74-5.28,2.21-7.35,4.3C114,279.22,115,276.41,114.66,273.72Z"/><path class="cls-16" d="M115.39,213.69c1.88,1.22,3.58,2.79,6,3,.89,2-1.08,1.51-1.78,2-1.31.94-2.76,1.69-4.15,2.51A9,9,0,0,1,115.39,213.69Z"/><path class="cls-4" d="M238.36,98.34c0,26.85-.08,53.69.06,80.53,0,3.69-.85,5-4.76,4.92-8.8-.26-8.8,0-8.81-9q0-38.2,0-76.41Z"/><path class="cls-1" d="M109.75,323.94a10.91,10.91,0,0,1,21.81-.25,10.91,10.91,0,1,1-21.81.25Z"/><path class="cls-18" d="M204.69,180.66c5.57,0,9,3.55,8.91,9.17-.07,4.3-4.37,8.69-8.59,8.79a9.59,9.59,0,0,1-9.39-9.27C195.61,184.2,199.32,180.64,204.69,180.66Z"/><path class="cls-18" d="M267.58,189.44c.06,4.51-4.19,9.06-8.57,9.18a9.6,9.6,0,0,1-9.41-9.24,8.44,8.44,0,0,1,8.68-8.72C264,180.58,267.5,183.88,267.58,189.44Z"/></g></g></svg>