<svg xmlns="http://www.w3.org/2000/svg" viewBox="0 0 132.69 184.22"><defs><style>.cls-1,.cls-3{fill:none;stroke:#1d1d1b;stroke-miterlimit:10;}.cls-1{stroke-width:10px;}.cls-2{fill:#1d1d1b;}.cls-3{stroke-width:11px;}</style></defs><g id="Capa_2" data-name="Capa 2"><g id="Capa_7" data-name="Capa 7"><path class="cls-1" d="M5,126.92v38.42a14.7,14.7,0,0,0,16.22,13.77l45.63.08h-1l45.62-.08a14.7,14.7,0,0,0,16.22-13.77V94.54a14.7,14.7,0,0,0-16.22-13.78l-45.62-.07h1l-45.63.07A14.71,14.71,0,0,0,5,94.54V133"/></g><g id="Capa_8" data-name="Capa 8"><path class="cls-1" d="M111.32,79.67C110,69.73,125.59,5,66.85,5S23.69,69.73,22.37,79.67"/><circle class="cls-2" cx="66.35" cy="122.66" r="11.5"/><line class="cls-3" x1="66.35" y1="131.27" x2="66.35" y2="145.61"/><ellipse class="cls-1" cx="66.31" cy="145.61" rx="0.5" ry="0.99"/></g></g></svg>